<svg width="3000" height="3000" viewBox="0 0 3000 3000" fill="none" xmlns="http://www.w3.org/2000/svg">
<path d="M0 1500C0 671.573 671.573 0 1500 0V0C2328.43 0 3000 671.573 3000 1500V2812.5C3000 2916.05 2916.05 3000 2812.5 3000H1500C671.573 3000 0 2328.43 0 1500V1500Z" fill="#FF8A01"/>
<path d="M1765.94 1151.09C1805.78 1204.09 1845.24 1256.29 1884.65 1308.54C1888.76 1313.99 1891.24 1319.74 1891.44 1327.08C1892.24 1357.06 1893.97 1387.01 1895.1 1416.97C1895.93 1438.97 1896.21 1461 1896.99 1483C1898.54 1527 1900.04 1571 1902.08 1614.97C1902.57 1625.4 1900.56 1634.43 1895.08 1643.29C1863.39 1694.51 1831.92 1745.86 1800.46 1797.21C1777.3 1835.04 1754.04 1872.81 1731.35 1910.91C1726.13 1919.67 1722.32 1929.45 1719.16 1939.18C1710.95 1964.45 1703.31 1989.91 1695.73 2015.38C1690.26 2033.7 1685.26 2052.16 1680.01 2070.55C1679.59 2072.01 1678.89 2073.38 1677.94 2075.75C1668.91 2071.55 1663.28 2064.26 1657.11 2057.81C1648.03 2048.32 1639.37 2038.42 1630.51 2028.7C1620.76 2018.02 1609.13 2010.44 1595.65 2004.86C1552.77 1987.1 1509.89 1969.3 1467.56 1950.27C1428.92 1932.89 1391.01 1913.88 1352.78 1895.58C1338.07 1888.54 1323.77 1880.45 1308.58 1874.65C1284.98 1865.65 1266.3 1850.24 1248.14 1833.43C1212.08 1800.06 1175.49 1767.26 1139.23 1734.1C1130.84 1726.41 1123.01 1718.79 1120.23 1706.44C1115.86 1687.06 1109.33 1668.18 1103.66 1649.1C1098.24 1630.85 1092.76 1612.62 1087.28 1594.38C1083.28 1581.04 1079.1 1567.75 1075.24 1554.37C1069.39 1534.12 1063.68 1513.84 1058.11 1493.51C1057.19 1490.15 1056.58 1486.43 1057.01 1483.02C1059.6 1462.46 1062.51 1441.93 1065.37 1421.39C1069.45 1392.12 1073.63 1362.85 1077.68 1333.57C1079.81 1318.13 1082.18 1302.7 1083.62 1287.18C1084.28 1280 1086.79 1274.28 1091.19 1268.85C1132.69 1217.7 1174.39 1166.7 1215.34 1115.11C1225.63 1102.14 1238.64 1093.9 1252.65 1086.32C1289.58 1066.34 1326.47 1046.29 1363.34 1026.21C1389.79 1011.8 1416.08 997.093 1442.72 983.039C1446.88 980.846 1453.03 979.689 1457.36 981.013C1483.15 988.911 1508.64 997.821 1534.32 1006.1C1553.25 1012.21 1572.41 1017.6 1591.28 1023.86C1599.1 1026.46 1606.84 1029.83 1613.92 1034.01C1649.08 1054.76 1683.97 1075.94 1719.03 1096.85C1726.7 1101.42 1732.69 1107.44 1737.94 1114.65C1746.8 1126.78 1756.31 1138.45 1765.94 1151.09ZM1216.54 1478.77C1220.29 1497.52 1224.08 1516.26 1227.79 1535.01C1229.57 1543.98 1230.83 1553.07 1233.04 1561.92C1235.24 1570.7 1237.19 1579.84 1241.25 1587.81C1257.98 1620.7 1275.3 1653.28 1292.76 1685.79C1299.85 1699.01 1306.51 1712.8 1315.73 1724.46C1332.23 1745.32 1351.07 1764.31 1367.84 1784.97C1376.68 1795.86 1387.27 1800.34 1400.56 1801.6C1415.66 1803.02 1430.69 1805.24 1445.72 1807.38C1457.56 1809.07 1469.61 1810.2 1481.04 1813.43C1487.75 1815.33 1491.73 1813.38 1495.99 1809.55C1498.05 1807.7 1499.81 1805.51 1501.7 1803.48C1520.66 1783.19 1539.68 1762.95 1558.55 1742.59C1562.78 1738.02 1566.52 1732.99 1570.89 1727.7C1566.74 1723.11 1563.43 1719.19 1559.87 1715.52C1532.11 1686.97 1504.25 1658.52 1476.6 1629.87C1473.11 1626.25 1469.86 1622.01 1467.81 1617.47C1451.85 1582.04 1436.43 1546.37 1420.32 1511.01C1416.02 1501.59 1414.37 1492.35 1414.98 1482.08C1417.08 1446.56 1418.05 1410.97 1420.65 1375.49C1422.11 1355.51 1416.86 1336.64 1414.09 1317.36C1412.05 1303.19 1408.24 1289.28 1406.03 1275.13C1404.77 1267.04 1401.72 1261.21 1394.42 1256.97C1370.8 1243.26 1347.45 1229.06 1323.92 1215.18C1318.94 1212.24 1313.62 1209.86 1308.4 1207.2C1277.5 1240.43 1247.69 1272.87 1217.36 1304.81C1211.68 1310.79 1208.95 1316.59 1209.14 1324.76C1209.92 1359.17 1209.84 1393.61 1211 1428.01C1211.56 1444.31 1214.2 1460.55 1216.54 1478.77ZM1581.58 1642.11C1589.56 1662.48 1597.13 1683.02 1605.63 1703.17C1614.13 1723.3 1620.56 1744.44 1631.64 1762.91C1633.72 1762.52 1634.24 1762.58 1634.5 1762.36C1667.33 1733.66 1700.16 1704.95 1732.96 1676.21C1738.28 1671.54 1741.04 1665.62 1742.02 1658.54C1743.75 1645.91 1745.67 1633.28 1748.07 1620.76C1750.24 1609.45 1754.07 1598.39 1755.54 1587.01C1757.66 1570.51 1763.39 1554.44 1760.65 1537.29C1758.71 1525.1 1756.9 1512.62 1757.44 1500.37C1758.88 1468.16 1748.95 1438.15 1741.34 1407.67C1737.1 1390.69 1732.2 1373.87 1727.61 1356.98C1724.16 1344.31 1721.86 1331.17 1716.92 1319.12C1712.63 1308.68 1705.75 1299.19 1699.31 1289.76C1678.95 1259.97 1658.12 1230.49 1637.78 1200.68C1633.79 1194.82 1629.17 1191.76 1622.1 1191.71C1616.1 1191.67 1610.09 1191.2 1604.13 1190.51C1578.75 1187.57 1553.39 1184.52 1528.02 1181.44C1522.09 1180.72 1516.2 1179.59 1510.26 1178.9C1498.52 1177.54 1486.76 1175.38 1474.58 1178C1473.65 1192.12 1472.77 1205.25 1471.91 1218.38C1470.77 1235.94 1469.43 1253.49 1468.67 1271.06C1468.49 1275.26 1469.72 1279.77 1471.28 1283.75C1477.94 1300.74 1485.54 1317.38 1491.74 1334.53C1501.08 1360.35 1511.79 1385.41 1525.49 1409.28C1532.92 1422.23 1541.57 1434.8 1543.69 1450.35C1545.35 1462.58 1548.12 1474.66 1550.28 1486.82C1552.58 1499.8 1554.55 1512.84 1557.03 1525.78C1560.93 1546.15 1565.06 1566.47 1569.23 1586.78C1572.91 1604.71 1576.78 1622.6 1581.58 1642.11Z" fill="#F8F5EE"/>
<path d="M2453.89 994.453C2460.81 1008.68 2467.78 1022.88 2474.62 1037.14C2478.98 1046.22 2478.46 1047.42 2470.18 1051.88C2431.81 1072.54 2393.53 1093.37 2355.12 1113.94C2319.84 1132.84 2284.72 1152.08 2248.96 1170.02C2226.27 1181.41 2202.65 1190.99 2179.23 1200.84C2130.29 1221.44 2081.18 1241.63 2032.19 1262.09C2016.8 1268.52 2001.58 1275.35 1986.22 1281.84C1979.65 1284.61 1976.79 1283.68 1972.42 1277.26C1955.92 1252.99 1939.48 1228.68 1923.16 1204.28C1918.39 1197.15 1919.15 1195.09 1927.47 1190.8C1991.4 1157.85 2050.99 1117.97 2109.48 1076.39C2146.67 1049.96 2182.77 1022.07 2215.89 990.592C2250.51 957.691 2288.74 929.513 2328.22 902.881C2329.87 901.768 2331.37 900.429 2334.46 898.786C2348.95 890.37 2361.91 882.364 2376 873.656C2379.94 878.96 2383.22 883.715 2386.85 888.192C2389.74 891.744 2393.04 894.956 2396.15 898.319C2396.15 898.319 2396.49 898.155 2396.22 899.107C2399.22 904.289 2402.48 908.52 2405.75 912.75C2405.75 912.75 2406.07 912.612 2405.83 913.58C2418.92 937.534 2432.24 960.53 2445.66 983.462C2446.15 984.291 2447.71 984.49 2448.77 984.982C2448.77 984.982 2448.78 985.082 2448.68 985.953C2450.36 989.367 2452.12 991.91 2453.89 994.453Z" fill="#F8F5EE"/>
<path d="M2261.84 1422.37C2290.01 1419.71 2317.04 1417.1 2344.08 1414.48C2347.26 1414.17 2350.44 1413.73 2353.63 1413.52C2386.33 1411.43 2419.05 1409.5 2451.74 1407.28C2487.62 1404.84 2523.49 1402.15 2559.36 1399.55C2560.16 1399.5 2560.95 1399.32 2561.75 1399.27C2572.04 1398.64 2573.71 1399.92 2574.41 1410.09C2575.91 1431.97 2578.04 1453.85 2578.44 1475.76C2578.94 1504.15 2578.46 1532.59 2577.5 1560.98C2577.02 1575.2 2574.54 1589.36 2572.92 1603.92C2570.08 1604.1 2567.67 1604.73 2565.44 1604.33C2552.49 1602.04 2539.59 1599.5 2526.67 1597.07C2516.12 1595.08 2505.62 1592.81 2495.01 1591.22C2480.42 1589.04 2465.73 1587.49 2451.11 1585.48C2432.51 1582.91 2413.95 1580.1 2395.36 1577.51C2381.12 1575.54 2366.89 1573.49 2352.6 1571.93C2331.94 1569.66 2311.22 1567.98 2290.56 1565.71C2268.37 1563.28 2246.23 1560.45 2224.06 1557.8C2222.87 1557.66 2221.68 1557.55 2220.48 1557.46C2194.61 1555.49 2168.73 1553.66 2142.87 1551.52C2111.03 1548.87 2079.23 1545.78 2047.38 1543.27C2035.03 1542.3 2022.59 1542.45 2010.19 1541.96C2006.61 1541.82 2002.62 1542.09 1999.61 1540.58C1996.87 1539.21 1993.36 1535.7 1993.34 1533.11C1993.22 1510.72 1993.69 1488.32 1994.31 1465.93C1994.39 1462.9 1996.22 1459.92 1997.56 1455.97C2007.68 1454.33 2017.86 1452.64 2028.05 1451.05C2045 1448.4 2061.95 1445.83 2078.91 1443.22C2080.88 1442.91 2082.85 1442.51 2084.83 1442.29C2118.54 1438.56 2152.25 1434.91 2185.95 1431.12C2210.87 1428.31 2235.78 1425.33 2261.84 1422.37Z" fill="#F8F5EE"/>
<path d="M2399.14 1907.6C2426.65 1921.76 2455.38 1931.5 2482.59 1948.01C2470.86 1971.1 2460.01 1993.49 2448.23 2015.39C2430 2049.26 2409.8 2081.97 2387.86 2113.58C2386.95 2114.89 2386.41 2116.44 2385.47 2117.72C2380.03 2125.19 2378.97 2125.42 2371.4 2119.69C2348.03 2102 2324.89 2083.99 2301.36 2066.51C2249.47 2027.97 2197.71 1989.26 2145.33 1951.41C2078.22 1902.91 2009.53 1856.71 1938.85 1813.53C1932.89 1809.9 1927.01 1806.15 1920.49 1802.07C1937.91 1777.04 1954.4 1753.38 1970.85 1729.69C1974.02 1725.13 1977.56 1724.14 1982.93 1726.56C2010.42 1738.93 2038.01 1751.08 2065.66 1763.06C2089.99 1773.59 2114.39 1783.94 2138.87 1794.12C2168.89 1806.59 2199.12 1818.58 2229.09 1831.17C2255.39 1842.23 2281.54 1853.65 2307.62 1865.25C2335.9 1877.82 2364.02 1890.76 2392.18 1903.61C2394.32 1904.59 2396.22 1906.11 2399.14 1907.6Z" fill="#F8F5EE"/>
<path d="M702.506 938.726C735.17 963.924 767.606 988.051 799.162 1013.28C843.677 1048.87 894.417 1074.55 942.37 1104.65C972.225 1123.39 1002.78 1141.01 1032.97 1159.22C1043.43 1165.53 1043.83 1168.56 1035.82 1177.43C1031.81 1181.86 1028.16 1186.78 1023.54 1190.47C1008.71 1202.29 1004.71 1218.82 1002.18 1236.29C1000.76 1246.14 998.82 1255.94 996.613 1265.64C996.071 1268.02 993.572 1269.96 991.692 1272.48C968.12 1262.65 945.105 1253.11 922.138 1243.46C896.153 1232.55 870.055 1221.88 844.287 1210.47C798.981 1190.41 753.767 1170.13 708.747 1149.44C671.975 1132.54 635.432 1115.13 598.999 1097.51C575.11 1085.96 551.597 1073.62 527.927 1061.62C526.506 1060.9 525.154 1060.03 523.814 1059.17C516.22 1054.25 515.726 1053.1 519.96 1044.89C532.826 1019.93 545.086 994.607 559.061 970.278C575.24 942.11 592.924 914.803 610.132 887.232C612.57 883.325 616.008 880.041 619.513 875.833C647.566 897.055 674.726 917.602 702.506 938.726Z" fill="#F8F5EE"/>
<path d="M1606.67 527.157C1603.84 560.126 1601.34 591.997 1598.26 623.811C1595.79 649.239 1592.57 674.593 1589.76 699.987C1587.64 719.042 1585.98 738.155 1583.48 757.158C1581.19 774.514 1577.94 791.739 1575.32 809.054C1573.3 822.46 1571.56 835.91 1569.77 849.349C1567.83 863.974 1565.99 878.613 1564.02 893.235C1563.87 894.352 1563.1 895.386 1562.36 897.035C1560.16 896.851 1557.69 897.175 1555.65 896.39C1533.39 887.834 1511.21 879.048 1488.96 870.46C1482.74 868.058 1476.51 868.029 1470.45 871.452C1466.64 873.603 1462.78 875.835 1458.68 877.24C1454.76 878.58 1450.49 878.896 1446.28 879.681C1444.47 864.493 1442.6 850.726 1441.23 836.908C1439.03 814.634 1437.4 792.302 1435.08 770.042C1432.63 746.598 1429.63 723.213 1426.9 699.798C1425.2 685.108 1423.55 670.411 1421.9 655.715C1419.71 636.254 1417.84 616.753 1415.28 597.341C1413.15 581.147 1410.19 565.063 1407.66 548.92C1405.63 535.925 1403.58 522.931 1401.75 509.907C1399.63 494.891 1397.85 479.83 1395.75 464.812C1394.37 454.946 1392.62 445.131 1391.2 435.271C1390.86 432.971 1391.15 430.583 1391.15 426.829C1400.67 425.538 1409.6 423.695 1418.61 423.242C1435.79 422.377 1453.02 422.48 1470.22 421.846C1483.35 421.363 1496.47 419.629 1509.58 419.78C1525.52 419.964 1541.46 421.393 1557.38 422.558C1573.69 423.751 1589.98 425.249 1606.26 426.702C1607.81 426.84 1609.29 427.611 1612.38 428.586C1610.51 460.936 1608.63 493.486 1606.67 527.157Z" fill="#F8F5EE"/>
<path d="M1812.12 1040.41C1792.36 1026.55 1772.58 1012.72 1752.85 998.803C1748.02 995.396 1743.37 991.725 1738.66 988.186C1751.84 961.383 1764.89 935.225 1777.61 908.91C1797.98 866.79 1818.8 824.873 1838.19 782.303C1859.54 735.428 1880.12 688.175 1899.83 640.589C1914.41 605.41 1926.71 569.295 1940.71 533.87C1948.47 514.235 1945.75 516.034 1963.78 525.229C1999.77 543.578 2034.9 563.643 2069.97 583.727C2085.75 592.766 2100.58 603.486 2115.73 613.594C2118.95 615.739 2121.73 618.543 2125.82 621.977C2120.57 630.152 2115.99 637.947 2110.78 645.289C2066.73 707.354 2022.65 769.404 1978.36 831.308C1962.73 853.162 1946.51 874.596 1929.54 897.254C1917.83 912.031 1906.98 925.654 1896.53 939.586C1892.82 944.545 1890.1 950.252 1886.93 955.618C1886.93 955.618 1887.01 955.693 1886.2 955.878C1878.65 964.364 1871.49 972.369 1865.26 981.038C1856.03 993.866 1847.47 1007.17 1838.62 1020.26C1838.62 1020.26 1838.91 1020.4 1838.02 1020.66C1833.53 1025.12 1829.82 1029.22 1826.39 1033.56C1822.7 1038.23 1818.44 1041.38 1812.12 1040.41Z" fill="#F8F5EE"/>
<path d="M1204.03 2133.24C1181.46 2169.82 1162.06 2207.05 1146.18 2246.06C1127.36 2292.29 1108.26 2338.42 1090.35 2385.01C1080.66 2410.2 1073.21 2436.26 1064.75 2461.93C1063.14 2466.83 1061.41 2471.69 1059.93 2476.62C1057.54 2484.63 1055.96 2485.49 1048.16 2481.59C1029.37 2472.21 1010.22 2463.44 992.036 2452.98C957.692 2433.24 923.882 2412.57 889.976 2392.08C885.657 2389.47 882.095 2385.6 877.49 2381.74C896.073 2359.71 914.508 2338.04 932.735 2316.2C956.883 2287.26 982.395 2259.3 1004.55 2228.91C1034.42 2187.92 1061.61 2144.97 1090.05 2102.93C1118.93 2060.24 1147.92 2017.62 1176.91 1975.01C1183.37 1965.51 1189.91 1956.05 1196.62 1946.72C1201.4 1940.07 1203.14 1939.77 1210.31 1943.8C1231.37 1955.63 1252.42 1967.47 1273.42 1979.42C1282.01 1984.31 1281.85 1984.94 1278.25 1994.37C1261.24 2039.05 1236.31 2079.52 1211.57 2120.1C1209.1 2124.16 1206.79 2128.33 1204.03 2133.24Z" fill="#F8F5ED"/>
<path d="M1508.02 2104.37C1521.97 2111.25 1535.09 2117.78 1548.18 2124.37C1552.67 2126.62 1555.86 2129.74 1556.27 2135.25C1556.69 2140.83 1558 2146.33 1558.43 2151.91C1560.65 2180.6 1562.33 2209.35 1564.94 2238.01C1567.03 2261.04 1570.17 2283.98 1572.84 2306.96C1573.07 2308.95 1573.19 2310.96 1573.42 2312.94C1576.5 2338.69 1579.66 2364.43 1582.64 2390.19C1584.8 2408.84 1586.51 2427.55 1588.81 2446.19C1591.12 2464.8 1594.11 2483.31 1596.43 2501.92C1599.06 2522.94 1601.34 2544.01 1603.58 2565.08C1603.9 2568.11 1603.17 2571.25 1602.91 2574.55C1535.86 2581.74 1469.64 2582.34 1402.81 2575.01C1402.35 2573.84 1401.26 2572.41 1401.34 2571.04C1402.34 2553.11 1403.58 2535.2 1404.61 2517.27C1405.51 2501.69 1405.77 2486.07 1407.12 2470.53C1409.29 2445.47 1412.13 2420.48 1414.68 2395.45C1414.88 2393.46 1415 2391.46 1415.09 2389.46C1416.53 2357.42 1421.07 2325.85 1428.89 2294.71C1431.41 2284.67 1432.86 2274.33 1434.28 2264.05C1438.12 2236.36 1441.93 2208.65 1445.28 2180.9C1448.82 2151.59 1451.75 2122.2 1455.19 2092.87C1455.66 2088.82 1457.56 2084.92 1459.06 2080.14C1476.05 2088.58 1491.62 2096.31 1508.02 2104.37Z" fill="#F8F5EE"/>
<path d="M834.759 1811.97C834.759 1811.97 835.924 1811.7 837.459 1811.77C840.94 1811.42 843.045 1811.34 844.807 1810.52C863.641 1801.74 882.46 1792.93 901.168 1783.89C903.434 1782.8 905.027 1780.31 906.932 1778.47C907.324 1778.36 907.717 1778.26 909.506 1778.21C912.78 1776.72 914.657 1775.18 916.533 1773.64C916.925 1773.54 917.316 1773.44 919.097 1773.37C922.386 1771.91 924.286 1770.43 926.186 1768.94C927.142 1768.75 928.098 1768.56 930.692 1768.32C933.873 1767.9 935.536 1767.81 936.939 1767.16C957.819 1757.45 978.68 1747.71 999.485 1737.85C1000.78 1737.24 1001.57 1735.57 1002.59 1734.4C1002.59 1734.4 1002.57 1734.38 1003.34 1734.47C1005.38 1733.21 1006.65 1731.86 1007.92 1730.52C1008.87 1730.33 1009.82 1730.14 1012.11 1730.4C1015.48 1735.97 1018.28 1740.94 1019.35 1746.26C1020.75 1753.21 1023.58 1758.86 1028.55 1763.9C1039.73 1775.26 1050.61 1786.91 1061.6 1798.46C1063.8 1800.77 1066.21 1802.95 1068.02 1805.55C1071.73 1810.87 1070.37 1813.79 1064.17 1816.02C1061.09 1817.12 1058.34 1819.15 1055.44 1820.76C1054.49 1820.95 1053.53 1821.13 1050.9 1821.19C1047.27 1821.32 1045.18 1821.2 1043.4 1821.88C1022.72 1829.82 1003.56 1840.66 985.329 1853.13C980.98 1856.11 977.392 1860.2 973.454 1863.77C973.454 1863.77 972.594 1864.26 971.235 1864.25C968.398 1864.81 966.72 1865.08 965.473 1865.96C932.456 1889.29 899.434 1912.61 866.581 1936.17C863.237 1938.56 860.965 1942.46 858.195 1945.66C858.195 1945.66 858.337 1945.86 857.388 1945.75C840.697 1957.37 824.762 1968.85 809.306 1980.95C802.657 1986.15 797.004 1992.63 790.898 1998.53C790.898 1998.53 791.047 1998.73 790.092 1998.63C786.052 2000.29 782.658 2001.66 779.932 2003.87C761.04 2019.15 742.156 2034.45 723.518 2050.04C694.163 2074.6 665.056 2099.45 635.723 2124.03C627.984 2130.52 624.261 2130.19 619.166 2122.48C608.873 2106.9 599.266 2090.87 588.78 2075.43C583.117 2067.09 579.985 2056.7 570.396 2051.32C570.396 2051.32 569.944 2050.41 569.986 2049.01C560.74 2029.87 551.527 2012.08 542.068 1994.42C540.902 1992.24 538.426 1990.76 536.557 1988.96C536.557 1988.96 536.157 1988.04 536.211 1986.64C534.336 1980.92 532.515 1976.54 530.458 1972.27C525.479 1961.95 525.486 1961.17 535.95 1956.22C557.591 1945.99 579.416 1936.15 601.101 1926.01C627.109 1913.85 653.065 1901.58 679.018 1889.3C720.836 1869.52 762.666 1849.76 804.386 1829.77C808.472 1827.81 811.827 1824.33 815.522 1821.56C815.522 1821.56 816.653 1821.27 818.035 1821.35C821.331 1819.89 823.245 1818.34 825.16 1816.8C825.16 1816.8 826.284 1816.49 827.658 1816.54C830.94 1815.06 832.849 1813.51 834.759 1811.97Z" fill="#F8F5EE"/>
<path d="M1055.76 859.327C1055.76 859.327 1055.31 858.443 1055.31 857.086C1050.37 848.121 1045.74 840.283 1040.41 832.956C1029.69 818.23 1018.6 803.78 1007.66 789.223C994.556 771.799 981.549 754.301 968.239 737.038C965.959 734.08 962.365 732.135 959.378 729.721C959.378 729.721 959.313 729.778 959.403 728.875C952.024 717.406 944.807 706.645 936.954 696.371C933.98 692.481 929.538 689.712 925.766 686.432C925.766 686.432 925.667 686.516 925.711 685.684C924.296 683.684 922.837 682.517 921.378 681.35C921.378 681.35 920.859 680.497 920.838 679.145C913.195 667.658 905.769 657.365 897.845 647.471C894.993 643.91 890.945 641.307 887.442 638.267C887.442 638.267 887.221 638.41 887.372 637.464C884.541 631.566 881.559 626.614 877.963 620.643C882.421 617.353 886.817 614.235 891.073 610.939C897.813 605.718 904.461 600.377 911.148 595.087C911.148 595.087 911.246 595.19 912.065 595.13C935.189 582.228 957.514 569.421 979.754 556.469C981.315 555.56 982.247 553.572 983.471 552.086C983.471 552.086 983.364 551.931 984.223 552.115C987.019 550.743 988.955 549.188 990.892 547.633C990.892 547.633 991.004 547.543 991.956 547.639C1012.73 538.818 1032.56 529.901 1052.65 520.864C1054.91 525.459 1056.59 528.62 1058.05 531.875C1076.1 571.994 1094.07 612.143 1112.13 652.25C1130.36 692.71 1148.56 733.186 1167.05 773.525C1170.81 781.713 1175.83 789.319 1180.27 797.194C1180.27 797.194 1180.42 797.092 1180.24 798.069C1190.82 823.76 1201.4 848.55 1212.43 873.137C1215.27 879.468 1219.53 885.163 1223.13 891.15C1223.13 891.15 1223.38 892.188 1223.42 893.485C1224.9 896.801 1226.33 898.82 1227.77 900.84C1227.77 900.84 1228.03 901.93 1228.09 903.386C1236.85 925.786 1245.54 946.73 1254.65 968.709C1248.05 972.373 1242.07 976.208 1235.69 979.133C1214 989.061 1192.32 998.64 1177.27 1018.67C1172.01 1025.67 1168.42 1024.71 1163.57 1017.18C1157.54 1007.85 1151.99 998.2 1145.84 988.946C1143.53 985.479 1140.13 982.742 1137.23 979.672C1137.23 979.672 1137.16 979.727 1137.28 978.799C1137.03 976.33 1137.05 974.539 1136.24 973.286C1126.33 957.943 1116.39 942.609 1106.18 927.466C1104.56 925.067 1101.52 923.624 1099.14 921.738C1099.14 921.738 1098.66 920.869 1098.66 919.513C1087.06 900.699 1075.55 883.165 1063.71 865.864C1061.85 863.145 1058.45 861.48 1055.76 859.327Z" fill="#F8F5EE"/>
<path d="M479.803 1409.3C493.305 1412.03 505.764 1414.77 518.332 1416.86C547.822 1421.77 577.322 1426.66 606.902 1430.97C624.66 1433.57 642.575 1435.09 660.421 1437.07C683.044 1439.59 705.655 1442.22 728.299 1444.53C738.24 1445.54 748.275 1445.59 758.223 1446.55C814.876 1452 871.682 1451.71 928.494 1451.34C938.005 1451.28 947.517 1451.33 957.59 1451.33C958.018 1454.21 958.915 1456.56 958.604 1458.74C956.324 1474.74 962.753 1489.4 965.6 1504.57C967.131 1512.74 970.103 1520.62 972.299 1528.67C974.649 1537.27 972.344 1540.66 963.346 1541.04C944.155 1541.85 924.916 1541.86 905.76 1543.14C875.487 1545.17 845.266 1547.97 815.024 1550.46C813.83 1550.56 812.65 1550.83 811.456 1550.92C783.985 1553.03 756.478 1554.77 729.054 1557.37C710.787 1559.1 692.641 1562.09 674.435 1564.47C660.574 1566.28 646.691 1567.93 632.839 1569.81C605.115 1573.57 577.339 1577.02 549.712 1581.4C527.297 1584.95 505.044 1589.55 482.763 1593.92C465.997 1597.2 449.307 1600.88 432.561 1604.28C430.678 1604.66 428.651 1604.33 426.433 1604.33C421.542 1589.55 421.459 1574.69 421.4 1560.03C421.217 1514.82 421.682 1469.6 422.011 1424.38C422.046 1419.6 422.621 1414.79 423.339 1410.05C424.692 1401.13 426.385 1400.09 435.137 1401.61C449.685 1404.13 464.25 1406.55 479.803 1409.3Z" fill="#F8F5ED"/>
<path d="M1834.39 2219.82C1834.21 2218.85 1834.02 2217.87 1833.82 2215.25C1826.55 2195.15 1819.59 2176.59 1811.88 2158.33C1808.91 2151.28 1807.63 2143.04 1800.66 2138.12C1800.48 2137.15 1800.31 2136.18 1800.05 2133.71C1798.65 2130.88 1797.33 2129.54 1796.02 2128.2C1795.84 2127.28 1795.66 2126.36 1795.42 2123.84C1795.28 2121.46 1795.39 2120.58 1795.08 2119.88C1784.73 2096.67 1774.36 2073.46 1763.96 2050.27C1760.27 2042.05 1759.7 2034.54 1766.06 2026.86C1772.13 2019.52 1777.32 2011.39 1782.43 2003.32C1787.26 1995.69 1791.48 1987.68 1795.97 1979.83C1795.97 1979.83 1795.7 1979.57 1796.66 1979.59C1803.91 1971.94 1810.19 1964.28 1817.32 1955.58C1820.25 1960.74 1822.18 1964.56 1824.5 1968.12C1829.13 1975.26 1833.97 1982.27 1838.72 1989.33C1838.72 1989.33 1838.94 1989.15 1838.76 1990.03C1840.15 1992.86 1841.73 1994.8 1843.31 1996.74C1871.92 2047.95 1904.95 2096.25 1938.97 2143.97C1975.78 2195.61 2014.81 2245.5 2054.52 2294.88C2056 2296.73 2057.64 2298.44 2059.65 2301.68C2061.6 2304.3 2063.09 2305.46 2064.58 2306.63C2064.58 2306.63 2064.85 2306.4 2064.71 2307.37C2071.44 2318.4 2077.37 2329.28 2088.58 2335.49C2088.58 2335.49 2088.88 2335.28 2088.7 2336.19C2090.02 2338.25 2091.52 2339.39 2093.02 2340.54C2093.02 2340.54 2093.04 2340.64 2093.05 2341.51C2100.17 2352.21 2106.41 2362.85 2117.43 2369.13C2117.43 2369.13 2117.72 2368.88 2117.57 2369.92C2121.01 2380.89 2121.26 2381.27 2113.24 2386.57C2097.4 2397.04 2081.18 2406.93 2065.29 2417.31C2061.5 2419.78 2058.37 2423.24 2054.94 2426.24C2054.94 2426.24 2054.03 2426.63 2052.68 2426.66C2032.13 2437.03 2012.97 2447.48 1993.68 2457.66C1981.41 2464.13 1969.01 2470.36 1956.54 2476.41C1948.28 2480.42 1948.1 2480.19 1943.77 2472.59C1942.4 2470.18 1941.04 2467.76 1939.83 2465.27C1925.91 2436.81 1911.91 2408.39 1898.15 2379.86C1887.12 2357.02 1876.11 2334.19 1868.23 2309.98C1859.91 2284.4 1851.41 2258.88 1842.56 2233.49C1840.85 2228.58 1837.16 2224.36 1834.39 2219.82Z" fill="#F8F5EE"/>
<path d="M1834.07 2220.46C1837.16 2224.36 1840.85 2228.58 1842.56 2233.49C1851.41 2258.88 1859.91 2284.4 1868.23 2309.98C1876.11 2334.19 1887.12 2357.02 1898.15 2379.86C1911.91 2408.39 1925.91 2436.81 1939.83 2465.27C1941.04 2467.76 1942.4 2470.18 1943.77 2472.59C1948.1 2480.19 1948.28 2480.42 1956.54 2476.41C1969.01 2470.36 1981.41 2464.13 1993.68 2457.66C2012.97 2447.48 2032.13 2437.03 2052.21 2426.81C2046.22 2432.16 2039.91 2438.44 2032.39 2442.46C2007.76 2455.63 1982.79 2468.16 1957.76 2480.56C1946.17 2486.3 1944.37 2485.14 1938.66 2473.52C1925.45 2446.65 1911.27 2420.23 1898.92 2392.97C1885.28 2362.85 1872.49 2332.29 1860.73 2301.38C1850.7 2275.01 1842.67 2247.89 1834.07 2220.46Z" fill="#FCB969"/>
<path d="M1180.39 796.228C1175.83 789.319 1170.81 781.713 1167.05 773.525C1148.56 733.186 1130.36 692.71 1112.13 652.25C1094.07 612.143 1076.1 571.994 1058.05 531.875C1056.59 528.62 1054.91 525.459 1052.65 520.864C1032.56 529.901 1012.73 538.818 992.022 547.666C994.801 544.734 998.129 541.217 1002.19 539.125C1018.42 530.767 1034.88 522.852 1050.49 515.152C1057.49 518.469 1059.01 523.832 1061.3 528.975C1069.21 546.733 1077.65 564.257 1085.7 581.952C1100.34 614.123 1114.85 646.352 1129.41 678.559C1145.29 713.688 1161.2 748.802 1176.98 783.977C1178.58 787.548 1179.35 791.492 1180.39 796.228Z" fill="#FBC685"/>
<path d="M814.611 1821.43C811.828 1824.33 808.472 1827.81 804.386 1829.77C762.666 1849.76 720.836 1869.52 679.018 1889.3C653.065 1901.58 627.109 1913.85 601.101 1926.01C579.416 1936.15 557.591 1945.99 535.95 1956.22C525.486 1961.17 525.479 1961.95 530.458 1972.27C532.515 1976.54 534.336 1980.92 536.126 1986.14C528.363 1981.67 526.214 1972.77 522.305 1965.12C520.232 1961.05 522.473 1957.6 526.844 1955.57C558.139 1941.01 589.446 1926.48 620.622 1911.67C639.626 1902.64 658.297 1892.91 677.309 1883.91C705.307 1870.64 733.44 1857.66 761.588 1844.71C778.888 1836.75 796.325 1829.09 814.611 1821.43Z" fill="#FBC685"/>
<path d="M570.449 2052.18C579.985 2056.7 583.117 2067.09 588.78 2075.43C599.266 2090.87 608.873 2106.9 619.166 2122.48C624.261 2130.19 627.984 2130.52 635.723 2124.03C665.056 2099.45 694.163 2074.6 723.518 2050.04C742.156 2034.45 761.04 2019.15 779.932 2003.87C782.658 2001.66 786.052 2000.29 789.997 1998.54C784.359 2004.86 778.232 2011.61 771.297 2017.38C738.598 2044.62 705.615 2071.51 672.869 2098.69C660.311 2109.12 648.168 2120.04 635.734 2130.62C628.872 2136.45 624.002 2136.23 618.875 2128.42C602.481 2103.47 586.589 2078.2 570.449 2052.18Z" fill="#FBC685"/>
<path d="M1137.24 980.545C1140.13 982.742 1143.53 985.479 1145.84 988.946C1151.99 998.2 1157.54 1007.85 1163.57 1017.18C1168.42 1024.71 1172.01 1025.67 1177.27 1018.67C1192.32 998.64 1214 989.061 1235.69 979.133C1242.07 976.208 1248.05 972.373 1254.65 968.709C1245.54 946.73 1236.85 925.786 1228.24 903.927C1230.26 905.809 1232.56 908.422 1234.07 911.435C1240.8 924.929 1247.34 938.52 1253.86 952.117C1255.23 954.974 1256.41 957.951 1257.37 960.971C1260.18 969.814 1259 973.103 1250.74 977.177C1242.16 981.404 1233.49 985.518 1224.58 988.949C1207.04 995.698 1192.8 1006.6 1180.94 1021.04C1177.8 1024.86 1173.56 1027.77 1168.92 1031.89C1155.21 1015.8 1147.43 997.827 1137.24 980.545Z" fill="#FBC685"/>
<path d="M1795.21 1980.06C1791.48 1987.68 1787.26 1995.69 1782.43 2003.32C1777.32 2011.39 1772.13 2019.52 1766.06 2026.86C1759.7 2034.54 1760.27 2042.05 1763.96 2050.27C1774.36 2073.46 1784.73 2096.67 1795.08 2119.88C1795.39 2120.58 1795.28 2121.46 1795.25 2123.16C1793.37 2122.07 1791 2120.34 1789.92 2118.02C1778.95 2094.2 1768.15 2070.3 1757.39 2046.38C1754.96 2041 1754.75 2035.38 1758.27 2030.43C1770.22 2013.64 1782.37 1996.99 1795.21 1980.06Z" fill="#FCB969"/>
<path d="M959.429 730.567C962.365 732.135 965.959 734.08 968.239 737.038C981.549 754.301 994.556 771.799 1007.66 789.223C1018.6 803.78 1029.69 818.23 1040.41 832.956C1045.74 840.283 1050.37 848.121 1055.21 856.599C1051 853.247 1046.36 849.418 1042.86 844.737C1015.49 808.103 988.332 771.308 961.132 734.544C960.438 733.606 960.024 732.461 959.429 730.567Z" fill="#FBC685"/>
<path d="M859.052 1945.62C860.965 1942.46 863.237 1938.56 866.581 1936.17C899.434 1912.61 932.456 1889.29 965.473 1865.96C966.72 1865.08 968.398 1864.81 970.754 1864.37C967.463 1868.06 963.52 1871.95 959.087 1875.17C929.464 1896.66 899.752 1918.03 870.019 1939.37C866.813 1941.67 863.287 1943.53 859.052 1945.62Z" fill="#FBC685"/>
<path d="M1056.14 1821.01C1058.34 1819.15 1061.09 1817.12 1064.17 1816.02C1070.37 1813.79 1071.73 1810.87 1068.02 1805.55C1066.21 1802.95 1063.8 1800.77 1061.6 1798.46C1050.61 1786.91 1039.73 1775.26 1028.55 1763.9C1023.58 1758.86 1020.75 1753.21 1019.35 1746.26C1018.28 1740.94 1015.48 1735.97 1012.82 1730.25C1017.93 1725.68 1019.27 1725.92 1020.91 1731.66C1022.65 1737.73 1023.76 1744 1025.85 1749.94C1027.25 1753.9 1029.25 1758.01 1032.07 1761.05C1043.42 1773.26 1055.22 1785.05 1066.78 1797.06C1070.86 1801.29 1074.75 1805.7 1079.02 1810.35C1073.1 1818.71 1065.03 1820.1 1056.14 1821.01Z" fill="#FBC685"/>
<path d="M1223.33 890.205C1219.53 885.163 1215.27 879.468 1212.43 873.137C1201.4 848.55 1190.82 823.761 1180.17 798.135C1181.3 797.831 1182.86 798.192 1183.27 799.08C1196.66 828.314 1209.96 857.596 1223.22 886.888C1223.54 887.58 1223.43 888.465 1223.33 890.205Z" fill="#FBC685"/>
<path d="M2055.82 2426.22C2058.37 2423.24 2061.5 2419.78 2065.29 2417.31C2081.18 2406.93 2097.4 2397.04 2113.24 2386.57C2121.26 2381.27 2121.01 2380.89 2117.44 2370.05C2128.81 2375.77 2129.68 2380.06 2119.95 2386.82C2099.54 2401 2079.85 2416.41 2055.82 2426.22Z" fill="#FCB969"/>
<path d="M974.312 1863.71C977.392 1860.2 980.98 1856.11 985.329 1853.13C1003.56 1840.66 1022.72 1829.82 1043.4 1821.88C1045.18 1821.2 1047.27 1821.32 1050.17 1821.26C1050.1 1822.64 1049.3 1824.24 1048.01 1824.93C1023.76 1837.9 999.461 1850.77 974.312 1863.71Z" fill="#FBC685"/>
<path d="M1800.35 2138.77C1807.63 2143.04 1808.91 2151.28 1811.88 2158.33C1819.59 2176.59 1826.55 2195.15 1833.66 2214.52C1830.59 2210.97 1826.89 2206.81 1824.89 2201.95C1816.33 2181.22 1808.27 2160.28 1800.35 2138.77Z" fill="#FCB969"/>
<path d="M2448.87 984.072C2447.71 984.49 2446.15 984.291 2445.66 983.462C2432.24 960.53 2418.92 937.534 2405.68 913.677C2414.8 916.548 2417.13 925.956 2421.72 933.019C2431.46 947.994 2439.57 964.026 2448.28 979.665C2448.83 980.652 2448.75 981.988 2448.87 984.072Z" fill="#FCB969"/>
<path d="M2396.27 897.415C2393.04 894.956 2389.74 891.744 2386.85 888.192C2383.22 883.715 2379.94 878.96 2376 873.656C2361.91 882.364 2348.95 890.37 2335.12 898.324C2336.81 895.348 2338.93 891.812 2342 889.621C2350.03 883.9 2358.41 878.661 2366.77 873.431C2375.57 867.931 2378.52 867.937 2384.84 876.147C2389.56 882.268 2392.6 889.676 2396.27 897.415Z" fill="#FCB969"/>
<path d="M791.742 1998.45C797.004 1992.63 802.657 1986.15 809.306 1980.95C824.762 1968.85 840.697 1957.37 857.296 1945.66C856.202 1948.12 854.638 1951.05 852.239 1952.9C832.442 1968.17 812.49 1983.24 791.742 1998.45Z" fill="#FBC685"/>
<path d="M982.568 552.012C982.247 553.572 981.315 555.56 979.754 556.469C957.514 569.421 935.189 582.228 912.015 595.079C911.587 593.995 911.706 592.412 912.516 591.879C934.779 577.208 956.813 562.126 982.568 552.012Z" fill="#FBC685"/>
<path d="M1001.63 1734.3C1001.57 1735.57 1000.78 1737.24 999.485 1737.85C978.68 1747.71 957.819 1757.45 936.939 1767.16C935.536 1767.81 933.873 1767.9 931.402 1768.14C934.533 1760.77 942.562 1760.02 949.055 1756.83C963.153 1749.89 977.329 1743.12 991.579 1736.5C994.363 1735.21 997.623 1734.94 1001.63 1734.3Z" fill="#FBC685"/>
<path d="M906.027 1778.34C905.027 1780.31 903.434 1782.8 901.168 1783.89C882.46 1792.93 863.641 1801.74 844.807 1810.52C843.045 1811.34 840.94 1811.42 838.056 1811.73C838.418 1810.14 839.43 1808.04 841.063 1807.28C862.365 1797.48 883.755 1787.87 906.027 1778.34Z" fill="#FBC685"/>
<path d="M1839.4 1020.02C1847.47 1007.17 1856.03 993.866 1865.26 981.038C1871.49 972.369 1878.65 964.364 1886.16 955.839C1883.32 962.013 1880.23 968.775 1876.01 974.733C1866.68 987.887 1856.85 1000.69 1847.04 1013.5C1845.19 1015.92 1842.49 1017.7 1839.4 1020.02Z" fill="#FCB969"/>
<path d="M1838.8 1988.42C1833.97 1982.27 1829.13 1975.26 1824.5 1968.12C1822.18 1964.56 1820.25 1960.74 1817.32 1955.58C1810.19 1964.28 1803.91 1971.94 1796.81 1979.7C1800.95 1971.27 1805.46 1962.43 1811.04 1954.32C1814.6 1949.15 1820.84 1949.78 1823.68 1955.33C1829.1 1965.88 1833.85 1976.76 1838.8 1988.42Z" fill="#FCB969"/>
<path d="M536.532 1989.88C538.426 1990.76 540.902 1992.24 542.068 1994.42C551.527 2012.08 560.74 2029.87 569.899 2048.51C568.22 2048.2 566.056 2047.31 565.213 2045.73C555.528 2027.48 546.044 2009.13 536.532 1989.88Z" fill="#FBC685"/>
<path d="M1099.24 922.588C1101.52 923.624 1104.56 925.067 1106.18 927.466C1116.39 942.609 1126.33 957.943 1136.24 973.286C1137.05 974.539 1137.03 976.33 1137.31 978.768C1134.58 976.749 1131.48 974.128 1129.38 970.867C1119.22 955.152 1109.32 939.265 1099.24 922.588Z" fill="#FBC685"/>
<path d="M1887.72 955.433C1890.1 950.252 1892.82 944.545 1896.53 939.586C1906.98 925.654 1917.83 912.031 1929.29 898.039C1926.62 903.928 1923.81 910.536 1919.62 916.102C1909.6 929.412 1898.93 942.231 1887.72 955.433Z" fill="#FCB969"/>
<path d="M1055.86 860.166C1058.45 861.48 1061.85 863.145 1063.71 865.864C1075.55 883.165 1087.06 900.699 1098.56 919.026C1096.62 918.423 1094.31 917.281 1093.03 915.428C1080.58 897.355 1068.3 879.163 1055.86 860.166Z" fill="#FBC685"/>
<path d="M910.264 595.059C904.461 600.377 897.813 605.718 891.073 610.939C886.817 614.235 882.421 617.353 877.963 620.643C881.559 626.614 884.541 631.566 887.468 637.37C868.966 622.908 868.902 620.816 887.929 607.803C894.784 603.115 902.213 599.264 910.264 595.059Z" fill="#FBC685"/>
<path d="M925.851 687.272C929.538 689.712 933.98 692.481 936.954 696.371C944.807 706.645 952.024 717.406 959.433 728.843C948.227 715.847 937.082 701.979 925.851 687.272Z" fill="#FBC685"/>
<path d="M887.491 639.113C890.945 641.307 894.993 643.91 897.845 647.471C905.769 657.365 913.195 667.658 920.728 678.658C916.451 675.455 911.815 671.749 908.17 667.243C901.002 658.383 894.385 649.079 887.491 639.113Z" fill="#FBC685"/>
<path d="M2117.48 2368.26C2106.41 2362.85 2100.17 2352.21 2093.09 2341.54C2103.22 2347.82 2112.58 2355.59 2117.48 2368.26Z" fill="#FCB969"/>
<path d="M2088.65 2334.62C2077.37 2329.28 2071.44 2318.4 2064.59 2307.49C2074.94 2313.63 2083.74 2321.99 2088.65 2334.62Z" fill="#FCB969"/>
<path d="M1812.36 1041.18C1818.44 1041.38 1822.7 1038.23 1826.39 1033.56C1829.82 1029.22 1833.53 1025.12 1837.87 1020.61C1833.81 1028.14 1829.48 1036.33 1824.03 1043.68C1820.18 1048.87 1815.86 1046.39 1812.36 1041.18Z" fill="#FCB969"/>
<path d="M2405.84 911.882C2402.48 908.52 2399.22 904.289 2396.06 899.21C2401.96 900.627 2404.71 905.23 2405.84 911.882Z" fill="#FCB969"/>
<path d="M2453.97 993.618C2452.12 991.91 2450.36 989.367 2448.72 985.989C2450.58 987.697 2452.32 990.24 2453.97 993.618Z" fill="#FCB969"/>
<path d="M925.412 1768.79C924.286 1770.43 922.386 1771.91 919.7 1773.31C920.821 1771.69 922.73 1770.17 925.412 1768.79Z" fill="#FBC685"/>
<path d="M1227.98 900.03C1226.33 898.82 1224.9 896.801 1223.57 893.998C1225.18 895.216 1226.69 897.219 1227.98 900.03Z" fill="#FBC685"/>
<path d="M1843.48 1995.93C1841.73 1994.8 1840.15 1992.86 1838.65 1990.13C1840.37 1991.27 1842.01 1993.19 1843.48 1995.93Z" fill="#FCB969"/>
<path d="M915.758 1773.54C914.657 1775.18 912.78 1776.72 910.111 1778.15C911.206 1776.51 913.095 1774.98 915.758 1773.54Z" fill="#FBC685"/>
<path d="M833.976 1811.87C832.849 1813.51 830.94 1815.05 828.238 1816.48C829.361 1814.84 831.277 1813.31 833.976 1811.87Z" fill="#FBC685"/>
<path d="M824.38 1816.71C823.245 1818.34 821.331 1819.89 818.615 1821.3C819.743 1819.65 821.671 1818.14 824.38 1816.71Z" fill="#FBC685"/>
<path d="M990.102 547.473C988.955 549.188 987.019 550.743 984.292 552.186C985.438 550.486 987.375 548.9 990.102 547.473Z" fill="#FBC685"/>
<path d="M1795.98 2128.95C1797.33 2129.54 1798.65 2130.88 1799.88 2132.99C1798.51 2132.41 1797.22 2131.06 1795.98 2128.95Z" fill="#FCB969"/>
<path d="M1007.18 1730.47C1006.65 1731.86 1005.38 1733.21 1003.35 1734.48C1003.88 1733.07 1005.16 1731.75 1007.18 1730.47Z" fill="#FBC685"/>
<path d="M2064.54 2305.86C2063.09 2305.46 2061.6 2304.3 2060.06 2302.37C2061.5 2302.76 2063 2303.93 2064.54 2305.86Z" fill="#FCB969"/>
<path d="M2092.97 2339.79C2091.52 2339.39 2090.02 2338.25 2088.56 2336.31C2090.04 2336.69 2091.48 2337.86 2092.97 2339.79Z" fill="#FCB969"/>
<path d="M921.518 682.047C922.837 682.517 924.296 683.684 925.756 685.635C924.39 685.194 923.024 683.969 921.518 682.047Z" fill="#FBC685"/>
<path d="M1216.22 1477.79C1214.2 1460.55 1211.56 1444.31 1211 1428.01C1209.84 1393.61 1209.92 1359.17 1209.14 1324.76C1208.95 1316.59 1211.68 1310.79 1217.36 1304.81C1247.69 1272.87 1277.5 1240.43 1308.4 1207.2C1313.62 1209.86 1318.94 1212.24 1323.92 1215.18C1347.45 1229.06 1370.8 1243.26 1394.42 1256.97C1401.72 1261.21 1404.77 1267.04 1406.03 1275.13C1408.24 1289.28 1412.05 1303.19 1414.09 1317.36C1416.86 1336.64 1422.11 1355.51 1420.65 1375.49C1418.05 1410.97 1417.08 1446.56 1414.98 1482.08C1414.37 1492.35 1416.02 1501.59 1420.32 1511.01C1436.43 1546.37 1451.85 1582.04 1467.81 1617.47C1469.86 1622.01 1473.11 1626.25 1476.6 1629.87C1504.25 1658.52 1532.11 1686.97 1559.87 1715.52C1563.43 1719.19 1566.74 1723.11 1570.89 1727.7C1566.52 1732.99 1562.78 1738.02 1558.55 1742.59C1539.68 1762.95 1520.66 1783.19 1501.7 1803.48C1499.81 1805.51 1498.05 1807.7 1495.99 1809.55C1491.73 1813.38 1487.75 1815.33 1481.04 1813.43C1469.61 1810.2 1457.56 1809.07 1445.72 1807.38C1430.69 1805.24 1415.66 1803.02 1400.56 1801.6C1387.27 1800.34 1376.68 1795.86 1367.84 1784.97C1351.07 1764.31 1332.23 1745.32 1315.73 1724.46C1306.51 1712.8 1299.85 1699.01 1292.76 1685.79C1275.3 1653.28 1257.98 1620.7 1241.25 1587.81C1237.19 1579.84 1235.24 1570.7 1233.04 1561.92C1230.83 1553.07 1229.57 1543.98 1227.79 1535.01C1224.08 1516.26 1220.29 1497.52 1216.22 1477.79ZM1307.94 1629.66C1317.23 1647.17 1326.39 1664.75 1335.88 1682.15C1339.86 1689.44 1343.75 1697 1349.03 1703.31C1362.77 1719.73 1377.46 1735.36 1391.34 1751.66C1397.73 1759.17 1405.22 1762.46 1414.99 1763.51C1431.99 1765.34 1448.91 1768.24 1465.71 1771.51C1472.45 1772.83 1477.44 1771.41 1481.83 1766.73C1490.51 1757.48 1499.15 1748.18 1507.68 1738.79C1510.59 1735.59 1513.15 1732.05 1516.29 1728.15C1513.05 1724.42 1510.38 1721.01 1507.37 1717.94C1485.97 1696.16 1464.43 1674.52 1443.15 1652.64C1439.67 1649.07 1436.45 1644.84 1434.42 1640.32C1415.62 1598.69 1397.06 1556.94 1378.55 1515.17C1374.66 1506.38 1372.49 1497.43 1373.39 1487.38C1375.45 1464.29 1377.11 1441.12 1377.56 1417.95C1378.08 1391.75 1384.78 1365.63 1377.53 1339.24C1373.2 1323.51 1371.36 1307.12 1367.71 1291.18C1366.95 1287.88 1363.64 1284.44 1360.6 1282.52C1349.84 1275.74 1338.63 1269.67 1327.69 1263.18C1316.85 1256.75 1316.72 1256.51 1307.7 1265.95C1292.9 1281.43 1278.91 1297.72 1263.5 1312.55C1253.42 1322.25 1249.27 1333 1249.87 1346.56C1250.74 1366.14 1251.12 1385.75 1251.56 1405.34C1251.87 1419.35 1251.81 1433.37 1252.17 1447.38C1252.3 1452.56 1252.78 1457.8 1253.75 1462.89C1256.05 1475.01 1258.96 1487.01 1261.22 1499.14C1263.49 1511.28 1264.21 1523.82 1267.54 1535.64C1271.2 1548.6 1271.12 1562.44 1278.09 1574.67C1288.13 1592.28 1297.2 1610.44 1307.94 1629.66Z" fill="#FF900D"/>
<path d="M1581.07 1641.3C1576.78 1622.6 1572.91 1604.71 1569.23 1586.78C1565.06 1566.47 1560.93 1546.15 1557.03 1525.78C1554.55 1512.84 1552.58 1499.8 1550.28 1486.82C1548.12 1474.66 1545.35 1462.58 1543.69 1450.35C1541.57 1434.8 1532.92 1422.23 1525.49 1409.28C1511.79 1385.41 1501.08 1360.35 1491.74 1334.53C1485.54 1317.38 1477.94 1300.74 1471.28 1283.75C1469.72 1279.77 1468.49 1275.26 1468.67 1271.06C1469.43 1253.49 1470.77 1235.94 1471.91 1218.38C1472.77 1205.25 1473.65 1192.12 1474.58 1178C1486.76 1175.38 1498.52 1177.54 1510.26 1178.9C1516.2 1179.59 1522.09 1180.72 1528.02 1181.44C1553.39 1184.52 1578.75 1187.57 1604.13 1190.51C1610.09 1191.2 1616.1 1191.67 1622.1 1191.71C1629.17 1191.76 1633.79 1194.82 1637.78 1200.68C1658.12 1230.49 1678.95 1259.97 1699.31 1289.76C1705.75 1299.19 1712.63 1308.68 1716.92 1319.12C1721.86 1331.17 1724.16 1344.31 1727.61 1356.98C1732.2 1373.87 1737.1 1390.69 1741.34 1407.67C1748.95 1438.15 1758.88 1468.16 1757.44 1500.37C1756.9 1512.62 1758.71 1525.1 1760.65 1537.29C1763.39 1554.44 1757.66 1570.51 1755.54 1587.01C1754.07 1598.39 1750.24 1609.45 1748.07 1620.76C1745.67 1633.28 1743.75 1645.91 1742.02 1658.54C1741.04 1665.62 1738.28 1671.54 1732.96 1676.21C1700.16 1704.95 1667.33 1733.66 1634.5 1762.36C1634.24 1762.58 1633.72 1762.52 1631.64 1762.91C1620.56 1744.44 1614.13 1723.3 1605.63 1703.17C1597.13 1683.02 1589.56 1662.48 1581.07 1641.3ZM1634.89 1667.83C1639.22 1677.3 1640.16 1688.47 1649.33 1697.25C1666.73 1681.77 1683.71 1666.91 1700.29 1651.61C1702.59 1649.49 1703.33 1645.28 1704.02 1641.88C1706.31 1630.54 1708.14 1619.11 1710.34 1607.75C1713.13 1593.3 1717.72 1578.98 1718.61 1564.43C1719.86 1544.13 1718.34 1523.67 1718.12 1503.28C1717.8 1473.49 1710.97 1444.94 1702.37 1416.63C1696.13 1396.06 1690.29 1375.34 1685.28 1354.45C1681.24 1337.6 1675.82 1321.67 1664.71 1308.09C1663.22 1306.27 1661.86 1304.33 1660.51 1302.4C1645.96 1281.57 1631.56 1260.64 1616.76 1239.98C1613.66 1235.65 1610.81 1230.56 1604.11 1229.95C1587.39 1228.43 1570.71 1226.51 1554.03 1224.61C1547.3 1223.85 1540.62 1222.62 1533.89 1221.82C1526.89 1220.99 1519.82 1219.05 1512.51 1222.03C1511.13 1236.27 1509.62 1250.12 1508.57 1264.01C1508.34 1267.06 1509.43 1270.35 1510.45 1273.34C1514.07 1283.86 1517.62 1294.42 1521.74 1304.74C1529.37 1323.88 1536.74 1343.16 1545.44 1361.81C1553.49 1379.06 1563.18 1395.53 1572.08 1412.39C1575.56 1418.99 1579.37 1425.25 1580.06 1433.22C1580.84 1442.28 1583.35 1451.19 1585.16 1460.15C1589.34 1480.84 1593.84 1501.46 1597.68 1522.21C1601.82 1544.57 1605.2 1567.06 1609.21 1589.44C1611.03 1599.61 1612.73 1609.94 1615.99 1619.68C1621.27 1635.44 1627.8 1650.78 1634.89 1667.83Z" fill="#FF900D"/>
<path d="M1307.31 1629.01C1297.2 1610.44 1288.13 1592.28 1278.09 1574.67C1271.12 1562.44 1271.2 1548.6 1267.54 1535.64C1264.21 1523.82 1263.49 1511.28 1261.22 1499.14C1258.96 1487.01 1256.05 1475.01 1253.75 1462.89C1252.78 1457.8 1252.3 1452.56 1252.17 1447.38C1251.81 1433.37 1251.87 1419.35 1251.56 1405.34C1251.12 1385.75 1250.74 1366.14 1249.87 1346.56C1249.27 1333 1253.42 1322.25 1263.5 1312.55C1278.91 1297.72 1292.9 1281.43 1307.7 1265.95C1316.72 1256.51 1316.85 1256.75 1327.69 1263.18C1338.63 1269.67 1349.84 1275.74 1360.6 1282.52C1363.64 1284.44 1366.95 1287.88 1367.71 1291.18C1371.36 1307.12 1373.2 1323.51 1377.53 1339.24C1384.78 1365.63 1378.08 1391.75 1377.56 1417.95C1377.11 1441.12 1375.45 1464.29 1373.39 1487.38C1372.49 1497.43 1374.66 1506.38 1378.55 1515.17C1397.06 1556.94 1415.62 1598.69 1434.42 1640.32C1436.45 1644.84 1439.67 1649.07 1443.15 1652.64C1464.43 1674.52 1485.97 1696.16 1507.37 1717.94C1510.38 1721.01 1513.05 1724.42 1516.29 1728.15C1513.15 1732.05 1510.59 1735.59 1507.68 1738.79C1499.15 1748.18 1490.51 1757.48 1481.83 1766.73C1477.44 1771.41 1472.45 1772.83 1465.71 1771.51C1448.91 1768.24 1431.99 1765.34 1414.99 1763.51C1405.22 1762.46 1397.73 1759.17 1391.34 1751.66C1377.46 1735.36 1362.77 1719.73 1349.03 1703.31C1343.75 1697 1339.86 1689.44 1335.88 1682.15C1326.39 1664.75 1317.23 1647.17 1307.31 1629.01Z" fill="#F8F5ED"/>
<path d="M1634.35 1667.06C1627.8 1650.78 1621.27 1635.44 1615.99 1619.68C1612.73 1609.94 1611.03 1599.61 1609.21 1589.44C1605.2 1567.06 1601.82 1544.57 1597.68 1522.21C1593.84 1501.46 1589.34 1480.84 1585.16 1460.15C1583.35 1451.19 1580.84 1442.28 1580.06 1433.22C1579.37 1425.25 1575.56 1418.99 1572.08 1412.39C1563.18 1395.53 1553.49 1379.06 1545.44 1361.81C1536.74 1343.16 1529.37 1323.88 1521.74 1304.74C1517.62 1294.42 1514.07 1283.86 1510.45 1273.34C1509.43 1270.35 1508.34 1267.06 1508.57 1264.01C1509.62 1250.12 1511.13 1236.27 1512.51 1222.03C1519.82 1219.05 1526.89 1220.99 1533.89 1221.82C1540.62 1222.62 1547.3 1223.85 1554.03 1224.61C1570.71 1226.51 1587.39 1228.43 1604.11 1229.95C1610.81 1230.56 1613.66 1235.65 1616.76 1239.98C1631.56 1260.64 1645.96 1281.57 1660.51 1302.4C1661.86 1304.33 1663.22 1306.27 1664.71 1308.09C1675.82 1321.67 1681.24 1337.6 1685.28 1354.45C1690.29 1375.34 1696.13 1396.06 1702.37 1416.63C1710.97 1444.94 1717.8 1473.49 1718.12 1503.28C1718.34 1523.67 1719.86 1544.13 1718.61 1564.43C1717.72 1578.98 1713.13 1593.3 1710.34 1607.75C1708.14 1619.11 1706.31 1630.54 1704.02 1641.88C1703.33 1645.28 1702.59 1649.49 1700.29 1651.61C1683.71 1666.91 1666.73 1681.77 1649.33 1697.25C1640.16 1688.47 1639.22 1677.3 1634.35 1667.06Z" fill="#F8F5ED"/>
</svg>
