<svg width="3000" height="3000" viewBox="0 0 3000 3000" fill="none" xmlns="http://www.w3.org/2000/svg">
<path d="M0 1500C0 671.573 671.573 0 1500 0V0C2328.43 0 3000 671.573 3000 1500V2812.5C3000 2916.05 2916.05 3000 2812.5 3000H1500C671.573 3000 0 2328.43 0 1500V1500Z" fill="#FF8A01"/>
<path d="M1828.04 1069.62C1877.18 1134.99 1925.85 1199.39 1974.46 1263.83C1979.53 1270.55 1982.59 1277.65 1982.83 1286.71C1983.83 1323.68 1985.96 1360.62 1987.35 1397.59C1988.38 1424.73 1988.72 1451.89 1989.68 1479.03C1991.6 1533.3 1993.45 1587.57 1995.97 1641.82C1996.57 1654.68 1994.08 1665.82 1987.32 1676.75C1948.24 1739.93 1909.42 1803.26 1870.62 1866.61C1842.04 1913.26 1813.36 1959.86 1785.37 2006.86C1778.94 2017.66 1774.23 2029.73 1770.33 2041.73C1760.2 2072.9 1750.79 2104.3 1741.43 2135.72C1734.69 2158.32 1728.51 2181.09 1722.04 2203.77C1721.53 2205.57 1720.66 2207.27 1719.49 2210.18C1708.36 2205 1701.41 2196.01 1693.8 2188.06C1682.59 2176.35 1671.91 2164.13 1660.98 2152.15C1648.96 2138.98 1634.62 2129.63 1617.99 2122.74C1565.09 2100.84 1512.19 2078.88 1459.99 2055.4C1412.33 2033.96 1365.56 2010.52 1318.41 1987.95C1300.27 1979.26 1282.62 1969.28 1263.89 1962.13C1234.78 1951.02 1211.73 1932.02 1189.33 1911.29C1144.85 1870.12 1099.71 1829.67 1055 1788.76C1044.64 1779.28 1034.99 1769.88 1031.55 1754.64C1026.17 1730.74 1018.11 1707.45 1011.12 1683.92C1004.43 1661.4 997.669 1638.91 990.913 1616.42C985.972 1599.96 980.82 1583.57 976.057 1567.06C968.849 1542.09 961.802 1517.07 954.93 1492C953.794 1487.85 953.038 1483.26 953.568 1479.06C956.769 1453.69 960.357 1428.37 963.888 1403.04C968.923 1366.93 974.075 1330.83 979.069 1294.71C981.703 1275.66 984.615 1256.63 986.391 1237.49C987.212 1228.64 990.304 1221.58 995.74 1214.87C1046.93 1151.78 1098.36 1088.88 1148.87 1025.24C1161.57 1009.24 1177.62 999.083 1194.9 989.731C1240.45 965.086 1285.95 940.352 1331.43 915.58C1364.06 897.806 1396.49 879.666 1429.35 862.331C1434.48 859.626 1442.07 858.199 1447.4 859.832C1479.22 869.573 1510.65 880.564 1542.33 890.779C1565.68 898.309 1589.32 904.957 1612.6 912.686C1622.24 915.888 1631.78 920.049 1640.52 925.208C1683.88 950.796 1726.93 976.925 1770.17 1002.71C1779.63 1008.36 1787.02 1015.78 1793.5 1024.67C1804.43 1039.64 1816.15 1054.03 1828.04 1069.62ZM1150.35 1473.81C1154.98 1496.94 1159.65 1520.05 1164.23 1543.19C1166.43 1554.25 1167.98 1565.46 1170.71 1576.38C1173.42 1587.21 1175.83 1598.49 1180.83 1608.32C1201.47 1648.88 1222.83 1689.08 1244.37 1729.17C1253.12 1745.48 1261.33 1762.49 1272.7 1776.87C1293.05 1802.6 1316.29 1826.03 1336.98 1851.51C1347.88 1864.94 1360.94 1870.47 1377.34 1872.02C1395.97 1873.78 1414.51 1876.51 1433.05 1879.15C1447.65 1881.23 1462.51 1882.63 1476.61 1886.62C1484.89 1888.96 1489.8 1886.55 1495.05 1881.82C1497.6 1879.54 1499.76 1876.84 1502.1 1874.34C1525.49 1849.32 1548.94 1824.35 1572.22 1799.23C1577.44 1793.59 1582.06 1787.4 1587.44 1780.87C1582.33 1775.2 1578.24 1770.37 1573.85 1765.85C1539.61 1730.63 1505.24 1695.53 1471.13 1660.19C1466.83 1655.73 1462.82 1650.5 1460.3 1644.9C1440.61 1601.2 1421.59 1557.2 1401.71 1513.58C1396.41 1501.96 1394.38 1490.56 1395.13 1477.89C1397.72 1434.08 1398.91 1390.18 1402.12 1346.42C1403.92 1321.77 1397.45 1298.49 1394.03 1274.71C1391.51 1257.24 1386.81 1240.08 1384.09 1222.63C1382.53 1212.65 1378.77 1205.45 1369.77 1200.23C1340.63 1183.31 1311.84 1165.8 1282.81 1148.68C1276.66 1145.05 1270.1 1142.12 1263.66 1138.83C1225.55 1179.83 1188.78 1219.83 1151.37 1259.23C1144.36 1266.6 1140.99 1273.77 1141.22 1283.84C1142.19 1326.29 1142.09 1368.77 1143.52 1411.2C1144.21 1431.31 1147.47 1451.34 1150.35 1473.81ZM1600.63 1675.29C1610.47 1700.42 1619.81 1725.76 1630.3 1750.61C1640.78 1775.44 1648.71 1801.52 1662.37 1824.3C1664.95 1823.82 1665.58 1823.9 1665.9 1823.62C1706.4 1788.22 1746.9 1752.81 1787.35 1717.35C1793.92 1711.6 1797.32 1704.29 1798.53 1695.56C1800.67 1679.97 1803.03 1664.4 1805.99 1648.96C1808.67 1635 1813.39 1621.36 1815.2 1607.32C1817.83 1586.98 1824.89 1567.15 1821.52 1545.99C1819.12 1530.97 1816.88 1515.56 1817.56 1500.46C1819.32 1460.73 1807.08 1423.71 1797.69 1386.11C1792.46 1365.17 1786.42 1344.42 1780.75 1323.58C1776.5 1307.96 1773.67 1291.75 1767.57 1276.88C1762.28 1264 1753.8 1252.3 1745.85 1240.67C1720.73 1203.92 1695.04 1167.56 1669.96 1130.79C1665.03 1123.56 1659.33 1119.79 1650.61 1119.73C1643.22 1119.68 1635.8 1119.09 1628.45 1118.24C1597.14 1114.62 1565.85 1110.85 1534.57 1107.06C1527.24 1106.17 1519.98 1104.78 1512.65 1103.93C1498.18 1102.24 1483.67 1099.58 1468.64 1102.82C1467.49 1120.23 1466.41 1136.43 1465.35 1152.62C1463.94 1174.28 1462.29 1195.93 1461.36 1217.6C1461.13 1222.78 1462.65 1228.34 1464.57 1233.26C1472.79 1254.21 1482.16 1274.74 1489.81 1295.89C1501.33 1327.74 1514.55 1358.65 1531.44 1388.1C1540.61 1404.08 1551.28 1419.58 1553.89 1438.75C1555.94 1453.84 1559.35 1468.74 1562.02 1483.75C1564.86 1499.75 1567.29 1515.84 1570.35 1531.8C1575.16 1556.92 1580.25 1581.99 1585.39 1607.05C1589.93 1629.16 1594.71 1651.22 1600.63 1675.29Z" fill="#F8F5EE"/>
<path d="M2676.62 876.41C2685.15 893.957 2693.75 911.472 2702.2 929.064C2707.57 940.27 2706.93 941.74 2696.71 947.243C2649.38 972.731 2602.17 998.422 2554.79 1023.8C2511.27 1047.11 2467.95 1070.85 2423.84 1092.98C2395.85 1107.02 2366.72 1118.83 2337.82 1130.99C2277.46 1156.39 2216.89 1181.31 2156.45 1206.54C2137.47 1214.47 2118.7 1222.9 2099.75 1230.9C2091.65 1234.32 2088.12 1233.17 2082.73 1225.25C2062.38 1195.31 2042.09 1165.32 2021.97 1135.23C2016.09 1126.43 2017.02 1123.9 2027.29 1118.61C2106.14 1077.96 2179.65 1028.77 2251.79 977.483C2297.66 944.875 2342.19 910.472 2383.04 871.647C2425.75 831.064 2472.91 796.306 2521.61 763.456C2523.64 762.083 2525.49 760.432 2529.31 758.404C2547.17 748.023 2563.16 738.148 2580.55 727.407C2585.4 733.949 2589.45 739.815 2593.93 745.337C2597.49 749.719 2601.56 753.681 2605.4 757.829C2605.4 757.829 2605.82 757.627 2605.49 758.8C2609.18 765.193 2613.21 770.411 2617.24 775.63C2617.24 775.63 2617.64 775.46 2617.34 776.654C2633.49 806.201 2649.91 834.566 2666.47 862.853C2667.07 863.876 2669 864.12 2670.31 864.727C2670.31 864.727 2670.31 864.851 2670.2 865.925C2672.26 870.136 2674.44 873.273 2676.62 876.41Z" fill="#F8F5EE"/>
<path d="M2439.72 1404.25C2474.47 1400.97 2507.82 1397.74 2541.17 1394.52C2545.1 1394.14 2549.01 1393.58 2552.95 1393.33C2593.29 1390.75 2633.64 1388.37 2673.97 1385.63C2718.23 1382.63 2762.47 1379.3 2806.72 1376.1C2807.7 1376.03 2808.68 1375.82 2809.66 1375.76C2822.35 1374.98 2824.42 1376.56 2825.28 1389.09C2827.14 1416.08 2829.76 1443.08 2830.25 1470.1C2830.87 1505.12 2830.28 1540.2 2829.1 1575.21C2828.5 1592.76 2825.44 1610.23 2823.44 1628.18C2819.95 1628.41 2816.97 1629.18 2814.22 1628.7C2798.25 1625.87 2782.33 1622.74 2766.39 1619.73C2753.38 1617.28 2740.43 1614.48 2727.34 1612.52C2709.34 1609.83 2691.23 1607.92 2673.19 1605.43C2650.25 1602.27 2627.35 1598.8 2604.42 1595.61C2586.86 1593.17 2569.3 1590.65 2551.68 1588.72C2526.2 1585.92 2500.63 1583.86 2475.15 1581.06C2447.78 1578.05 2420.47 1574.56 2393.13 1571.29C2391.66 1571.12 2390.19 1570.98 2388.71 1570.87C2356.8 1568.44 2324.88 1566.19 2292.98 1563.54C2253.71 1560.29 2214.48 1556.47 2175.19 1553.38C2159.95 1552.18 2144.61 1552.36 2129.32 1551.75C2124.9 1551.58 2119.98 1551.91 2116.27 1550.06C2112.88 1548.37 2108.55 1544.03 2108.54 1540.84C2108.38 1513.22 2108.97 1485.6 2109.73 1457.98C2109.83 1454.24 2112.09 1450.57 2113.74 1445.69C2126.23 1443.67 2138.78 1441.58 2151.35 1439.62C2172.25 1436.36 2193.17 1433.18 2214.08 1429.96C2216.52 1429.58 2218.94 1429.09 2221.39 1428.82C2262.96 1424.22 2304.55 1419.71 2346.11 1415.04C2376.86 1411.57 2407.58 1407.89 2439.72 1404.25Z" fill="#F8F5EE"/>
<path d="M2609.09 2002.77C2643.02 2020.24 2678.45 2032.25 2712.02 2052.62C2697.55 2081.1 2684.16 2108.72 2669.64 2135.73C2647.16 2177.51 2622.24 2217.86 2595.17 2256.85C2594.06 2258.46 2593.38 2260.38 2592.23 2261.96C2585.51 2271.17 2584.2 2271.46 2574.87 2264.39C2546.04 2242.56 2517.5 2220.35 2488.47 2198.79C2424.47 2151.25 2360.63 2103.5 2296.01 2056.81C2213.23 1996.99 2128.51 1940 2041.32 1886.74C2033.97 1882.26 2026.72 1877.63 2018.67 1872.6C2040.16 1841.73 2060.5 1812.54 2080.8 1783.32C2084.7 1777.69 2089.06 1776.48 2095.7 1779.47C2129.6 1794.72 2163.63 1809.7 2197.74 1824.48C2227.75 1837.47 2257.85 1850.25 2288.04 1862.79C2325.08 1878.18 2362.36 1892.97 2399.32 1908.5C2431.77 1922.14 2464.03 1936.23 2496.19 1950.53C2531.08 1966.04 2565.76 1982 2600.49 1997.85C2603.14 1999.06 2605.49 2000.94 2609.09 2002.77Z" fill="#F8F5EE"/>
<path d="M516.294 807.671C556.585 838.752 596.595 868.514 635.519 899.634C690.429 943.536 753.016 975.205 812.165 1012.33C848.991 1035.45 886.682 1057.18 923.917 1079.65C936.827 1087.44 937.319 1091.16 927.436 1102.11C922.494 1107.58 917.992 1113.65 912.29 1118.19C893.991 1132.77 889.068 1153.16 885.945 1174.71C884.185 1186.87 881.796 1198.95 879.074 1210.92C878.406 1213.86 875.323 1216.25 873.004 1219.35C843.928 1207.23 815.539 1195.47 787.209 1183.56C755.158 1170.1 722.965 1156.94 691.18 1142.87C635.296 1118.12 579.524 1093.11 523.992 1067.59C478.635 1046.74 433.558 1025.27 388.619 1003.53C359.152 989.277 330.149 974.067 300.951 959.259C299.199 958.371 297.531 957.304 295.879 956.234C286.512 950.168 285.902 948.75 291.125 938.618C306.994 907.83 322.118 876.6 339.355 846.59C359.312 811.845 381.126 778.161 402.351 744.153C405.359 739.334 409.599 735.283 413.923 730.092C448.526 756.27 482.027 781.614 516.294 807.671Z" fill="#F8F5EE"/>
<path d="M1631.57 300.002C1628.08 340.669 1625.01 379.982 1621.2 419.224C1618.16 450.589 1614.19 481.863 1610.71 513.187C1608.11 536.692 1606.06 560.268 1602.97 583.708C1600.15 605.116 1596.14 626.363 1592.91 647.721C1590.41 664.257 1588.27 680.847 1586.06 697.425C1583.66 715.465 1581.39 733.522 1578.97 751.558C1578.78 752.936 1577.83 754.211 1576.92 756.245C1574.21 756.018 1571.17 756.417 1568.65 755.449C1541.18 744.896 1513.83 734.058 1486.39 723.464C1478.71 720.502 1471.03 720.467 1463.55 724.689C1458.85 727.342 1454.09 730.095 1449.03 731.828C1444.2 733.481 1438.93 733.871 1433.74 734.839C1431.5 716.105 1429.19 699.123 1427.51 682.079C1424.79 654.604 1422.78 627.057 1419.92 599.599C1416.9 570.682 1413.19 541.836 1409.84 512.954C1407.73 494.834 1405.7 476.705 1403.66 458.577C1400.96 434.573 1398.65 410.518 1395.5 386.574C1392.87 366.599 1389.22 346.759 1386.1 326.847C1383.6 310.817 1381.06 294.79 1378.8 278.724C1376.2 260.202 1373.99 241.624 1371.4 223.1C1369.7 210.93 1367.55 198.823 1365.79 186.661C1365.38 183.825 1365.73 180.878 1365.73 176.248C1377.47 174.656 1388.5 172.382 1399.61 171.823C1420.8 170.756 1442.05 170.883 1463.26 170.102C1479.46 169.505 1495.65 167.367 1511.82 167.553C1531.48 167.779 1551.14 169.542 1570.77 170.979C1590.89 172.452 1610.98 174.299 1631.08 176.092C1632.98 176.261 1634.81 177.212 1638.62 178.415C1636.31 218.319 1633.99 258.469 1631.57 300.002Z" fill="#F8F5EE"/>
<path d="M1885 933.094C1860.62 915.997 1836.22 898.936 1811.89 881.776C1805.93 877.573 1800.2 873.045 1794.38 868.68C1810.65 835.618 1826.74 803.352 1842.44 770.893C1867.56 718.938 1893.24 667.233 1917.16 614.724C1943.49 556.903 1968.87 498.617 1993.19 439.92C2011.17 396.527 2026.34 351.979 2043.61 308.282C2053.18 284.063 2049.83 286.282 2072.07 297.624C2116.46 320.258 2159.8 345.008 2203.05 369.781C2222.52 380.93 2240.81 394.153 2259.51 406.622C2263.47 409.268 2266.9 412.727 2271.95 416.963C2265.47 427.046 2259.83 436.661 2253.4 445.717C2199.05 522.274 2144.68 598.813 2090.06 675.17C2070.77 702.128 2050.76 728.567 2029.83 756.515C2015.39 774.742 2002 791.547 1989.12 808.732C1984.54 814.849 1981.19 821.889 1977.27 828.507C1977.27 828.507 1977.37 828.6 1976.37 828.828C1967.06 839.296 1958.23 849.169 1950.54 859.863C1939.17 875.686 1928.6 892.091 1917.69 908.249C1917.69 908.249 1918.05 908.416 1916.94 908.731C1911.41 914.236 1906.83 919.3 1902.61 924.648C1898.05 930.413 1892.8 934.291 1885 933.094Z" fill="#F8F5EE"/>
<path d="M1134.93 2281.1C1107.08 2326.21 1083.16 2372.15 1063.57 2420.26C1040.35 2477.29 1016.79 2534.19 994.695 2591.65C982.746 2622.73 973.559 2654.88 963.125 2686.54C961.136 2692.58 958.999 2698.57 957.179 2704.66C954.223 2714.54 952.281 2715.6 942.652 2710.79C919.478 2699.22 895.856 2688.39 873.429 2675.5C831.066 2651.15 789.361 2625.65 747.538 2600.37C742.21 2597.15 737.816 2592.39 732.137 2587.62C755.058 2560.45 777.798 2533.72 800.281 2506.78C830.067 2471.09 861.536 2436.6 888.864 2399.1C925.715 2348.54 959.242 2295.56 994.325 2243.71C1029.95 2191.05 1065.71 2138.49 1101.47 2085.92C1109.44 2074.2 1117.51 2062.54 1125.78 2051.03C1131.68 2042.82 1133.83 2042.46 1142.67 2047.42C1168.65 2062.01 1194.62 2076.62 1220.51 2091.36C1231.11 2097.39 1230.91 2098.17 1226.48 2109.8C1205.49 2164.92 1174.74 2214.84 1144.23 2264.89C1141.17 2269.9 1138.33 2275.05 1134.93 2281.1Z" fill="#F8F5ED"/>
<path d="M1509.9 2245.49C1527.1 2253.98 1543.28 2262.03 1559.44 2270.16C1564.96 2272.94 1568.9 2276.78 1569.41 2283.58C1569.93 2290.46 1571.55 2297.25 1572.08 2304.12C1574.81 2339.52 1576.89 2374.98 1580.1 2410.33C1582.68 2438.74 1586.56 2467.04 1589.85 2495.39C1590.14 2497.84 1590.28 2500.31 1590.57 2502.76C1594.36 2534.52 1598.26 2566.27 1601.94 2598.04C1604.6 2621.06 1606.71 2644.13 1609.55 2667.12C1612.39 2690.07 1616.09 2712.92 1618.95 2735.86C1622.19 2761.8 1625 2787.78 1627.76 2813.77C1628.16 2817.51 1627.26 2821.39 1626.94 2825.46C1544.23 2834.32 1462.55 2835.06 1380.12 2826.02C1379.55 2824.58 1378.2 2822.81 1378.3 2821.12C1379.53 2799.01 1381.06 2776.91 1382.34 2754.8C1383.44 2735.58 1383.77 2716.31 1385.43 2697.14C1388.11 2666.24 1391.62 2635.4 1394.75 2604.54C1395 2602.08 1395.16 2599.61 1395.27 2597.15C1397.04 2557.62 1402.64 2518.69 1412.28 2480.27C1415.39 2467.89 1417.18 2455.13 1418.94 2442.45C1423.67 2408.29 1428.37 2374.12 1432.5 2339.89C1436.88 2303.73 1440.48 2267.48 1444.72 2231.31C1445.31 2226.3 1447.65 2221.5 1449.5 2215.6C1470.46 2226.01 1489.66 2235.55 1509.9 2245.49Z" fill="#F8F5EE"/>
<path d="M679.427 1884.82C679.427 1884.82 680.865 1884.48 682.759 1884.57C687.053 1884.14 689.649 1884.03 691.821 1883.02C715.054 1872.2 738.267 1861.33 761.344 1850.18C764.139 1848.83 766.103 1845.76 768.453 1843.49C768.937 1843.36 769.421 1843.24 771.629 1843.17C775.667 1841.33 777.982 1839.44 780.296 1837.54C780.779 1837.42 781.262 1837.29 783.458 1837.21C787.516 1835.41 789.859 1833.57 792.203 1831.73C793.382 1831.5 794.561 1831.27 797.761 1830.97C801.685 1830.46 803.735 1830.34 805.466 1829.54C831.222 1817.57 856.954 1805.55 882.617 1793.38C884.208 1792.63 885.184 1790.58 886.446 1789.13C886.446 1789.13 886.426 1789.11 887.376 1789.21C889.892 1787.66 891.456 1786 893.02 1784.34C894.194 1784.11 895.367 1783.88 898.191 1784.2C902.346 1791.07 905.795 1797.2 907.12 1803.76C908.853 1812.33 912.343 1819.31 918.464 1825.52C932.261 1839.53 945.683 1853.9 959.237 1868.15C961.949 1871 964.926 1873.69 967.156 1876.89C971.731 1883.45 970.049 1887.06 962.404 1889.81C958.605 1891.17 955.214 1893.67 951.639 1895.66C950.461 1895.89 949.284 1896.11 946.038 1896.19C941.565 1896.35 938.983 1896.2 936.783 1897.04C911.271 1906.83 887.64 1920.21 865.155 1935.59C859.791 1939.26 855.365 1944.3 850.508 1948.71C850.508 1948.71 849.447 1949.31 847.77 1949.31C844.271 1949.99 842.202 1950.33 840.663 1951.41C799.937 1980.19 759.204 2008.95 718.681 2038.01C714.556 2040.97 711.753 2045.77 708.336 2049.71C708.336 2049.71 708.511 2049.97 707.34 2049.83C686.753 2064.16 667.097 2078.33 648.032 2093.25C639.831 2099.67 632.857 2107.66 625.325 2114.93C625.325 2114.93 625.509 2115.18 624.331 2115.06C619.348 2117.1 615.161 2118.8 611.799 2121.52C588.495 2140.37 565.203 2159.24 542.213 2178.47C506.003 2208.76 470.1 2239.42 433.918 2269.74C424.371 2277.74 419.779 2277.34 413.495 2267.83C400.799 2248.61 388.948 2228.84 376.013 2209.79C369.029 2199.51 365.165 2186.68 353.337 2180.05C353.337 2180.05 352.78 2178.93 352.831 2177.21C341.426 2153.59 330.062 2131.64 318.395 2109.86C316.956 2107.18 313.902 2105.35 311.597 2103.13C311.597 2103.13 311.104 2101.99 311.17 2100.27C308.857 2093.21 306.612 2087.81 304.074 2082.54C297.932 2069.81 297.94 2068.85 310.848 2062.74C337.542 2050.12 364.463 2037.98 391.212 2025.48C423.292 2010.48 455.31 1995.35 487.322 1980.2C538.904 1955.8 590.501 1931.43 641.962 1906.77C647.003 1904.36 651.142 1900.06 655.699 1896.64C655.699 1896.64 657.094 1896.29 658.798 1896.39C662.864 1894.58 665.226 1892.68 667.587 1890.77C667.587 1890.77 668.974 1890.39 670.668 1890.45C674.717 1888.62 677.072 1886.72 679.427 1884.82Z" fill="#F8F5EE"/>
<path d="M952.036 709.733C952.036 709.733 951.477 708.642 951.478 706.968C945.378 695.91 939.67 686.241 933.095 677.204C919.88 659.04 906.197 641.216 892.696 623.26C876.536 601.767 860.493 580.184 844.076 558.89C841.262 555.241 836.829 552.841 833.145 549.864C833.145 549.864 833.064 549.934 833.176 548.821C824.073 534.673 815.172 521.4 805.485 508.727C801.817 503.928 796.338 500.513 791.684 496.467C791.684 496.467 791.562 496.57 791.617 495.544C789.872 493.078 788.072 491.638 786.272 490.198C786.272 490.198 785.632 489.146 785.606 487.478C776.178 473.309 767.018 460.613 757.245 448.409C753.727 444.017 748.733 440.806 744.413 437.056C744.413 437.056 744.139 437.233 744.326 436.065C740.834 428.79 737.156 422.682 732.72 415.316C738.219 411.258 743.641 407.413 748.891 403.346C757.205 396.907 765.405 390.319 773.654 383.794C773.654 383.794 773.774 383.921 774.784 383.846C803.307 367.932 830.846 352.135 858.279 336.158C860.204 335.037 861.353 332.585 862.864 330.752C862.864 330.752 862.731 330.561 863.791 330.787C867.24 329.095 869.629 327.177 872.017 325.259C872.017 325.259 872.155 325.148 873.329 325.266C898.958 314.386 923.413 303.387 948.198 292.239C950.989 297.908 953.056 301.806 954.862 305.822C977.115 355.308 999.283 404.832 1021.57 454.303C1044.05 504.211 1066.5 554.138 1089.31 603.896C1093.94 613.995 1100.14 623.378 1105.61 633.091C1105.61 633.091 1105.8 632.965 1105.58 634.171C1118.62 665.861 1131.67 696.439 1145.28 726.768C1148.78 734.577 1154.04 741.601 1158.49 748.985C1158.49 748.985 1158.79 750.266 1158.84 751.866C1160.66 755.957 1162.44 758.447 1164.21 760.938C1164.21 760.938 1164.52 762.283 1164.61 764.079C1175.4 791.709 1186.12 817.544 1197.37 844.654C1189.22 849.174 1181.85 853.905 1173.97 857.513C1147.22 869.759 1120.48 881.575 1101.92 906.275C1095.43 914.91 1091 913.726 1085.01 904.45C1077.58 892.931 1070.73 881.031 1063.14 869.617C1060.3 865.34 1056.1 861.964 1052.52 858.177C1052.52 858.177 1052.44 858.245 1052.59 857.101C1052.28 854.055 1052.31 851.846 1051.31 850.3C1039.08 831.375 1026.82 812.46 1014.22 793.782C1012.23 790.822 1008.48 789.042 1005.54 786.717C1005.54 786.717 1004.94 785.644 1004.95 783.971C990.635 760.765 976.446 739.137 961.84 717.795C959.545 714.442 955.352 712.388 952.036 709.733Z" fill="#F8F5EE"/>
<path d="M241.59 1388.13C258.246 1391.49 273.614 1394.87 289.116 1397.45C325.493 1403.5 361.881 1409.53 398.368 1414.86C420.272 1418.06 442.369 1419.93 464.383 1422.38C492.288 1425.48 520.179 1428.73 548.11 1431.57C560.371 1432.82 572.75 1432.89 585.021 1434.07C654.902 1440.79 724.972 1440.43 795.05 1439.98C806.781 1439.9 818.514 1439.97 830.939 1439.97C831.467 1443.52 832.573 1446.42 832.19 1449.11C829.378 1468.84 837.308 1486.92 840.82 1505.64C842.708 1515.71 846.374 1525.44 849.083 1535.36C851.981 1545.98 849.139 1550.15 838.04 1550.62C814.367 1551.62 790.636 1551.63 767.008 1553.21C729.666 1555.72 692.388 1559.18 655.084 1562.24C653.612 1562.37 652.156 1562.69 650.683 1562.81C616.798 1565.42 582.869 1567.56 549.041 1570.77C526.509 1572.9 504.126 1576.59 481.669 1579.53C464.571 1581.76 447.446 1583.79 430.36 1586.11C396.163 1590.75 361.902 1595 327.823 1600.4C300.174 1604.78 272.726 1610.46 245.243 1615.85C224.561 1619.9 203.975 1624.44 183.319 1628.63C180.996 1629.1 178.495 1628.69 175.76 1628.69C169.727 1610.47 169.624 1592.13 169.551 1574.05C169.325 1518.28 169.899 1462.5 170.305 1406.72C170.348 1400.82 171.057 1394.89 171.942 1389.05C173.611 1378.04 175.701 1376.76 186.496 1378.64C204.44 1381.75 222.407 1384.74 241.59 1388.13Z" fill="#F8F5ED"/>
<path d="M1912.47 2387.9C1912.24 2386.7 1912.01 2385.49 1911.77 2382.25C1902.8 2357.47 1894.21 2334.57 1884.71 2312.05C1881.04 2303.36 1879.46 2293.19 1870.86 2287.12C1870.65 2285.92 1870.43 2284.72 1870.11 2281.68C1868.38 2278.18 1866.76 2276.53 1865.14 2274.88C1864.92 2273.74 1864.7 2272.61 1864.41 2269.51C1864.23 2266.57 1864.36 2265.48 1863.98 2264.62C1851.22 2235.98 1838.42 2207.36 1825.59 2178.75C1821.05 2168.62 1820.34 2159.35 1828.18 2149.88C1835.67 2140.82 1842.07 2130.8 1848.37 2120.84C1854.33 2111.43 1859.54 2101.55 1865.08 2091.87C1865.08 2091.87 1864.74 2091.54 1865.93 2091.57C1874.87 2082.14 1882.62 2072.68 1891.42 2061.96C1895.03 2068.32 1897.41 2073.03 1900.27 2077.43C1905.98 2086.24 1911.95 2094.88 1917.81 2103.59C1917.81 2103.59 1918.08 2103.36 1917.85 2104.46C1919.57 2107.94 1921.52 2110.34 1923.47 2112.73C1958.76 2175.89 1999.5 2235.48 2041.46 2294.34C2086.87 2358.03 2135.01 2419.57 2184 2480.49C2185.83 2482.76 2187.84 2484.88 2190.33 2488.87C2192.73 2492.1 2194.57 2493.54 2196.41 2494.97C2196.41 2494.97 2196.74 2494.69 2196.57 2495.88C2204.86 2509.49 2212.18 2522.91 2226.01 2530.58C2226.01 2530.58 2226.38 2530.31 2226.16 2531.43C2227.78 2533.97 2229.63 2535.38 2231.48 2536.8C2231.48 2536.8 2231.52 2536.93 2231.52 2538C2240.31 2551.2 2248.01 2564.33 2261.6 2572.07C2261.6 2572.07 2261.95 2571.77 2261.77 2573.04C2266.01 2586.57 2266.32 2587.05 2256.43 2593.59C2236.89 2606.5 2216.89 2618.69 2197.28 2631.49C2192.61 2634.54 2188.75 2638.81 2184.51 2642.52C2184.51 2642.52 2183.39 2642.99 2181.73 2643.03C2156.37 2655.83 2132.75 2668.71 2108.95 2681.27C2093.82 2689.25 2078.52 2696.93 2063.13 2704.4C2052.96 2709.34 2052.73 2709.06 2047.39 2699.68C2045.69 2696.71 2044.03 2693.72 2042.53 2690.65C2025.36 2655.55 2008.09 2620.49 1991.11 2585.3C1977.52 2557.14 1963.93 2528.97 1954.21 2499.11C1943.95 2467.56 1933.46 2436.08 1922.54 2404.75C1920.43 2398.7 1915.89 2393.49 1912.47 2387.9Z" fill="#F8F5EE"/>
<path d="M1912.08 2388.68C1915.89 2393.49 1920.43 2398.7 1922.54 2404.75C1933.46 2436.08 1943.95 2467.56 1954.21 2499.11C1963.93 2528.97 1977.52 2557.14 1991.11 2585.3C2008.09 2620.49 2025.36 2655.55 2042.53 2690.65C2044.03 2693.72 2045.69 2696.71 2047.39 2699.68C2052.73 2709.06 2052.96 2709.34 2063.13 2704.4C2078.52 2696.93 2093.82 2689.25 2108.95 2681.27C2132.75 2668.71 2156.37 2655.83 2181.15 2643.21C2173.76 2649.82 2165.97 2657.56 2156.7 2662.52C2126.32 2678.77 2095.52 2694.23 2064.65 2709.52C2050.35 2716.6 2048.13 2715.17 2041.09 2700.83C2024.79 2667.69 2007.3 2635.1 1992.07 2601.48C1975.24 2564.32 1959.46 2526.62 1944.96 2488.5C1932.59 2455.98 1922.68 2422.51 1912.08 2388.68Z" fill="#FCB969"/>
<path d="M1105.76 631.9C1100.14 623.378 1093.94 613.995 1089.31 603.896C1066.5 554.138 1044.05 504.211 1021.57 454.303C999.283 404.832 977.115 355.308 954.862 305.822C953.056 301.806 950.989 297.908 948.198 292.239C923.413 303.387 898.958 314.386 873.411 325.299C876.84 321.684 880.944 317.344 885.954 314.764C905.974 304.455 926.275 294.692 945.526 285.193C954.165 289.286 956.045 295.9 958.871 302.245C968.628 324.149 979.028 345.765 988.96 367.592C1007.02 407.275 1024.92 447.029 1042.88 486.756C1062.46 530.087 1082.09 573.4 1101.56 616.788C1103.53 621.193 1104.48 626.058 1105.76 631.9Z" fill="#FBC685"/>
<path d="M654.576 1896.48C651.142 1900.06 647.003 1904.36 641.962 1906.77C590.501 1931.43 538.904 1955.8 487.322 1980.2C455.31 1995.35 423.292 2010.48 391.212 2025.48C364.463 2037.98 337.542 2050.12 310.848 2062.74C297.94 2068.85 297.932 2069.81 304.074 2082.54C306.612 2087.81 308.857 2093.21 311.066 2099.66C301.49 2094.14 298.839 2083.17 294.018 2073.72C291.461 2068.71 294.224 2064.45 299.616 2061.94C338.218 2043.99 376.835 2026.06 415.291 2007.79C438.732 1996.66 461.762 1984.66 485.214 1973.55C519.75 1957.18 554.451 1941.17 589.172 1925.2C610.511 1915.38 632.019 1905.93 654.576 1896.48Z" fill="#FBC685"/>
<path d="M353.403 2181.11C365.165 2186.68 369.029 2199.51 376.013 2209.79C388.948 2228.84 400.799 2248.61 413.495 2267.83C419.779 2277.34 424.371 2277.74 433.918 2269.74C470.1 2239.42 506.003 2208.76 542.213 2178.47C565.203 2159.24 588.495 2140.37 611.799 2121.52C615.161 2118.8 619.348 2117.1 624.214 2114.95C617.259 2122.74 609.702 2131.06 601.148 2138.19C560.814 2171.79 520.129 2204.96 479.738 2238.49C464.246 2251.34 449.269 2264.82 433.931 2277.87C425.468 2285.06 419.46 2284.78 413.136 2275.16C392.913 2244.38 373.311 2213.2 353.403 2181.11Z" fill="#FBC685"/>
<path d="M1052.53 859.254C1056.1 861.964 1060.3 865.34 1063.14 869.617C1070.73 881.031 1077.58 892.931 1085.01 904.45C1091 913.726 1095.43 914.91 1101.92 906.275C1120.48 881.575 1147.22 869.759 1173.97 857.513C1181.85 853.905 1189.22 849.174 1197.37 844.654C1186.12 817.544 1175.4 791.709 1164.79 764.746C1167.27 767.068 1170.12 770.291 1171.97 774.008C1180.28 790.652 1188.35 807.416 1196.39 824.189C1198.08 827.713 1199.53 831.385 1200.72 835.109C1204.18 846.018 1202.73 850.075 1192.54 855.1C1181.96 860.314 1171.26 865.388 1160.27 869.62C1138.64 877.946 1121.07 891.396 1106.44 909.201C1102.57 913.911 1097.34 917.502 1091.62 922.594C1074.71 902.741 1065.11 880.571 1052.53 859.254Z" fill="#FBC685"/>
<path d="M1864.14 2092.15C1859.54 2101.55 1854.33 2111.43 1848.37 2120.84C1842.07 2130.8 1835.67 2140.82 1828.18 2149.88C1820.34 2159.35 1821.05 2168.62 1825.59 2178.75C1838.42 2207.36 1851.22 2235.98 1863.98 2264.62C1864.36 2265.48 1864.23 2266.57 1864.19 2268.67C1861.86 2267.32 1858.94 2265.19 1857.62 2262.32C1844.08 2232.94 1830.76 2203.46 1817.49 2173.96C1814.49 2167.32 1814.23 2160.39 1818.57 2154.29C1833.31 2133.57 1848.3 2113.04 1864.14 2092.15Z" fill="#FCB969"/>
<path d="M833.208 550.907C836.829 552.841 841.262 555.241 844.076 558.89C860.493 580.184 876.536 601.767 892.696 623.26C906.197 641.216 919.88 659.04 933.095 677.204C939.67 686.241 945.378 695.91 951.354 706.368C946.16 702.232 940.439 697.51 936.124 691.736C902.359 646.548 868.859 601.161 835.308 555.814C834.452 554.657 833.942 553.244 833.208 550.907Z" fill="#FBC685"/>
<path d="M709.393 2049.67C711.753 2045.77 714.556 2040.97 718.681 2038.01C759.204 2008.95 799.937 1980.19 840.663 1951.41C842.202 1950.33 844.271 1949.99 847.177 1949.45C843.118 1954 838.254 1958.8 832.786 1962.77C796.246 1989.28 759.597 2015.64 722.921 2041.96C718.967 2044.8 714.617 2047.09 709.393 2049.67Z" fill="#FBC685"/>
<path d="M952.502 1895.97C955.214 1893.67 958.605 1891.17 962.404 1889.81C970.049 1887.06 971.731 1883.45 967.156 1876.89C964.926 1873.69 961.949 1871 959.237 1868.15C945.683 1853.9 932.261 1839.53 918.464 1825.52C912.343 1819.31 908.853 1812.33 907.12 1803.76C905.795 1797.2 902.346 1791.07 899.069 1784.01C905.368 1778.37 907.023 1778.67 909.046 1785.75C911.187 1793.24 912.56 1800.98 915.14 1808.3C916.862 1813.19 919.334 1818.26 922.811 1822C936.807 1837.06 951.36 1851.61 965.629 1866.43C970.655 1871.64 975.456 1877.08 980.726 1882.81C973.422 1893.13 963.461 1894.84 952.502 1895.97Z" fill="#FBC685"/>
<path d="M1158.72 747.82C1154.04 741.601 1148.78 734.577 1145.28 726.768C1131.67 696.439 1118.62 665.861 1105.5 634.253C1106.89 633.877 1108.81 634.323 1109.31 635.419C1125.84 671.478 1142.23 707.597 1158.6 743.728C1158.99 744.583 1158.85 745.674 1158.72 747.82Z" fill="#FBC685"/>
<path d="M2185.6 2642.49C2188.75 2638.81 2192.61 2634.54 2197.28 2631.49C2216.89 2618.69 2236.89 2606.5 2256.43 2593.59C2266.32 2587.05 2266.01 2586.57 2261.61 2573.21C2275.64 2580.26 2276.71 2585.55 2264.71 2593.89C2239.53 2611.38 2215.25 2630.38 2185.6 2642.49Z" fill="#FCB969"/>
<path d="M851.566 1948.64C855.365 1944.3 859.791 1939.26 865.155 1935.59C887.64 1920.21 911.271 1906.83 936.783 1897.04C938.983 1896.2 941.565 1896.35 945.141 1896.28C945.045 1897.97 944.058 1899.95 942.47 1900.8C912.564 1916.8 882.587 1932.67 851.566 1948.64Z" fill="#FBC685"/>
<path d="M1870.48 2287.92C1879.46 2293.19 1881.04 2303.36 1884.71 2312.05C1894.21 2334.57 1902.8 2357.47 1911.56 2381.36C1907.78 2376.97 1903.22 2371.84 1900.75 2365.85C1890.19 2340.28 1880.25 2314.45 1870.48 2287.92Z" fill="#FCB969"/>
<path d="M2670.43 863.604C2669 864.12 2667.07 863.876 2666.47 862.853C2649.91 834.566 2633.49 806.201 2617.15 776.772C2628.4 780.314 2631.27 791.919 2636.94 800.632C2648.95 819.103 2658.96 838.878 2669.7 858.169C2670.37 859.387 2670.28 861.034 2670.43 863.604Z" fill="#FCB969"/>
<path d="M2605.55 756.714C2601.56 753.681 2597.49 749.719 2593.93 745.337C2589.45 739.815 2585.4 733.949 2580.55 727.407C2563.16 738.148 2547.17 748.023 2530.12 757.835C2532.2 754.164 2534.81 749.803 2538.61 747.1C2548.51 740.043 2558.84 733.58 2569.16 727.129C2580.01 720.345 2583.65 720.353 2591.45 730.48C2597.27 738.031 2601.02 747.168 2605.55 756.714Z" fill="#FCB969"/>
<path d="M626.366 2114.84C632.857 2107.66 639.831 2099.67 648.032 2093.25C667.097 2078.33 686.753 2064.16 707.227 2049.72C705.878 2052.75 703.948 2056.37 700.989 2058.65C676.57 2077.49 651.96 2096.08 626.366 2114.84Z" fill="#FBC685"/>
<path d="M861.75 330.66C861.353 332.585 860.204 335.037 858.279 336.158C830.846 352.135 803.307 367.932 774.723 383.784C774.195 382.446 774.342 380.494 775.341 379.836C802.802 361.739 829.981 343.136 861.75 330.66Z" fill="#FBC685"/>
<path d="M885.259 1789.01C885.184 1790.58 884.208 1792.63 882.617 1793.38C856.954 1805.55 831.222 1817.57 805.466 1829.54C803.735 1830.34 801.685 1830.46 798.636 1830.75C802.499 1821.66 812.402 1820.73 820.411 1816.79C837.801 1808.24 855.288 1799.88 872.865 1791.73C876.299 1790.13 880.32 1789.8 885.259 1789.01Z" fill="#FBC685"/>
<path d="M767.337 1843.33C766.103 1845.76 764.139 1848.83 761.344 1850.18C738.267 1861.33 715.054 1872.2 691.821 1883.02C689.649 1884.03 687.053 1884.14 683.495 1884.52C683.941 1882.55 685.19 1879.96 687.204 1879.03C713.48 1866.94 739.864 1855.09 767.337 1843.33Z" fill="#FBC685"/>
<path d="M1918.65 907.948C1928.6 892.091 1939.17 875.686 1950.54 859.863C1958.23 849.169 1967.06 839.296 1976.33 828.78C1972.83 836.395 1969.01 844.737 1963.8 852.086C1952.29 868.311 1940.17 884.106 1928.08 899.904C1925.79 902.893 1922.46 905.087 1918.65 907.948Z" fill="#FCB969"/>
<path d="M1917.91 2102.46C1911.95 2094.88 1905.98 2086.24 1900.27 2077.43C1897.41 2073.03 1895.03 2068.32 1891.42 2061.96C1882.62 2072.68 1874.87 2082.14 1866.11 2091.71C1871.22 2081.31 1876.79 2070.41 1883.66 2060.41C1888.05 2054.02 1895.75 2054.8 1899.26 2061.65C1905.94 2074.66 1911.8 2088.08 1917.91 2102.46Z" fill="#FCB969"/>
<path d="M311.565 2104.27C313.902 2105.35 316.956 2107.18 318.395 2109.86C330.062 2131.64 341.426 2153.59 352.724 2176.59C350.653 2176.2 347.984 2175.11 346.944 2173.15C334.998 2150.64 323.299 2128.01 311.565 2104.27Z" fill="#FBC685"/>
<path d="M1005.66 787.765C1008.48 789.042 1012.23 790.822 1014.22 793.782C1026.82 812.46 1039.08 831.375 1051.31 850.3C1052.31 851.846 1052.28 854.055 1052.62 857.062C1049.26 854.572 1045.44 851.339 1042.84 847.317C1030.31 827.932 1018.1 808.335 1005.66 787.765Z" fill="#FBC685"/>
<path d="M1978.25 828.279C1981.19 821.889 1984.54 814.849 1989.12 808.732C2002 791.547 2015.39 774.742 2029.52 757.484C2026.23 764.747 2022.77 772.898 2017.6 779.764C2005.24 796.182 1992.08 811.995 1978.25 828.279Z" fill="#FCB969"/>
<path d="M952.161 710.767C955.352 712.388 959.545 714.442 961.84 717.795C976.446 739.137 990.635 760.765 1004.82 783.371C1002.43 782.627 999.578 781.218 998.003 778.932C982.643 756.639 967.494 734.2 952.161 710.767Z" fill="#FBC685"/>
<path d="M772.563 383.759C765.405 390.319 757.205 396.907 748.891 403.346C743.641 407.413 738.219 411.258 732.72 415.316C737.156 422.682 740.834 428.79 744.444 435.949C721.622 418.111 721.543 415.53 745.013 399.478C753.469 393.695 762.632 388.946 772.563 383.759Z" fill="#FBC685"/>
<path d="M791.79 497.503C796.338 500.513 801.817 503.928 805.485 508.727C815.172 521.4 824.073 534.673 833.213 548.781C819.391 532.75 805.643 515.644 791.79 497.503Z" fill="#FBC685"/>
<path d="M744.473 438.099C748.733 440.806 753.727 444.017 757.245 448.409C767.018 460.613 776.178 473.309 785.47 486.878C780.194 482.928 774.477 478.356 769.979 472.797C761.139 461.869 752.976 450.392 744.473 438.099Z" fill="#FBC685"/>
<path d="M2261.66 2571C2248.01 2564.33 2240.31 2551.2 2231.58 2538.03C2244.07 2545.78 2255.62 2555.37 2261.66 2571Z" fill="#FCB969"/>
<path d="M2226.09 2529.5C2212.18 2522.91 2204.86 2509.49 2196.42 2496.04C2209.18 2503.61 2220.05 2513.92 2226.09 2529.5Z" fill="#FCB969"/>
<path d="M1885.3 934.043C1892.8 934.291 1898.05 930.413 1902.61 924.648C1906.83 919.3 1911.41 914.236 1916.76 908.675C1911.75 917.962 1906.42 928.06 1899.69 937.129C1894.95 943.533 1889.61 940.474 1885.3 934.043Z" fill="#FCB969"/>
<path d="M2617.35 774.559C2613.21 770.411 2609.18 765.193 2605.29 758.928C2612.56 760.676 2615.96 766.354 2617.35 774.559Z" fill="#FCB969"/>
<path d="M2676.72 875.38C2674.44 873.273 2672.26 870.136 2670.24 865.969C2672.54 868.077 2674.68 871.214 2676.72 875.38Z" fill="#FCB969"/>
<path d="M791.248 1831.55C789.859 1833.57 787.516 1835.41 784.202 1837.13C785.585 1835.13 787.939 1833.25 791.248 1831.55Z" fill="#FBC685"/>
<path d="M1164.47 759.94C1162.44 758.447 1160.66 755.957 1159.02 752.499C1161.01 754.002 1162.87 756.472 1164.47 759.94Z" fill="#FBC685"/>
<path d="M1923.68 2111.73C1921.52 2110.34 1919.57 2107.94 1917.72 2104.58C1919.84 2105.98 1921.87 2108.35 1923.68 2111.73Z" fill="#FCB969"/>
<path d="M779.34 1837.41C777.982 1839.44 775.667 1841.33 772.374 1843.1C773.725 1841.07 776.055 1839.18 779.34 1837.41Z" fill="#FBC685"/>
<path d="M678.462 1884.7C677.072 1886.72 674.717 1888.62 671.384 1890.38C672.77 1888.35 675.133 1886.46 678.462 1884.7Z" fill="#FBC685"/>
<path d="M666.625 1890.66C665.226 1892.68 662.864 1894.58 659.515 1896.32C660.905 1894.29 663.284 1892.42 666.625 1890.66Z" fill="#FBC685"/>
<path d="M871.043 325.062C869.629 327.177 867.24 329.095 863.876 330.875C865.289 328.779 867.679 326.822 871.043 325.062Z" fill="#FBC685"/>
<path d="M1865.09 2275.81C1866.76 2276.53 1868.38 2278.18 1869.9 2280.79C1868.21 2280.08 1866.62 2278.41 1865.09 2275.81Z" fill="#FCB969"/>
<path d="M892.109 1784.29C891.456 1786 889.891 1787.66 887.388 1789.22C888.032 1787.5 889.615 1785.86 892.109 1784.29Z" fill="#FBC685"/>
<path d="M2196.35 2494.02C2194.57 2493.54 2192.73 2492.1 2190.83 2489.72C2192.61 2490.21 2194.45 2491.64 2196.35 2494.02Z" fill="#FCB969"/>
<path d="M2231.42 2535.87C2229.63 2535.38 2227.78 2533.97 2225.98 2531.59C2227.81 2532.06 2229.59 2533.5 2231.42 2535.87Z" fill="#FCB969"/>
<path d="M786.445 491.058C788.072 491.638 789.872 493.078 791.672 495.484C789.987 494.94 788.302 493.429 786.445 491.058Z" fill="#FBC685"/>
<path d="M1149.96 1472.61C1147.47 1451.34 1144.21 1431.31 1143.52 1411.2C1142.09 1368.77 1142.19 1326.29 1141.22 1283.84C1140.99 1273.77 1144.36 1266.6 1151.37 1259.23C1188.78 1219.83 1225.55 1179.83 1263.66 1138.83C1270.1 1142.12 1276.66 1145.05 1282.81 1148.68C1311.84 1165.8 1340.63 1183.31 1369.77 1200.23C1378.77 1205.45 1382.53 1212.65 1384.09 1222.63C1386.81 1240.08 1391.51 1257.24 1394.03 1274.71C1397.45 1298.49 1403.92 1321.77 1402.12 1346.42C1398.91 1390.18 1397.72 1434.08 1395.13 1477.89C1394.38 1490.56 1396.41 1501.96 1401.71 1513.58C1421.59 1557.2 1440.61 1601.2 1460.3 1644.9C1462.82 1650.5 1466.83 1655.73 1471.13 1660.19C1505.24 1695.53 1539.61 1730.63 1573.85 1765.85C1578.24 1770.37 1582.33 1775.2 1587.44 1780.87C1582.06 1787.4 1577.44 1793.59 1572.22 1799.23C1548.94 1824.35 1525.49 1849.32 1502.1 1874.34C1499.76 1876.84 1497.6 1879.54 1495.05 1881.82C1489.8 1886.55 1484.89 1888.96 1476.61 1886.62C1462.51 1882.63 1447.65 1881.23 1433.05 1879.15C1414.51 1876.51 1395.97 1873.78 1377.34 1872.02C1360.94 1870.47 1347.88 1864.94 1336.98 1851.51C1316.29 1826.03 1293.05 1802.6 1272.7 1776.87C1261.33 1762.49 1253.12 1745.48 1244.37 1729.17C1222.83 1689.08 1201.47 1648.88 1180.83 1608.32C1175.83 1598.49 1173.42 1587.21 1170.71 1576.38C1167.98 1565.46 1166.43 1554.25 1164.23 1543.19C1159.65 1520.05 1154.98 1496.94 1149.96 1472.61ZM1263.09 1659.93C1274.56 1681.53 1285.86 1703.22 1297.56 1724.68C1302.46 1733.68 1307.27 1743 1313.78 1750.78C1330.72 1771.04 1348.84 1790.31 1365.97 1810.42C1373.85 1819.68 1383.08 1823.74 1395.14 1825.04C1416.11 1827.3 1436.99 1830.87 1457.7 1834.91C1466.02 1836.53 1472.17 1834.78 1477.59 1829.01C1488.3 1817.59 1498.95 1806.13 1509.47 1794.55C1513.07 1790.59 1516.22 1786.24 1520.09 1781.42C1516.1 1776.82 1512.81 1772.61 1509.09 1768.83C1482.7 1741.96 1456.13 1715.27 1429.87 1688.28C1425.58 1683.87 1421.62 1678.66 1419.1 1673.09C1395.92 1621.73 1373.02 1570.24 1350.19 1518.72C1345.39 1507.87 1342.72 1496.83 1343.83 1484.43C1346.37 1455.95 1348.42 1427.37 1348.98 1398.79C1349.61 1366.47 1357.88 1334.26 1348.93 1301.7C1343.6 1282.3 1341.33 1262.08 1336.82 1242.43C1335.89 1238.35 1331.81 1234.11 1328.04 1231.74C1314.77 1223.38 1300.95 1215.89 1287.45 1207.88C1274.08 1199.96 1273.93 1199.66 1262.8 1211.3C1244.55 1230.39 1227.29 1250.49 1208.28 1268.78C1195.84 1280.74 1190.73 1294 1191.47 1310.74C1192.54 1334.89 1193.01 1359.07 1193.55 1383.24C1193.93 1400.52 1193.86 1417.82 1194.3 1435.1C1194.46 1441.49 1195.06 1447.94 1196.25 1454.22C1199.09 1469.17 1202.68 1483.98 1205.47 1498.94C1208.26 1513.92 1209.15 1529.38 1213.27 1543.96C1217.78 1559.94 1217.68 1577.02 1226.28 1592.11C1238.66 1613.83 1249.85 1636.22 1263.09 1659.93Z" fill="#FF900D"/>
<path d="M1600 1674.3C1594.71 1651.22 1589.93 1629.16 1585.39 1607.05C1580.25 1581.99 1575.16 1556.92 1570.35 1531.8C1567.29 1515.84 1564.86 1499.75 1562.02 1483.75C1559.35 1468.74 1555.94 1453.84 1553.89 1438.75C1551.28 1419.58 1540.61 1404.08 1531.44 1388.1C1514.55 1358.65 1501.33 1327.74 1489.81 1295.89C1482.16 1274.74 1472.79 1254.21 1464.57 1233.26C1462.65 1228.34 1461.13 1222.78 1461.36 1217.6C1462.29 1195.93 1463.94 1174.28 1465.35 1152.62C1466.41 1136.43 1467.49 1120.23 1468.64 1102.82C1483.67 1099.58 1498.18 1102.24 1512.65 1103.93C1519.98 1104.78 1527.24 1106.17 1534.57 1107.06C1565.85 1110.85 1597.14 1114.62 1628.45 1118.24C1635.8 1119.09 1643.22 1119.68 1650.61 1119.73C1659.33 1119.79 1665.03 1123.56 1669.96 1130.79C1695.04 1167.56 1720.73 1203.92 1745.85 1240.67C1753.8 1252.3 1762.28 1264 1767.57 1276.88C1773.67 1291.75 1776.5 1307.96 1780.75 1323.58C1786.42 1344.42 1792.46 1365.17 1797.69 1386.11C1807.08 1423.71 1819.32 1460.73 1817.56 1500.46C1816.88 1515.56 1819.12 1530.97 1821.52 1545.99C1824.89 1567.15 1817.83 1586.98 1815.2 1607.32C1813.39 1621.36 1808.67 1635 1805.99 1648.96C1803.03 1664.4 1800.67 1679.97 1798.53 1695.56C1797.32 1704.29 1793.92 1711.6 1787.35 1717.35C1746.9 1752.81 1706.4 1788.22 1665.9 1823.62C1665.58 1823.9 1664.95 1823.82 1662.37 1824.3C1648.71 1801.52 1640.78 1775.44 1630.3 1750.61C1619.81 1725.76 1610.47 1700.42 1600 1674.3ZM1666.39 1707.02C1671.72 1718.69 1672.89 1732.47 1684.2 1743.31C1705.66 1724.22 1726.61 1705.89 1747.06 1687.01C1749.9 1684.39 1750.81 1679.2 1751.66 1675C1754.48 1661.02 1756.74 1646.92 1759.45 1632.9C1762.9 1615.08 1768.56 1597.42 1769.66 1579.47C1771.2 1554.44 1769.32 1529.2 1769.05 1504.04C1768.65 1467.3 1760.23 1432.09 1749.63 1397.16C1741.93 1371.79 1734.72 1346.24 1728.54 1320.47C1723.56 1299.68 1716.87 1280.03 1703.17 1263.28C1701.33 1261.03 1699.65 1258.64 1697.99 1256.26C1680.04 1230.57 1662.27 1204.74 1644.03 1179.27C1640.2 1173.92 1636.69 1167.64 1628.42 1166.89C1607.8 1165.01 1587.22 1162.65 1566.65 1160.31C1558.34 1159.37 1550.11 1157.86 1541.81 1156.87C1533.17 1155.84 1524.45 1153.44 1515.43 1157.12C1513.72 1174.69 1511.86 1191.78 1510.57 1208.91C1510.28 1212.67 1511.63 1216.73 1512.9 1220.41C1517.35 1233.39 1521.73 1246.41 1526.81 1259.15C1536.23 1282.75 1545.31 1306.54 1556.05 1329.54C1565.98 1350.82 1577.93 1371.14 1588.9 1391.93C1593.2 1400.07 1597.91 1407.8 1598.75 1417.63C1599.71 1428.8 1602.81 1439.79 1605.04 1450.85C1610.2 1476.36 1615.75 1501.81 1620.49 1527.4C1625.59 1554.98 1629.76 1582.72 1634.71 1610.33C1636.96 1622.87 1639.05 1635.61 1643.07 1647.63C1649.59 1667.07 1657.64 1685.99 1666.39 1707.02Z" fill="#FF900D"/>
<path d="M1262.32 1659.13C1249.85 1636.22 1238.66 1613.83 1226.28 1592.11C1217.68 1577.02 1217.78 1559.94 1213.27 1543.96C1209.15 1529.38 1208.26 1513.92 1205.47 1498.94C1202.68 1483.98 1199.09 1469.17 1196.25 1454.22C1195.06 1447.94 1194.46 1441.49 1194.3 1435.1C1193.86 1417.82 1193.93 1400.52 1193.55 1383.24C1193.01 1359.07 1192.54 1334.89 1191.47 1310.74C1190.73 1294 1195.84 1280.74 1208.28 1268.78C1227.29 1250.49 1244.55 1230.39 1262.8 1211.3C1273.93 1199.66 1274.08 1199.96 1287.45 1207.88C1300.95 1215.89 1314.77 1223.38 1328.04 1231.74C1331.81 1234.11 1335.89 1238.35 1336.82 1242.43C1341.33 1262.08 1343.6 1282.3 1348.93 1301.7C1357.88 1334.26 1349.61 1366.47 1348.98 1398.79C1348.42 1427.37 1346.37 1455.95 1343.83 1484.43C1342.72 1496.83 1345.39 1507.87 1350.19 1518.72C1373.02 1570.24 1395.92 1621.73 1419.1 1673.09C1421.62 1678.66 1425.58 1683.87 1429.87 1688.28C1456.13 1715.27 1482.7 1741.96 1509.09 1768.83C1512.81 1772.61 1516.1 1776.82 1520.09 1781.42C1516.22 1786.24 1513.07 1790.59 1509.47 1794.55C1498.95 1806.13 1488.3 1817.59 1477.59 1829.01C1472.17 1834.78 1466.02 1836.53 1457.7 1834.91C1436.99 1830.87 1416.11 1827.3 1395.14 1825.04C1383.08 1823.74 1373.85 1819.68 1365.97 1810.42C1348.84 1790.31 1330.72 1771.04 1313.78 1750.78C1307.27 1743 1302.46 1733.68 1297.56 1724.68C1285.86 1703.22 1274.56 1681.53 1262.32 1659.13Z" fill="#F8F5ED"/>
<path d="M1665.72 1706.07C1657.64 1685.99 1649.59 1667.07 1643.07 1647.63C1639.05 1635.61 1636.96 1622.87 1634.71 1610.33C1629.76 1582.72 1625.59 1554.98 1620.49 1527.4C1615.75 1501.81 1610.2 1476.36 1605.04 1450.85C1602.81 1439.79 1599.71 1428.8 1598.75 1417.63C1597.91 1407.8 1593.2 1400.07 1588.9 1391.93C1577.93 1371.14 1565.98 1350.82 1556.05 1329.54C1545.31 1306.54 1536.23 1282.75 1526.81 1259.15C1521.73 1246.41 1517.35 1233.39 1512.9 1220.41C1511.63 1216.73 1510.28 1212.67 1510.57 1208.91C1511.86 1191.78 1513.72 1174.69 1515.43 1157.12C1524.45 1153.44 1533.17 1155.84 1541.81 1156.87C1550.11 1157.86 1558.34 1159.37 1566.65 1160.31C1587.22 1162.65 1607.8 1165.01 1628.42 1166.89C1636.69 1167.64 1640.2 1173.92 1644.03 1179.27C1662.27 1204.74 1680.04 1230.57 1697.99 1256.26C1699.65 1258.64 1701.33 1261.03 1703.17 1263.28C1716.87 1280.03 1723.56 1299.68 1728.54 1320.47C1734.72 1346.24 1741.93 1371.79 1749.63 1397.16C1760.23 1432.09 1768.65 1467.3 1769.05 1504.04C1769.32 1529.2 1771.2 1554.44 1769.66 1579.47C1768.56 1597.42 1762.9 1615.08 1759.45 1632.9C1756.74 1646.92 1754.48 1661.02 1751.66 1675C1750.81 1679.2 1749.9 1684.39 1747.06 1687.01C1726.61 1705.89 1705.66 1724.22 1684.2 1743.31C1672.89 1732.47 1671.72 1718.69 1665.72 1706.07Z" fill="#F8F5ED"/>
</svg>
