<svg width="274" height="51" viewBox="0 0 274 51" fill="none" xmlns="http://www.w3.org/2000/svg">
<path d="M31.2523 16.9982C32.1784 18.23 33.0955 19.4435 34.0114 20.6577C34.107 20.7844 34.1646 20.918 34.1692 21.0888C34.188 21.7855 34.2282 22.4816 34.2544 23.1781C34.2737 23.6895 34.2801 24.2014 34.2982 24.7128C34.3343 25.7354 34.3693 26.7581 34.4167 27.7803C34.428 28.0226 34.3812 28.2326 34.2538 28.4385C33.5174 29.6289 32.7858 30.8224 32.0547 32.0161C31.5162 32.8952 30.9757 33.7731 30.4483 34.6588C30.3271 34.8623 30.2385 35.0898 30.165 35.3159C29.9741 35.9033 29.7967 36.495 29.6203 37.0869C29.4934 37.5129 29.3769 37.9419 29.255 38.3693C29.2453 38.4032 29.229 38.4352 29.207 38.4901C28.9971 38.3925 28.8663 38.2231 28.7229 38.0732C28.5117 37.8525 28.3104 37.6224 28.1044 37.3967C27.8779 37.1484 27.6076 36.9722 27.2943 36.8425C26.2976 36.4298 25.3008 36.016 24.3171 35.5736C23.419 35.1696 22.5378 34.7279 21.6493 34.3025C21.3074 34.1389 20.9748 33.9507 20.6219 33.816C20.0734 33.6067 19.6391 33.2487 19.217 32.858C18.3789 32.0823 17.5283 31.32 16.6857 30.5491C16.4906 30.3705 16.3087 30.1934 16.2439 29.9062C16.1425 29.4559 15.9906 29.0169 15.8588 28.5735C15.7328 28.1493 15.6054 27.7255 15.4781 27.3016C15.385 26.9916 15.288 26.6827 15.1982 26.3716C15.0624 25.901 14.9296 25.4295 14.8001 24.9571C14.7787 24.879 14.7645 24.7925 14.7744 24.7134C14.8348 24.2353 14.9024 23.7582 14.9689 23.2809C15.0638 22.6004 15.1609 21.9202 15.255 21.2397C15.3046 20.8807 15.3595 20.5219 15.3929 20.1613C15.4084 19.9945 15.4667 19.8615 15.5691 19.7352C16.5336 18.5463 17.5029 17.3611 18.4545 16.162C18.6939 15.8604 18.9962 15.669 19.3219 15.4928C20.1802 15.0284 21.0376 14.5623 21.8946 14.0955C22.5094 13.7606 23.1206 13.4188 23.7397 13.0921C23.8363 13.0412 23.9793 13.0143 24.0799 13.045C24.6794 13.2286 25.2717 13.4357 25.8687 13.6282C26.3086 13.7701 26.754 13.8954 27.1927 14.041C27.3744 14.1013 27.5542 14.1797 27.7189 14.2769C28.536 14.7591 29.3471 15.2515 30.162 15.7374C30.3402 15.8437 30.4794 15.9837 30.6016 16.1511C30.8075 16.4332 31.0284 16.7043 31.2523 16.9982ZM18.4825 24.6145C18.5698 25.0502 18.6577 25.4858 18.7441 25.9217C18.7854 26.1301 18.8146 26.3414 18.8661 26.5472C18.9172 26.7513 18.9626 26.9638 19.0568 27.149C19.4457 27.9133 19.8483 28.6707 20.2541 29.4263C20.419 29.7335 20.5737 30.0541 20.788 30.3251C21.1715 30.8099 21.6094 31.2514 21.9992 31.7315C22.2047 31.9846 22.4508 32.0889 22.7597 32.118C23.1107 32.1511 23.4601 32.2027 23.8094 32.2525C24.0845 32.2917 24.3646 32.3179 24.6303 32.3931C24.7863 32.4373 24.8787 32.3918 24.9778 32.3027C25.0257 32.2598 25.0665 32.2089 25.1106 32.1617C25.5513 31.6902 25.9932 31.2198 26.4319 30.7464C26.5303 30.6402 26.6173 30.5235 26.7187 30.4005C26.6223 30.2937 26.5454 30.2026 26.4626 30.1174C25.8175 29.4537 25.1698 28.7924 24.5271 28.1264C24.446 28.0425 24.3705 27.9439 24.3229 27.8383C23.9519 27.0149 23.5936 26.1857 23.2189 25.3639C23.1191 25.1449 23.0808 24.93 23.0949 24.6914C23.1436 23.8658 23.1662 23.0385 23.2266 22.2139C23.2606 21.7494 23.1387 21.3109 23.0741 20.8627C23.0267 20.5335 22.9382 20.2102 22.8869 19.8814C22.8575 19.6933 22.7866 19.5576 22.617 19.4592C22.0679 19.1405 21.5254 18.8104 20.9785 18.4878C20.8626 18.4195 20.739 18.3642 20.6176 18.3022C19.8994 19.0748 19.2066 19.8287 18.5016 20.571C18.3696 20.71 18.3061 20.8449 18.3104 21.0348C18.3287 21.8347 18.3268 22.6352 18.3538 23.4347C18.3667 23.8136 18.4282 24.1909 18.4825 24.6145ZM26.9672 28.4109C27.1527 28.8844 27.3286 29.3619 27.5263 29.8303C27.7237 30.2982 27.8732 30.7896 28.1307 31.2188C28.1792 31.2098 28.1911 31.2112 28.1971 31.206C28.9603 30.5389 29.7234 29.8716 30.4857 29.2036C30.6095 29.0951 30.6736 28.9574 30.6962 28.7928C30.7366 28.4992 30.7812 28.2059 30.837 27.9149C30.8875 27.6518 30.9764 27.3948 31.0105 27.1302C31.0599 26.7469 31.193 26.3732 31.1294 25.9746C31.0843 25.6914 31.0422 25.4012 31.0548 25.1166C31.0881 24.3679 30.8574 23.6705 30.6805 22.9619C30.5819 22.5672 30.4682 22.1763 30.3613 21.7836C30.2812 21.4892 30.2278 21.1838 30.1129 20.9037C30.0133 20.661 29.8534 20.4404 29.7036 20.2213C29.2303 19.5288 28.7462 18.8437 28.2736 18.1507C28.1807 18.0145 28.0732 17.9436 27.909 17.9424C27.7697 17.9414 27.6299 17.9304 27.4914 17.9144C26.9015 17.8462 26.3119 17.7751 25.7224 17.7036C25.5844 17.6868 25.4475 17.6607 25.3094 17.6446C25.0367 17.6129 24.7634 17.5627 24.4802 17.6237C24.4585 17.9519 24.438 18.257 24.4182 18.5622C24.3916 18.9703 24.3604 19.3782 24.3428 19.7866C24.3386 19.8842 24.3671 19.9891 24.4034 20.0816C24.5583 20.4764 24.7349 20.8632 24.8791 21.2618C25.0961 21.8619 25.3452 22.4444 25.6635 22.9994C25.8362 23.3004 26.0372 23.5926 26.0864 23.9539C26.1251 24.2382 26.1894 24.5189 26.2397 24.8017C26.2932 25.1033 26.339 25.4064 26.3966 25.7072C26.4872 26.1806 26.5832 26.6529 26.6801 27.125C26.7656 27.5417 26.8556 27.9575 26.9672 28.4109Z" fill="#F8F5EE"/>
<path d="M47.2424 13.3574C47.4032 13.6881 47.5653 14.0181 47.7244 14.3496C47.8257 14.5608 47.8135 14.5885 47.621 14.6922C46.7292 15.1724 45.8395 15.6565 44.9467 16.1347C44.1266 16.5739 43.3105 17.0213 42.4792 17.4383C41.9518 17.7028 41.4028 17.9255 40.8584 18.1546C39.7209 18.6333 38.5795 19.1027 37.4408 19.5782C37.0831 19.7276 36.7294 19.8864 36.3723 20.0371C36.2197 20.1016 36.1531 20.08 36.0516 19.9308C35.668 19.3667 35.2859 18.8015 34.9066 18.2344C34.7958 18.0687 34.8133 18.021 35.0068 17.9212C36.4927 17.1553 37.8778 16.2284 39.2373 15.262C40.1016 14.6475 40.9407 13.9993 41.7105 13.2677C42.5151 12.503 43.4039 11.848 44.3215 11.229C44.3599 11.2031 44.3947 11.172 44.4666 11.1338C44.8032 10.9382 45.1045 10.7521 45.4321 10.5497C45.5235 10.673 45.5999 10.7835 45.6843 10.8876C45.7513 10.9702 45.828 11.0448 45.9004 11.123C45.9004 11.123 45.9083 11.1192 45.902 11.1413C45.9716 11.2617 46.0475 11.3601 46.1234 11.4584C46.1234 11.4584 46.131 11.4552 46.1254 11.4777C46.4297 12.0345 46.7392 12.569 47.0512 13.102C47.0625 13.1212 47.0989 13.1258 47.1235 13.1373C47.1235 13.1373 47.1236 13.1396 47.1214 13.1599C47.1603 13.2392 47.2013 13.2983 47.2424 13.3574Z" fill="#F8F5EE"/>
<path d="M42.7785 23.3036C43.4333 23.2418 44.0617 23.1811 44.69 23.1203C44.7641 23.1131 44.8379 23.1027 44.9121 23.098C45.6722 23.0494 46.4325 23.0045 47.1924 22.9529C48.0265 22.8962 48.8601 22.8335 49.6939 22.7732C49.7124 22.7719 49.7308 22.7679 49.7493 22.7668C49.9885 22.7521 50.0274 22.7819 50.0437 23.018C50.0787 23.5267 50.1282 24.0353 50.1373 24.5445C50.1491 25.2045 50.1379 25.8654 50.1156 26.5252C50.1044 26.8559 50.0466 27.185 50.009 27.5233C49.9432 27.5276 49.8871 27.5422 49.8353 27.533C49.5343 27.4798 49.2344 27.4207 48.934 27.3641C48.6889 27.3179 48.4448 27.2651 48.1983 27.2283C47.8591 27.1775 47.5177 27.1414 47.1779 27.0946C46.7456 27.0351 46.3141 26.9697 45.8819 26.9096C45.551 26.8636 45.2202 26.8161 44.8882 26.7797C44.408 26.727 43.9263 26.688 43.446 26.6353C42.9304 26.5787 42.4157 26.513 41.9005 26.4513C41.8729 26.448 41.8451 26.4455 41.8173 26.4434C41.216 26.3976 40.6144 26.3552 40.0135 26.3053C39.2734 26.2439 38.5341 26.172 37.7938 26.1137C37.5067 26.0911 37.2175 26.0946 36.9294 26.0832C36.8463 26.0799 36.7535 26.0862 36.6836 26.0512C36.6198 26.0193 36.5382 25.9377 36.5378 25.8776C36.5349 25.3571 36.546 24.8365 36.5603 24.3161C36.5622 24.2457 36.6047 24.1764 36.6359 24.0846C36.8712 24.0465 37.1077 24.0071 37.3446 23.9702C37.7385 23.9087 38.1326 23.8488 38.5266 23.7881C38.5726 23.781 38.6183 23.7717 38.6644 23.7666C39.4478 23.6799 40.2314 23.5951 41.0145 23.5069C41.594 23.4417 42.1729 23.3723 42.7785 23.3036Z" fill="#F8F5EE"/>
<path d="M45.9699 34.5817C46.6094 34.9111 47.277 35.1373 47.9095 35.5211C47.6368 36.0578 47.3846 36.5783 47.1108 37.0872C46.6873 37.8746 46.2177 38.6347 45.7077 39.3695C45.6866 39.3998 45.6739 39.436 45.6522 39.4657C45.5257 39.6394 45.501 39.6447 45.3252 39.5116C44.7819 39.1003 44.2441 38.6816 43.6971 38.2754C42.4911 37.3797 41.2881 36.4799 40.0706 35.6001C38.5106 34.4729 36.9142 33.3989 35.2712 32.3954C35.1329 32.3109 34.9962 32.2237 34.8446 32.1289C35.2494 31.5473 35.6326 30.9972 36.0151 30.4466C36.0888 30.3406 36.171 30.3178 36.2959 30.374C36.9348 30.6614 37.576 30.9438 38.2188 31.2222C38.7842 31.467 39.3514 31.7077 39.9204 31.9441C40.6182 32.2341 41.3207 32.5127 42.0173 32.8055C42.6287 33.0624 43.2366 33.3279 43.8426 33.5974C44.4999 33.8897 45.1535 34.1904 45.808 34.4891C45.8579 34.5119 45.9021 34.5472 45.9699 34.5817Z" fill="#F8F5EE"/>
<path d="M6.53475 12.0622C7.29397 12.6478 8.04789 13.2086 8.78134 13.795C9.81602 14.6223 10.9954 15.2191 12.1099 15.9187C12.8039 16.3542 13.5141 16.7638 14.2157 17.1871C14.459 17.3339 14.4683 17.4041 14.282 17.6103C14.1889 17.7134 14.1041 17.8278 13.9966 17.9134C13.6518 18.1882 13.559 18.5724 13.5002 18.9785C13.467 19.2074 13.422 19.4351 13.3707 19.6607C13.3581 19.7161 13.3 19.7611 13.2564 19.8196C12.7085 19.5912 12.1735 19.3695 11.6397 19.1452C11.0357 18.8915 10.4291 18.6436 9.83018 18.3783C8.77714 17.9121 7.72622 17.4408 6.6798 16.9598C5.82512 16.567 4.97573 16.1624 4.12892 15.7528C3.57368 15.4842 3.02716 15.1976 2.47698 14.9186C2.44396 14.9018 2.41252 14.8817 2.3814 14.8616C2.20489 14.7473 2.19341 14.7206 2.29181 14.5296C2.59084 13.9495 2.87582 13.361 3.20063 12.7955C3.57669 12.1408 3.98773 11.5061 4.38769 10.8653C4.44437 10.7745 4.52426 10.6981 4.60573 10.6003C5.25778 11.0936 5.88905 11.5712 6.53475 12.0622Z" fill="#F8F5EE"/>
<path d="M27.5503 2.496C27.4845 3.2623 27.4266 4.00308 27.3549 4.74254C27.2976 5.33356 27.2227 5.92286 27.1572 6.51311C27.1081 6.95602 27.0695 7.40026 27.0114 7.84195C26.9582 8.24535 26.8825 8.64573 26.8217 9.04818C26.7747 9.35976 26.7344 9.67238 26.6928 9.98476C26.6475 10.3247 26.6047 10.6649 26.5591 11.0048C26.5556 11.0308 26.5377 11.0548 26.5204 11.0931C26.4694 11.0888 26.412 11.0964 26.3645 11.0781C25.8471 10.8793 25.3317 10.675 24.8145 10.4754C24.6699 10.4196 24.5251 10.4189 24.3842 10.4985C24.2956 10.5485 24.206 10.6004 24.1105 10.633C24.0195 10.6642 23.9203 10.6715 23.8224 10.6898C23.7803 10.3368 23.7368 10.0167 23.705 9.69559C23.6538 9.17787 23.616 8.6588 23.562 8.1414C23.5051 7.5965 23.4353 7.05296 23.3721 6.50871C23.3324 6.16727 23.2941 5.82567 23.2557 5.48408C23.2048 5.03176 23.1613 4.57848 23.1019 4.1273C23.0523 3.7509 22.9836 3.37705 22.9249 3.00184C22.8776 2.69979 22.8298 2.39778 22.7873 2.09505C22.7382 1.74603 22.6966 1.39596 22.6479 1.0469C22.6158 0.817579 22.5753 0.58945 22.5421 0.360274C22.5343 0.306826 22.5409 0.251299 22.5409 0.164052C22.7622 0.134055 22.9699 0.0912149 23.1793 0.0806778C23.5786 0.060577 23.9791 0.0629739 24.3788 0.0482456C24.684 0.0369985 24.989 -0.00329345 25.2938 0.000215798C25.6643 0.0044811 26.0347 0.0377 26.4047 0.0647775C26.7837 0.0925224 27.1623 0.127333 27.541 0.161113C27.5768 0.164309 27.6113 0.182228 27.6831 0.204896C27.6396 0.956819 27.5959 1.71337 27.5503 2.496Z" fill="#F8F5EE"/>
<path d="M32.3257 14.4255C31.8664 14.1034 31.4066 13.7819 30.9481 13.4585C30.8357 13.3793 30.7278 13.294 30.6182 13.2118C30.9246 12.5888 31.2279 11.9808 31.5237 11.3691C31.997 10.3901 32.481 9.41585 32.9317 8.4264C33.4279 7.33686 33.9062 6.23855 34.3644 5.13251C34.7031 4.31484 34.989 3.47542 35.3145 2.65202C35.4949 2.19566 35.4316 2.23746 35.8507 2.45119C36.6871 2.87768 37.5038 3.34405 38.3189 3.81086C38.6857 4.02094 39.0303 4.27012 39.3826 4.50507C39.4574 4.55493 39.5219 4.6201 39.617 4.69992C39.495 4.88993 39.3887 5.0711 39.2675 5.24175C38.2435 6.68434 37.219 8.12658 36.1897 9.56541C35.8263 10.0734 35.4493 10.5716 35.0548 11.0982C34.7827 11.4417 34.5304 11.7583 34.2877 12.0822C34.2013 12.1974 34.1382 12.3301 34.0644 12.4548C34.0644 12.4548 34.0663 12.4565 34.0475 12.4608C33.8719 12.6581 33.7056 12.8441 33.5607 13.0456C33.3464 13.3438 33.1473 13.6529 32.9417 13.9574C32.9417 13.9574 32.9484 13.9605 32.9276 13.9665C32.8234 14.0702 32.737 14.1656 32.6575 14.2664C32.5717 14.375 32.4726 14.4481 32.3257 14.4255Z" fill="#F8F5EE"/>
<path d="M18.1918 39.8265C17.6671 40.6766 17.2163 41.5421 16.8472 42.4488C16.4098 43.5233 15.9657 44.5955 15.5494 45.6782C15.3242 46.2639 15.1511 46.8696 14.9545 47.4663C14.917 47.5801 14.8768 47.693 14.8425 47.8077C14.7868 47.9939 14.7502 48.0139 14.5688 47.9232C14.1321 47.7052 13.6869 47.5012 13.2643 47.2583C12.4661 46.7995 11.6802 46.319 10.8922 45.8426C10.7918 45.7819 10.709 45.6921 10.6019 45.6023C11.0339 45.0903 11.4623 44.5866 11.886 44.079C12.4473 43.4064 13.0402 42.7565 13.5552 42.05C14.2496 41.0973 14.8813 40.099 15.5424 39.1219C16.2138 38.1297 16.8877 37.1392 17.5614 36.1486C17.7116 35.9278 17.8636 35.708 18.0194 35.4911C18.1306 35.3364 18.1711 35.3296 18.3377 35.4232C18.8273 35.6981 19.3166 35.9734 19.8045 36.2511C20.0043 36.3647 20.0004 36.3794 19.9169 36.5986C19.5214 37.6372 18.942 38.5778 18.3671 39.521C18.3095 39.6154 18.256 39.7124 18.1918 39.8265Z" fill="#F8F5ED"/>
<path d="M25.2575 39.1555C25.5817 39.3154 25.8867 39.4672 26.191 39.6202C26.2952 39.6726 26.3694 39.745 26.379 39.8732C26.3887 40.0028 26.4192 40.1307 26.4292 40.2603C26.4807 40.9273 26.5198 41.5954 26.5804 42.2616C26.629 42.797 26.7021 43.3301 26.7641 43.8643C26.7695 43.9106 26.7721 43.9571 26.7776 44.0033C26.8491 44.6018 26.9226 45.2 26.9919 45.7987C27.0421 46.2323 27.0818 46.6672 27.1354 47.1004C27.1889 47.5328 27.2585 47.9633 27.3125 48.3957C27.3734 48.8843 27.4264 49.374 27.4784 49.8638C27.4859 49.9342 27.4689 50.0073 27.4629 50.0839C25.9045 50.2509 24.3653 50.2648 22.812 50.0946C22.8014 50.0674 22.776 50.0341 22.7778 50.0023C22.8011 49.5856 22.8298 49.1692 22.8538 48.7525C22.8747 48.3904 22.8809 48.0272 22.9122 47.6661C22.9627 47.0837 23.0287 46.5027 23.0878 45.921C23.0925 45.8748 23.0955 45.8283 23.0975 45.7818C23.131 45.037 23.2365 44.3033 23.4181 43.5796C23.4767 43.3461 23.5105 43.1057 23.5436 42.8668C23.6328 42.2232 23.7212 41.5793 23.7992 40.9342C23.8815 40.2529 23.9494 39.5698 24.0294 38.8882C24.0405 38.7939 24.0846 38.7034 24.1194 38.5922C24.5144 38.7883 24.8762 38.9681 25.2575 39.1555Z" fill="#F8F5EE"/>
<path d="M9.60872 32.3592C9.60872 32.3592 9.6358 32.3529 9.67149 32.3545C9.7524 32.3463 9.80132 32.3444 9.84227 32.3253C10.28 32.1214 10.7174 31.9165 11.1523 31.7065C11.205 31.681 11.242 31.6232 11.2863 31.5803C11.2954 31.578 11.3045 31.5757 11.3461 31.5745C11.4222 31.5398 11.4658 31.504 11.5094 31.4683C11.5185 31.466 11.5276 31.4636 11.569 31.462C11.6455 31.4281 11.6896 31.3935 11.7338 31.3589C11.756 31.3545 11.7782 31.3502 11.8385 31.3445C11.9125 31.3348 11.9511 31.3326 11.9837 31.3175C12.469 31.092 12.9539 30.8655 13.4375 30.6362C13.4675 30.622 13.4859 30.5834 13.5096 30.5561C13.5096 30.5561 13.5093 30.5557 13.5272 30.5577C13.5746 30.5284 13.604 30.4972 13.6335 30.4659C13.6556 30.4616 13.6777 30.4572 13.7309 30.4632C13.8092 30.5926 13.8742 30.7081 13.8992 30.8317C13.9319 30.9932 13.9976 31.1247 14.113 31.2418C14.3729 31.5058 14.6259 31.7767 14.8813 32.0451C14.9324 32.0988 14.9885 32.1495 15.0305 32.2098C15.1167 32.3334 15.085 32.4014 14.9409 32.4532C14.8693 32.4789 14.8055 32.526 14.7381 32.5634C14.7159 32.5677 14.6937 32.572 14.6325 32.5734C14.5483 32.5764 14.4996 32.5736 14.4581 32.5895C13.9774 32.774 13.5321 33.026 13.1084 33.3159C13.0074 33.385 12.924 33.48 12.8324 33.5631C12.8324 33.5631 12.8124 33.5744 12.7808 33.5744C12.7149 33.5872 12.6759 33.5936 12.6469 33.614C11.8795 34.1562 11.112 34.6983 10.3484 35.2458C10.2707 35.3016 10.2178 35.392 10.1535 35.4664C10.1535 35.4664 10.1567 35.4712 10.1347 35.4685C9.74676 35.7386 9.37636 36.0056 9.01712 36.2868C8.86259 36.4077 8.73118 36.5582 8.58926 36.6952C8.58926 36.6952 8.59272 36.7 8.57052 36.6976C8.47662 36.7361 8.39773 36.7682 8.33438 36.8194C7.89526 37.1746 7.45635 37.5302 7.02314 37.8926C6.34083 38.4634 5.6643 39.041 4.98251 39.6124C4.80262 39.7632 4.71609 39.7556 4.59766 39.5764C4.35843 39.2143 4.13513 38.8416 3.89139 38.4827C3.75979 38.289 3.68698 38.0473 3.4641 37.9224C3.4641 37.9224 3.4536 37.9012 3.45457 37.8687C3.23966 37.4237 3.02552 37.0102 2.80567 36.5997C2.77856 36.5491 2.72102 36.5148 2.67757 36.4729C2.67757 36.4729 2.66828 36.4514 2.66953 36.419C2.62595 36.2859 2.58364 36.1841 2.53581 36.085C2.42008 35.845 2.42024 35.8269 2.66347 35.7119C3.16646 35.4741 3.67374 35.2453 4.17779 35.0097C4.78229 34.7271 5.3856 34.4419 5.98881 34.1566C6.9608 33.6968 7.93305 33.2375 8.90275 32.7729C8.99773 32.7274 9.07573 32.6464 9.1616 32.5819C9.1616 32.5819 9.18788 32.5753 9.22 32.5772C9.29662 32.5432 9.34111 32.5073 9.38561 32.4714C9.38561 32.4714 9.41175 32.4642 9.44367 32.4654C9.51996 32.4308 9.56434 32.395 9.60872 32.3592Z" fill="#F8F5EE"/>
<path d="M14.7456 10.2167C14.7456 10.2167 14.735 10.1961 14.735 10.1646C14.6201 9.95622 14.5126 9.77403 14.3887 9.60373C14.1396 9.26146 13.8818 8.9256 13.6274 8.58724C13.3229 8.18225 13.0206 7.77555 12.7112 7.3743C12.6582 7.30554 12.5747 7.26032 12.5053 7.20423C12.5053 7.20423 12.5037 7.20555 12.5059 7.18456C12.3343 6.91798 12.1666 6.66787 11.9841 6.42907C11.9149 6.33864 11.8117 6.27429 11.724 6.19805C11.724 6.19805 11.7217 6.19999 11.7227 6.18065C11.6899 6.13418 11.6559 6.10705 11.622 6.07992C11.622 6.07992 11.61 6.0601 11.6095 6.02867C11.4318 5.76167 11.2592 5.52245 11.0751 5.29248C11.0088 5.20971 10.9147 5.14921 10.8333 5.07854C10.8333 5.07854 10.8281 5.08187 10.8316 5.05988C10.7658 4.92279 10.6965 4.8077 10.6129 4.6689C10.7166 4.59242 10.8187 4.51997 10.9176 4.44335C11.0743 4.322 11.2288 4.19786 11.3843 4.07491C11.3843 4.07491 11.3865 4.0773 11.4056 4.0759C11.943 3.77601 12.4619 3.47835 12.9789 3.1773C13.0151 3.15617 13.0368 3.10997 13.0653 3.07543C13.0653 3.07543 13.0628 3.07182 13.0827 3.07609C13.1477 3.04421 13.1927 3.00806 13.2377 2.97191C13.2377 2.97191 13.2403 2.96984 13.2625 2.97206C13.7454 2.76703 14.2062 2.55978 14.6733 2.34972C14.7258 2.45653 14.7648 2.52999 14.7988 2.60567C15.2181 3.53814 15.6359 4.47135 16.0558 5.40354C16.4795 6.34398 16.9024 7.28476 17.3323 8.22236C17.4196 8.41267 17.5363 8.58947 17.6394 8.7725C17.6394 8.7725 17.643 8.77013 17.6389 8.79284C17.8846 9.39 18.1305 9.96618 18.3869 10.5377C18.453 10.6848 18.552 10.8172 18.6358 10.9563C18.6358 10.9563 18.6416 10.9805 18.6425 11.0106C18.6768 11.0877 18.7102 11.1346 18.7436 11.1816C18.7436 11.1816 18.7496 11.2069 18.7511 11.2407C18.9545 11.7614 19.1565 12.2482 19.3684 12.7591C19.2148 12.8442 19.076 12.9334 18.9275 13.0013C18.4235 13.2321 17.9197 13.4547 17.5698 13.9202C17.4476 14.0829 17.3641 14.0606 17.2512 13.8858C17.1112 13.6687 16.9821 13.4445 16.8391 13.2294C16.7856 13.1488 16.7065 13.0852 16.639 13.0139C16.639 13.0139 16.6375 13.0151 16.6403 12.9936C16.6345 12.9362 16.635 12.8946 16.6162 12.8654C16.3857 12.5088 16.1548 12.1524 15.9174 11.8004C15.8797 11.7447 15.8091 11.7111 15.7538 11.6673C15.7538 11.6673 15.7425 11.6471 15.7427 11.6156C15.4729 11.1783 15.2055 10.7708 14.9303 10.3686C14.8871 10.3054 14.808 10.2667 14.7456 10.2167Z" fill="#F8F5EE"/>
<path d="M1.35842 22.9998C1.67226 23.0633 1.96186 23.127 2.25396 23.1756C2.93942 23.2896 3.62509 23.4032 4.31262 23.5036C4.72537 23.5638 5.14176 23.5992 5.55657 23.6453C6.08239 23.7037 6.60795 23.7649 7.13427 23.8185C7.36531 23.8421 7.59857 23.8434 7.82978 23.8656C9.14658 23.9922 10.4669 23.9855 11.7874 23.9769C12.0085 23.9755 12.2296 23.9767 12.4637 23.9767C12.4737 24.0437 12.4945 24.0983 12.4873 24.1489C12.4343 24.5208 12.5837 24.8615 12.6499 25.2142C12.6855 25.4039 12.7546 25.5872 12.8056 25.7742C12.8602 25.9743 12.8066 26.0529 12.5975 26.0617C12.1514 26.0806 11.7043 26.0808 11.259 26.1107C10.5554 26.1578 9.85294 26.223 9.15001 26.2808C9.12227 26.2831 9.09484 26.2893 9.06709 26.2914C8.42858 26.3406 7.78924 26.381 7.1518 26.4414C6.72724 26.4817 6.30546 26.5512 5.8823 26.6065C5.56012 26.6486 5.23743 26.6868 4.91547 26.7305C4.27108 26.8179 3.62548 26.898 2.98334 26.9998C2.46234 27.0824 1.94511 27.1894 1.42724 27.2909C1.03753 27.3672 0.649619 27.4528 0.260391 27.5317C0.216618 27.5406 0.169492 27.5329 0.117952 27.5329C0.00427327 27.1895 0.00234521 26.8439 0.00096434 26.5033C-0.00330096 25.4523 0.00751571 24.4012 0.015165 23.3502C0.015973 23.2391 0.02934 23.1274 0.0460211 23.0173C0.0774722 22.8098 0.11684 22.7857 0.320264 22.821C0.65839 22.8797 0.996943 22.936 1.35842 22.9998Z" fill="#F8F5ED"/>
<path d="M32.8433 41.8389C32.839 41.8162 32.8347 41.7935 32.8302 41.7325C32.6611 41.2655 32.4993 40.8339 32.3202 40.4096C32.2511 40.2458 32.2214 40.0542 32.0592 39.9399C32.0552 39.9173 32.0512 39.8947 32.0452 39.8373C32.0126 39.7715 31.982 39.7403 31.9514 39.7092C31.9473 39.6878 31.9431 39.6664 31.9376 39.608C31.9343 39.5526 31.9368 39.5321 31.9296 39.516C31.6891 38.9763 31.448 38.4369 31.2062 37.8978C31.1206 37.707 31.1072 37.5322 31.255 37.3537C31.3962 37.1832 31.5168 36.9944 31.6355 36.8067C31.7478 36.6293 31.8459 36.4431 31.9503 36.2607C31.9503 36.2607 31.944 36.2546 31.9664 36.255C32.1348 36.0773 32.2808 35.8992 32.4466 35.6971C32.5147 35.817 32.5596 35.9057 32.6134 35.9886C32.721 36.1546 32.8334 36.3174 32.9439 36.4816C32.9439 36.4816 32.9491 36.4772 32.9448 36.4979C32.9772 36.5636 33.0139 36.6087 33.0505 36.6538C33.7156 37.844 34.4833 38.9668 35.274 40.0759C36.1296 41.276 37.0368 42.4356 37.9599 43.5835C37.9943 43.6263 38.0322 43.6663 38.0791 43.7415C38.1243 43.8025 38.159 43.8295 38.1937 43.8565C38.1937 43.8565 38.1999 43.8511 38.1967 43.8737C38.353 44.1301 38.4908 44.383 38.7514 44.5274C38.7514 44.5274 38.7584 44.5224 38.7542 44.5436C38.7849 44.5914 38.8197 44.618 38.8546 44.6446C38.8546 44.6446 38.8552 44.6471 38.8553 44.6673C39.0209 44.916 39.1659 45.1633 39.4221 45.3093C39.4221 45.3093 39.4287 45.3035 39.4253 45.3276C39.5051 45.5825 39.5111 45.5915 39.3247 45.7147C38.9566 45.958 38.5795 46.1878 38.21 46.429C38.1221 46.4864 38.0493 46.5669 37.9695 46.6367C37.9695 46.6367 37.9484 46.6457 37.9172 46.6465C37.4393 46.8875 36.9941 47.1304 36.5456 47.367C36.2606 47.5174 35.9723 47.6621 35.6823 47.8028C35.4906 47.8959 35.4864 47.8906 35.3856 47.7139C35.3537 47.658 35.3223 47.6016 35.294 47.5438C34.9705 46.8824 34.6452 46.2218 34.3252 45.5586C34.069 45.0279 33.813 44.4971 33.6299 43.9344C33.4365 43.3399 33.2389 42.7467 33.0331 42.1564C32.9934 42.0424 32.9078 41.9443 32.8433 41.8389Z" fill="#F8F5EE"/>
<path d="M32.8359 41.8536C32.9078 41.9443 32.9934 42.0424 33.0331 42.1564C33.2389 42.7467 33.4365 43.3399 33.6299 43.9344C33.813 44.4971 34.069 45.0279 34.3252 45.5586C34.6452 46.2218 34.9705 46.8824 35.294 47.5438C35.3223 47.6016 35.3537 47.658 35.3856 47.7139C35.4864 47.8906 35.4906 47.8959 35.6823 47.8028C35.9723 47.6621 36.2606 47.5174 36.5456 47.367C36.9941 47.1304 37.4393 46.8875 37.9062 46.6499C37.767 46.7743 37.6202 46.9202 37.4454 47.0137C36.873 47.3198 36.2926 47.6111 35.7108 47.8992C35.4415 48.0326 35.3997 48.0057 35.2669 47.7356C34.9598 47.1111 34.6302 46.4969 34.3432 45.8634C34.0261 45.1633 33.7288 44.4529 33.4556 43.7346C33.2225 43.1217 33.0357 42.4911 32.8359 41.8536Z" fill="#F8F5EE"/>
<path d="M17.6423 8.75006C17.5363 8.58947 17.4196 8.41267 17.3323 8.22236C16.9024 7.28476 16.4795 6.34398 16.0558 5.40354C15.6359 4.47135 15.2181 3.53814 14.7988 2.60567C14.7648 2.52999 14.7258 2.45653 14.6733 2.34972C14.2062 2.55978 13.7454 2.76703 13.264 2.97268C13.3286 2.90455 13.406 2.82278 13.5004 2.77417C13.8776 2.5799 14.2601 2.39593 14.6229 2.21695C14.7857 2.29406 14.8211 2.41871 14.8744 2.53826C15.0582 2.951 15.2542 3.35832 15.4413 3.76961C15.7816 4.51737 16.1189 5.26647 16.4573 6.01506C16.8264 6.83157 17.1963 7.64772 17.563 8.46529C17.6002 8.5483 17.6182 8.63997 17.6423 8.75006Z" fill="#F8F5EE"/>
<path d="M9.14043 32.5789C9.07573 32.6464 8.99773 32.7274 8.90275 32.7729C7.93305 33.2375 6.9608 33.6968 5.98881 34.1566C5.3856 34.4419 4.78229 34.7271 4.17779 35.0097C3.67374 35.2453 3.16646 35.4741 2.66347 35.7119C2.42024 35.8269 2.42008 35.845 2.53581 36.085C2.58364 36.1841 2.62595 36.2859 2.66757 36.4074C2.48713 36.3034 2.43718 36.0967 2.34632 35.9187C2.29814 35.8243 2.35022 35.7441 2.45181 35.6968C3.1792 35.3584 3.90688 35.0206 4.63152 34.6764C5.07323 34.4666 5.50719 34.2405 5.94909 34.0311C6.59986 33.7228 7.25374 33.421 7.908 33.1201C8.31011 32.9351 8.71539 32.7571 9.14043 32.5789Z" fill="#F8F5EE"/>
<path d="M3.46534 37.9424C3.68698 38.0473 3.75979 38.289 3.89139 38.4827C4.13513 38.8416 4.35843 39.2143 4.59766 39.5764C4.71609 39.7556 4.80262 39.7632 4.98251 39.6124C5.6643 39.041 6.34083 38.4634 7.02314 37.8926C7.45635 37.5302 7.89526 37.1746 8.33438 36.8194C8.39773 36.7682 8.47662 36.7361 8.56832 36.6956C8.43726 36.8424 8.29487 36.9993 8.13368 37.1335C7.37366 37.7666 6.60701 38.3917 5.8459 39.0234C5.554 39.2657 5.27177 39.5197 4.98276 39.7655C4.82328 39.9012 4.71007 39.8959 4.5909 39.7145C4.20985 39.1346 3.84047 38.547 3.46534 37.9424Z" fill="#F8F5EE"/>
<path d="M16.6393 13.0342C16.7065 13.0852 16.7856 13.1488 16.8391 13.2294C16.9821 13.4445 17.1112 13.6687 17.2512 13.8858C17.3641 14.0606 17.4476 14.0829 17.5698 13.9202C17.9197 13.4547 18.4235 13.2321 18.9275 13.0013C19.076 12.9334 19.2148 12.8442 19.3684 12.7591C19.1565 12.2482 18.9545 11.7614 18.7545 11.2533C18.8014 11.2971 18.855 11.3578 18.8899 11.4278C19.0464 11.7415 19.1984 12.0574 19.35 12.3734C19.3819 12.4398 19.4093 12.509 19.4316 12.5792C19.4969 12.7848 19.4695 12.8612 19.2774 12.9559C19.0781 13.0541 18.8765 13.1497 18.6693 13.2295C18.2618 13.3864 17.9307 13.6398 17.655 13.9753C17.5821 14.0641 17.4835 14.1317 17.3758 14.2277C17.0571 13.8536 16.8763 13.4358 16.6393 13.0342Z" fill="#F8F5EE"/>
<path d="M31.9325 36.2661C31.8459 36.4431 31.7478 36.6293 31.6355 36.8067C31.5168 36.9944 31.3962 37.1832 31.255 37.3537C31.1072 37.5322 31.1206 37.707 31.2062 37.8978C31.448 38.4369 31.6891 38.9763 31.9296 39.516C31.9368 39.5321 31.9343 39.5526 31.9335 39.5922C31.8898 39.5668 31.8347 39.5266 31.8098 39.4726C31.5547 38.919 31.3037 38.3635 31.0535 37.8076C30.9971 37.6824 30.9922 37.5519 31.074 37.4369C31.3517 37.0465 31.6341 36.6596 31.9325 36.2661Z" fill="#F8F5EE"/>
<path d="M12.5064 7.22388C12.5747 7.26032 12.6582 7.30554 12.7112 7.3743C13.0206 7.77555 13.3229 8.18225 13.6274 8.58724C13.8818 8.9256 14.1396 9.26146 14.3887 9.60373C14.5126 9.77403 14.6201 9.95622 14.7327 10.1533C14.6349 10.0753 14.527 9.98636 14.4457 9.87756C13.8095 9.02607 13.1782 8.17083 12.546 7.31633C12.5299 7.29453 12.5203 7.26791 12.5064 7.22388Z" fill="#F8F5EE"/>
<path d="M10.1734 35.4656C10.2178 35.392 10.2707 35.3016 10.3484 35.2458C11.112 34.6983 11.8795 34.1562 12.6469 33.614C12.6759 33.5936 12.7149 33.5872 12.7697 33.577C12.6932 33.6629 12.6015 33.7533 12.4985 33.8281C11.81 34.3276 11.1194 34.8243 10.4283 35.3203C10.3538 35.3738 10.2718 35.4169 10.1734 35.4656Z" fill="#F8F5EE"/>
<path d="M14.7543 32.5693C14.8055 32.526 14.8693 32.4789 14.9409 32.4532C15.085 32.4014 15.1167 32.3334 15.0305 32.2098C14.9885 32.1495 14.9324 32.0988 14.8813 32.0451C14.6259 31.7767 14.3729 31.5058 14.113 31.2418C13.9976 31.1247 13.9319 30.9932 13.8992 30.8317C13.8742 30.7081 13.8092 30.5926 13.7475 30.4596C13.8662 30.3534 13.8974 30.3591 13.9355 30.4924C13.9758 30.6335 14.0017 30.7794 14.0503 30.9173C14.0828 31.0094 14.1294 31.1049 14.1949 31.1754C14.4586 31.4593 14.7328 31.7335 15.0017 32.0126C15.0964 32.1109 15.1869 32.2134 15.2862 32.3214C15.1485 32.5158 14.9609 32.548 14.7543 32.5693Z" fill="#F8F5EE"/>
<path d="M18.6402 10.9344C18.552 10.8172 18.453 10.6848 18.3869 10.5377C18.1305 9.96618 17.8846 9.39 17.6373 8.79438C17.6635 8.78732 17.6997 8.7957 17.7092 8.81635C18.0205 9.49583 18.3295 10.1764 18.6379 10.8573C18.6452 10.8734 18.6426 10.8939 18.6402 10.9344Z" fill="#F8F5EE"/>
<path d="M37.9899 46.6362C38.0493 46.5669 38.1221 46.4864 38.21 46.429C38.5795 46.1878 38.9566 45.958 39.3247 45.7147C39.5111 45.5915 39.5051 45.5825 39.4222 45.3307C39.6866 45.4636 39.7069 45.5633 39.4806 45.7205C39.0063 46.0501 38.5486 46.4081 37.9899 46.6362Z" fill="#F8F5EE"/>
<path d="M12.8524 33.5617C12.924 33.48 13.0074 33.385 13.1084 33.3159C13.5321 33.026 13.9774 32.774 14.4581 32.5895C14.4996 32.5736 14.5483 32.5764 14.6156 32.5751C14.6138 32.607 14.5952 32.6443 14.5653 32.6603C14.0018 32.9618 13.4369 33.2608 12.8524 33.5617Z" fill="#F8F5EE"/>
<path d="M32.052 39.955C32.2214 40.0542 32.2511 40.2458 32.3202 40.4096C32.4993 40.8339 32.6611 41.2655 32.8263 41.7156C32.7549 41.633 32.669 41.5363 32.6224 41.4235C32.4236 40.9416 32.2363 40.4549 32.052 39.955Z" fill="#F8F5EE"/>
<path d="M47.1258 13.1161C47.0989 13.1258 47.0625 13.1212 47.0512 13.102C46.7392 12.569 46.4297 12.0345 46.1219 11.4799C46.3339 11.5467 46.388 11.7653 46.4947 11.9295C46.721 12.2776 46.9096 12.6502 47.112 13.0137C47.1248 13.0367 47.123 13.0677 47.1258 13.1161Z" fill="#F8F5EE"/>
<path d="M45.9032 11.102C45.828 11.0448 45.7513 10.9702 45.6843 10.8876C45.5999 10.7835 45.5235 10.673 45.4321 10.5497C45.1045 10.7521 44.8032 10.9382 44.4819 11.1231C44.5212 11.0539 44.5704 10.9717 44.6418 10.9208C44.8284 10.7878 45.0232 10.666 45.2176 10.5445C45.4221 10.4166 45.4905 10.4168 45.6375 10.6076C45.7471 10.7499 45.8179 10.9221 45.9032 11.102Z" fill="#F8F5EE"/>
<path d="M8.60888 36.6935C8.73118 36.5582 8.86259 36.4077 9.01712 36.2868C9.37636 36.0056 9.74676 35.7386 10.1326 35.4665C10.1071 35.5236 10.0708 35.5917 10.015 35.6348C9.55487 35.9897 9.09114 36.3401 8.60888 36.6935Z" fill="#F8F5EE"/>
<path d="M13.0443 3.07369C13.0368 3.10997 13.0151 3.15617 12.9789 3.1773C12.4619 3.47835 11.943 3.77601 11.4044 4.07472C11.3945 4.04952 11.3972 4.01274 11.416 4.00033C11.9335 3.65933 12.4457 3.30878 13.0443 3.07369Z" fill="#F8F5EE"/>
<path d="M13.4873 30.5538C13.4859 30.5834 13.4675 30.622 13.4375 30.6362C12.9539 30.8655 12.469 31.092 11.9837 31.3175C11.9511 31.3326 11.9125 31.3348 11.855 31.3404C11.9278 31.169 12.1144 31.1516 12.2653 31.0774C12.593 30.9162 12.9225 30.7587 13.2537 30.605C13.3184 30.575 13.3942 30.5688 13.4873 30.5538Z" fill="#F8F5EE"/>
<path d="M11.2652 31.5774C11.242 31.6232 11.205 31.681 11.1523 31.7065C10.7174 31.9165 10.28 32.1214 9.84227 32.3253C9.80132 32.3444 9.7524 32.3463 9.68536 32.3535C9.69377 32.3165 9.7173 32.2676 9.75526 32.2502C10.2504 32.0224 10.7475 31.799 11.2652 31.5774Z" fill="#F8F5EE"/>
<path d="M32.9598 13.9517C33.1473 13.6529 33.3464 13.3438 33.5607 13.0456C33.7056 12.8441 33.8719 12.6581 34.0466 12.4599C33.9806 12.6034 33.9088 12.7606 33.8106 12.8991C33.5937 13.2048 33.3653 13.5024 33.1374 13.8001C33.0943 13.8565 33.0316 13.8978 32.9598 13.9517Z" fill="#F8F5EE"/>
<path d="M32.9458 36.4603C32.8334 36.3174 32.721 36.1546 32.6134 35.9886C32.5596 35.9057 32.5147 35.817 32.4466 35.6971C32.2808 35.8992 32.1348 36.0773 31.9698 36.2577C32.0661 36.0618 32.1709 35.8563 32.3005 35.6678C32.3832 35.5476 32.5283 35.5623 32.5945 35.6912C32.7202 35.9364 32.8308 36.1894 32.9458 36.4603Z" fill="#F8F5EE"/>
<path d="M2.67698 36.4943C2.72102 36.5148 2.77856 36.5491 2.80567 36.5997C3.02552 37.0102 3.23966 37.4237 3.45255 37.8571C3.41353 37.8498 3.36323 37.8292 3.34364 37.7923C3.11853 37.3682 2.89808 36.9416 2.67698 36.4943Z" fill="#F8F5EE"/>
<path d="M15.7561 11.6871C15.8091 11.7111 15.8797 11.7447 15.9174 11.8004C16.1548 12.1524 16.3857 12.5088 16.6162 12.8654C16.635 12.8946 16.6345 12.9362 16.6409 12.9929C16.5775 12.9459 16.5055 12.885 16.4566 12.8092C16.2204 12.444 15.9905 12.0747 15.7561 11.6871Z" fill="#F8F5EE"/>
<path d="M34.0829 12.4505C34.1382 12.3301 34.2013 12.1974 34.2877 12.0822C34.5304 11.7583 34.7827 11.4417 35.049 11.1165C34.9869 11.2533 34.9217 11.4069 34.8243 11.5363C34.5914 11.8457 34.3434 12.1436 34.0829 12.4505Z" fill="#F8F5EE"/>
<path d="M14.7479 10.2362C14.808 10.2667 14.8871 10.3054 14.9303 10.3686C15.2055 10.7708 15.4729 11.1783 15.7402 11.6043C15.6951 11.5903 15.6414 11.5637 15.6117 11.5206C15.3223 11.1006 15.0369 10.6777 14.7479 10.2362Z" fill="#F8F5EE"/>
<path d="M11.3637 4.07426C11.2288 4.19786 11.0743 4.322 10.9176 4.44335C10.8187 4.51997 10.7166 4.59242 10.6129 4.6689C10.6965 4.8077 10.7658 4.92279 10.8338 5.05769C10.4038 4.72155 10.4023 4.67293 10.8446 4.37046C11.0039 4.26149 11.1766 4.172 11.3637 4.07426Z" fill="#F8F5EE"/>
<path d="M11.726 6.21757C11.8117 6.27429 11.9149 6.33864 11.9841 6.42907C12.1666 6.66787 12.3343 6.91798 12.5065 7.18382C12.2461 6.88174 11.987 6.55941 11.726 6.21757Z" fill="#F8F5EE"/>
<path d="M10.8344 5.0982C10.9147 5.14921 11.0088 5.20971 11.0751 5.29248C11.2592 5.52245 11.4318 5.76167 11.6069 6.01736C11.5075 5.94292 11.3998 5.85678 11.315 5.75203C11.1484 5.5461 10.9946 5.32984 10.8344 5.0982Z" fill="#F8F5EE"/>
<path d="M39.4233 45.2891C39.166 45.1633 39.0209 44.916 38.8564 44.6679C39.0917 44.8139 39.3093 44.9946 39.4233 45.2891Z" fill="#F8F5EE"/>
<path d="M38.753 44.5072C38.4908 44.383 38.353 44.1301 38.1938 43.8766C38.4344 44.0193 38.6391 44.2135 38.753 44.5072Z" fill="#F8F5EE"/>
<path d="M32.3313 14.4434C32.4726 14.4481 32.5717 14.375 32.6575 14.2664C32.737 14.1656 32.8234 14.0702 32.9241 13.9654C32.8298 14.1404 32.7293 14.3307 32.6026 14.5016C32.5131 14.6222 32.4125 14.5646 32.3313 14.4434Z" fill="#F8F5EE"/>
<path d="M46.1256 11.4382C46.0475 11.3601 45.9716 11.2617 45.8983 11.1437C46.0354 11.1766 46.0993 11.2836 46.1256 11.4382Z" fill="#F8F5EE"/>
<path d="M47.2443 13.338C47.2013 13.2983 47.1603 13.2392 47.1222 13.1607C47.1656 13.2004 47.2059 13.2595 47.2443 13.338Z" fill="#F8F5EE"/>
<path d="M11.7158 31.3555C11.6896 31.3935 11.6455 31.4281 11.583 31.4605C11.6091 31.4229 11.6534 31.3875 11.7158 31.3555Z" fill="#F8F5EE"/>
<path d="M18.7485 11.1628C18.7102 11.1346 18.6768 11.0877 18.6459 11.0225C18.6834 11.0509 18.7184 11.0974 18.7485 11.1628Z" fill="#F8F5EE"/>
<path d="M33.0545 36.6349C33.0139 36.6087 32.9772 36.5636 32.9423 36.5002C32.9822 36.5266 33.0204 36.5713 33.0545 36.6349Z" fill="#F8F5EE"/>
<path d="M11.4914 31.4659C11.4658 31.504 11.4222 31.5398 11.3601 31.573C11.3856 31.5349 11.4295 31.4992 11.4914 31.4659Z" fill="#F8F5EE"/>
<path d="M9.59053 32.3569C9.56434 32.395 9.51996 32.4308 9.45716 32.464C9.48327 32.4258 9.52781 32.3902 9.59053 32.3569Z" fill="#F8F5EE"/>
<path d="M9.36748 32.4693C9.34111 32.5073 9.29662 32.5432 9.2335 32.576C9.2597 32.5377 9.30453 32.5024 9.36748 32.4693Z" fill="#F8F5EE"/>
<path d="M13.2194 2.9682C13.1927 3.00806 13.1477 3.04421 13.0843 3.07774C13.111 3.03824 13.156 3.00136 13.2194 2.9682Z" fill="#F8F5EE"/>
<path d="M31.9505 39.7268C31.982 39.7403 32.0126 39.7715 32.0412 39.8206C32.0093 39.8072 31.9794 39.7757 31.9505 39.7268Z" fill="#F8F5EE"/>
<path d="M13.6163 30.4648C13.604 30.4972 13.5743 30.5282 13.5272 30.5577C13.5393 30.5251 13.5693 30.4945 13.6163 30.4648Z" fill="#F8F5EE"/>
<path d="M38.1926 43.8386C38.159 43.8295 38.1243 43.8025 38.0885 43.7576C38.1221 43.7667 38.1568 43.7937 38.1926 43.8386Z" fill="#F8F5EE"/>
<path d="M38.8535 44.6272C38.8197 44.618 38.7849 44.5914 38.7509 44.5464C38.7854 44.5553 38.8189 44.5826 38.8535 44.6272Z" fill="#F8F5EE"/>
<path d="M11.6253 6.09613C11.6559 6.10705 11.6899 6.13418 11.7238 6.17953C11.692 6.16927 11.6603 6.1408 11.6253 6.09613Z" fill="#F8F5EE"/>
<path d="M18.4751 24.5917C18.4282 24.1909 18.3667 23.8136 18.3538 23.4347C18.3268 22.6352 18.3287 21.8347 18.3104 21.0348C18.3061 20.8449 18.3696 20.71 18.5016 20.571C19.2066 19.8287 19.8994 19.0748 20.6176 18.3022C20.739 18.3642 20.8626 18.4195 20.9785 18.4878C21.5254 18.8104 22.0679 19.1405 22.617 19.4592C22.7866 19.5576 22.8575 19.6933 22.8869 19.8814C22.9382 20.2102 23.0267 20.5335 23.0741 20.8627C23.1387 21.3109 23.2606 21.7494 23.2266 22.2139C23.1662 23.0385 23.1436 23.8658 23.0949 24.6914C23.0808 24.93 23.1191 25.1449 23.2189 25.3639C23.5936 26.1857 23.9519 27.0149 24.3229 27.8383C24.3705 27.9439 24.446 28.0425 24.5271 28.1264C25.1698 28.7924 25.8175 29.4537 26.4626 30.1174C26.5454 30.2026 26.6223 30.2937 26.7187 30.4005C26.6173 30.5235 26.5303 30.6402 26.4319 30.7464C25.9932 31.2198 25.5513 31.6902 25.1106 32.1617C25.0665 32.2089 25.0257 32.2598 24.9778 32.3027C24.8787 32.3918 24.7863 32.4373 24.6303 32.3931C24.3646 32.3179 24.0845 32.2917 23.8094 32.2525C23.4601 32.2027 23.1107 32.1511 22.7597 32.118C22.4508 32.0889 22.2047 31.9846 21.9992 31.7315C21.6094 31.2514 21.1715 30.8099 20.788 30.3251C20.5737 30.0541 20.419 29.7335 20.2541 29.4263C19.8483 28.6707 19.4457 27.9133 19.0568 27.149C18.9626 26.9638 18.9172 26.7513 18.8661 26.5472C18.8146 26.3414 18.7854 26.1301 18.7441 25.9217C18.6577 25.4858 18.5698 25.0502 18.4751 24.5917ZM20.6069 28.1216C20.8229 28.5285 21.0358 28.9372 21.2564 29.3417C21.3488 29.5112 21.4393 29.6869 21.562 29.8335C21.8813 30.2153 22.2227 30.5783 22.5454 30.9573C22.6939 31.1318 22.8679 31.2082 23.0952 31.2327C23.4903 31.2753 23.8836 31.3427 24.274 31.4188C24.4307 31.4493 24.5466 31.4163 24.6487 31.3075C24.8505 31.0925 25.0512 30.8763 25.2495 30.6582C25.3173 30.5837 25.3766 30.5016 25.4497 30.4108C25.3743 30.3241 25.3123 30.2449 25.2423 30.1735C24.745 29.6673 24.2443 29.1644 23.7496 28.6558C23.6688 28.5727 23.594 28.4744 23.5467 28.3695C23.1097 27.4017 22.6783 26.4315 22.2482 25.4606C22.1577 25.2563 22.1074 25.0481 22.1282 24.8146C22.176 24.2779 22.2147 23.7393 22.2252 23.2009C22.2372 22.5919 22.393 21.9848 22.2243 21.3713C22.1239 21.0058 22.0811 20.6247 21.9962 20.2544C21.9786 20.1777 21.9017 20.0977 21.8308 20.053C21.5807 19.8954 21.3203 19.7543 21.0659 19.6035C20.8139 19.4541 20.8111 19.4485 20.6014 19.6679C20.2575 20.0277 19.9322 20.4063 19.574 20.7509C19.3396 20.9764 19.2434 21.2263 19.2573 21.5416C19.2774 21.9967 19.2863 22.4523 19.2964 22.9078C19.3037 23.2335 19.3023 23.5593 19.3106 23.8849C19.3137 24.0054 19.3249 24.127 19.3474 24.2453C19.401 24.527 19.4685 24.806 19.5211 25.0879C19.5737 25.3702 19.5905 25.6616 19.668 25.9363C19.753 26.2375 19.7512 26.5592 19.9132 26.8435C20.1464 27.2528 20.3573 27.6748 20.6069 28.1216Z" fill="#FF8A01"/>
<path d="M26.9554 28.3923C26.8556 27.9575 26.7656 27.5417 26.6801 27.125C26.5832 26.6529 26.4872 26.1806 26.3966 25.7072C26.339 25.4064 26.2932 25.1033 26.2397 24.8017C26.1894 24.5189 26.1251 24.2382 26.0864 23.9539C26.0372 23.5926 25.8362 23.3004 25.6635 22.9994C25.3452 22.4444 25.0961 21.8619 24.8791 21.2618C24.7349 20.8632 24.5583 20.4764 24.4034 20.0816C24.3671 19.9891 24.3386 19.8842 24.3428 19.7866C24.3604 19.3782 24.3916 18.9703 24.4182 18.5622C24.438 18.257 24.4585 17.9519 24.4802 17.6237C24.7634 17.5627 25.0367 17.6129 25.3094 17.6446C25.4475 17.6607 25.5844 17.6868 25.7224 17.7036C26.3119 17.7751 26.9015 17.8462 27.4914 17.9144C27.6299 17.9304 27.7697 17.9414 27.909 17.9424C28.0732 17.9436 28.1807 18.0145 28.2736 18.1507C28.7462 18.8437 29.2303 19.5288 29.7036 20.2213C29.8534 20.4404 30.0133 20.661 30.1129 20.9037C30.2278 21.1838 30.2812 21.4892 30.3613 21.7836C30.4682 22.1763 30.5819 22.5672 30.6805 22.9619C30.8574 23.6705 31.0881 24.3679 31.0548 25.1166C31.0422 25.4012 31.0843 25.6914 31.1294 25.9746C31.193 26.3732 31.0599 26.7469 31.0105 27.1302C30.9764 27.3948 30.8875 27.6518 30.837 27.9149C30.7812 28.2059 30.7366 28.4992 30.6962 28.7928C30.6736 28.9574 30.6095 29.0951 30.4857 29.2036C29.7234 29.8716 28.9603 30.5389 28.1971 31.206C28.1911 31.2112 28.1792 31.2098 28.1307 31.2188C27.8732 30.7896 27.7237 30.2982 27.5263 29.8303C27.3286 29.3619 27.1527 28.8844 26.9554 28.3923ZM28.2064 29.0088C28.3069 29.2289 28.3288 29.4885 28.5419 29.6927C28.9462 29.3329 29.3411 28.9875 29.7265 28.6319C29.7799 28.5825 29.7971 28.4846 29.8131 28.4056C29.8663 28.142 29.9089 27.8763 29.96 27.6123C30.0249 27.2764 30.1315 26.9437 30.1523 26.6055C30.1813 26.1337 30.1459 25.6581 30.1408 25.1841C30.1333 24.4917 29.9746 23.8283 29.7749 23.1701C29.6298 22.6921 29.4939 22.2105 29.3774 21.7249C29.2835 21.3333 29.1576 20.963 28.8994 20.6474C28.8647 20.605 28.8331 20.5599 28.8017 20.515C28.4635 20.0309 28.1288 19.5443 27.785 19.0643C27.7128 18.9636 27.6467 18.8452 27.4909 18.8311C27.1023 18.7957 26.7146 18.7511 26.3268 18.7071C26.1704 18.6893 26.0152 18.6608 25.8588 18.6422C25.6961 18.6228 25.5317 18.5777 25.3617 18.647C25.3296 18.978 25.2945 19.3 25.2701 19.6228C25.2648 19.6938 25.2902 19.7701 25.314 19.8396C25.3979 20.0841 25.4805 20.3295 25.5762 20.5695C25.7537 21.0143 25.9249 21.4625 26.1272 21.896C26.3143 22.2968 26.5395 22.6798 26.7463 23.0715C26.8273 23.225 26.9159 23.3706 26.9319 23.5559C26.95 23.7663 27.0083 23.9734 27.0504 24.1817C27.1476 24.6626 27.2521 25.142 27.3414 25.6243C27.4375 26.1439 27.5161 26.6667 27.6094 27.1868C27.6518 27.4232 27.6911 27.6632 27.767 27.8898C27.8898 28.256 28.0415 28.6126 28.2064 29.0088Z" fill="#FF8A01"/>
<path d="M20.5923 28.1065C20.3573 27.6748 20.1464 27.2528 19.9132 26.8435C19.7512 26.5592 19.753 26.2375 19.668 25.9363C19.5905 25.6616 19.5737 25.3702 19.5211 25.0879C19.4685 24.806 19.401 24.527 19.3474 24.2453C19.3249 24.127 19.3137 24.0054 19.3106 23.8849C19.3023 23.5593 19.3037 23.2335 19.2964 22.9078C19.2863 22.4523 19.2774 21.9967 19.2573 21.5416C19.2434 21.2263 19.3396 20.9764 19.574 20.7509C19.9322 20.4063 20.2575 20.0277 20.6014 19.6679C20.8111 19.4485 20.8139 19.4541 21.0659 19.6035C21.3203 19.7543 21.5807 19.8954 21.8308 20.053C21.9017 20.0977 21.9786 20.1777 21.9962 20.2544C22.0811 20.6247 22.1239 21.0058 22.2243 21.3713C22.393 21.9848 22.2372 22.5919 22.2252 23.2009C22.2147 23.7393 22.176 24.2779 22.1282 24.8146C22.1074 25.0481 22.1577 25.2563 22.2482 25.4606C22.6783 26.4315 23.1097 27.4017 23.5467 28.3695C23.594 28.4744 23.6688 28.5727 23.7496 28.6558C24.2443 29.1644 24.745 29.6673 25.2423 30.1735C25.3123 30.2449 25.3743 30.3241 25.4497 30.4108C25.3766 30.5016 25.3173 30.5837 25.2495 30.6582C25.0512 30.8763 24.8505 31.0925 24.6487 31.3075C24.5466 31.4163 24.4307 31.4493 24.274 31.4188C23.8836 31.3427 23.4903 31.2753 23.0952 31.2327C22.8679 31.2082 22.6939 31.1318 22.5454 30.9573C22.2227 30.5783 21.8813 30.2153 21.562 29.8335C21.4393 29.6869 21.3488 29.5112 21.2564 29.3417C21.0358 28.9372 20.8229 28.5285 20.5923 28.1065Z" fill="#F8F5ED"/>
<path d="M28.1937 28.991C28.0416 28.6126 27.8898 28.256 27.767 27.8898C27.6911 27.6632 27.6518 27.4232 27.6094 27.1868C27.5161 26.6667 27.4375 26.1439 27.3414 25.6243C27.2521 25.142 27.1476 24.6626 27.0504 24.1817C27.0083 23.9734 26.95 23.7663 26.9319 23.5559C26.9159 23.3706 26.8273 23.225 26.7463 23.0715C26.5395 22.6798 26.3143 22.2968 26.1272 21.896C25.9249 21.4625 25.7537 21.0143 25.5762 20.5695C25.4805 20.3295 25.3979 20.0841 25.314 19.8396C25.2902 19.7701 25.2648 19.6938 25.2701 19.6228C25.2945 19.3 25.3296 18.978 25.3617 18.647C25.5317 18.5777 25.6961 18.6228 25.8588 18.6422C26.0152 18.6608 26.1704 18.6893 26.3268 18.7071C26.7146 18.7511 27.1023 18.7957 27.4909 18.8311C27.6467 18.8452 27.7128 18.9636 27.785 19.0643C28.1288 19.5443 28.4635 20.0309 28.8017 20.515C28.8331 20.5599 28.8647 20.605 28.8994 20.6474C29.1576 20.963 29.2835 21.3333 29.3774 21.7249C29.4939 22.2105 29.6298 22.6921 29.7749 23.1701C29.9746 23.8283 30.1333 24.4917 30.1408 25.1841C30.1459 25.6581 30.1813 26.1337 30.1523 26.6055C30.1315 26.9437 30.0249 27.2764 29.96 27.6123C29.9089 27.8763 29.8663 28.142 29.8131 28.4056C29.7971 28.4846 29.7799 28.5825 29.7265 28.6319C29.3411 28.9875 28.9462 29.3329 28.5419 29.6927C28.3288 29.4885 28.3069 29.2289 28.1937 28.991Z" fill="#F8F5ED"/>
<path d="M77.4018 2.30399C82.1118 2.26078 86.6922 2.47684 91.143 2.95216C91.2294 4.37813 91.251 6.02017 91.2078 7.87826C91.2078 9.73634 91.0998 11.4432 90.8837 12.9988C90.0627 12.826 89.0473 12.7611 87.8373 12.8043C86.6274 12.8476 85.007 12.9124 82.9761 12.9988H82.7816C82.7816 13.042 82.76 13.0852 82.7168 13.1284C82.7168 13.1284 82.7168 13.15 82.7168 13.1933C82.6736 13.4093 82.6304 13.755 82.5872 14.2303C82.5872 14.6624 82.5872 15.3754 82.5872 16.3693C82.5872 17.3199 82.5872 18.5947 82.5872 20.1935C82.6304 21.7491 82.6736 23.78 82.7168 26.2863C82.76 28.7493 82.8032 31.7309 82.8464 35.231C82.8896 38.688 82.9545 42.7714 83.0409 47.4815V47.6111C82.2631 47.7407 81.3988 47.8272 80.4482 47.8704C79.5408 47.8704 78.6117 47.8704 77.6611 47.8704C76.7536 47.8704 75.8462 47.8704 74.9388 47.8704C74.0313 47.8704 73.1887 47.9352 72.4109 48.0648C72.3677 47.892 72.3677 47.1142 72.4109 45.7314C72.4541 44.3486 72.4757 42.2961 72.4757 39.5738C72.5189 36.8083 72.4973 33.2865 72.4109 29.0086C72.3677 24.7307 72.2164 19.5669 71.9572 13.5173L71.8923 13.4525C71.3738 13.1933 70.7256 13.042 69.9478 12.9988C69.17 12.9124 68.3922 12.8692 67.6144 12.8692C66.8366 12.826 66.1236 12.8043 65.4755 12.8043C64.8273 12.8043 64.3736 12.7611 64.1143 12.6747C64.0279 12.5019 63.9415 12.0698 63.855 11.3784C63.8118 10.687 63.7686 9.86598 63.7254 8.91533C63.7254 7.92147 63.7254 6.86279 63.7254 5.73929C63.7254 4.6158 63.7686 3.53551 63.855 2.49844C63.855 2.45523 63.8334 2.43363 63.7902 2.43363C63.7902 2.43363 63.7902 2.41202 63.7902 2.36881C68.1978 2.3256 72.735 2.30399 77.4018 2.30399Z" fill="white"/>
<path d="M124.482 8.20234C124.353 9.97401 124.309 11.6809 124.353 13.3229V13.3877C121.846 17.6224 119.124 21.7707 116.186 25.8326C113.247 29.8944 110.417 34.0211 107.695 38.2126L107.63 38.2774C109.358 38.0614 110.827 37.9101 112.037 37.8237C113.291 37.7373 114.479 37.6941 115.602 37.6941C116.769 37.6509 117.979 37.6293 119.232 37.6293C120.528 37.5861 122.106 37.5212 123.964 37.4348V37.6293C124.18 39.2713 124.245 41.0214 124.158 42.8795C124.072 44.7375 123.964 46.4444 123.834 48V48.1296C119.729 47.9136 115.429 47.7839 110.935 47.7407C106.485 47.6975 101.948 47.8055 97.3239 48.0648C97.0646 47.287 96.9134 46.4876 96.8702 45.6666C96.827 44.8024 96.8054 43.9381 96.8054 43.0739C96.8054 42.1665 96.8054 41.2806 96.8054 40.4164C96.8486 39.509 96.827 38.6015 96.7406 37.6941C97.6912 35.5767 98.8147 33.4594 100.111 31.342C101.407 29.2247 102.769 27.1289 104.195 25.0548C105.664 22.9806 107.111 20.9497 108.537 18.962C110.006 16.9742 111.368 15.0946 112.621 13.3229C111.627 13.1933 110.395 13.0852 108.926 12.9988C107.5 12.9124 106.031 12.8476 104.519 12.8043C103.006 12.7179 101.559 12.6531 100.176 12.6099C98.8363 12.5235 97.7776 12.4803 96.9998 12.4803C96.7406 12.0482 96.5893 11.4648 96.5461 10.7302C96.5029 9.99561 96.4813 9.21781 96.4813 8.39679C96.4813 7.57578 96.4597 6.75476 96.4165 5.93374C96.4165 5.06952 96.3084 4.29171 96.0924 3.60033V3.53551C96.0924 3.44909 96.0492 3.36267 95.9628 3.27624C100.414 2.84413 105.016 2.69289 109.769 2.82253C114.522 2.90895 119.383 2.97377 124.353 3.01698C124.569 4.70222 124.612 6.43068 124.482 8.20234Z" fill="white"/>
<path d="M150.515 39.1201C153.28 39.2497 156.132 39.2713 159.071 39.1849V39.3145C159.157 40.6973 159.179 42.1449 159.136 43.6573C159.092 45.1264 158.898 46.5092 158.552 47.8055C154.145 47.7623 149.651 47.8272 145.07 48C140.533 48.1296 136.169 48.0216 131.977 47.6759C131.977 43.9165 131.934 40.2004 131.848 36.5274C131.761 32.8112 131.696 29.1166 131.653 25.4437C131.61 21.7707 131.61 18.0977 131.653 14.4248C131.696 10.7518 131.826 7.05724 132.042 3.34106C133.727 3.25464 135.542 3.18982 137.487 3.14661C139.474 3.06019 141.462 2.99537 143.45 2.95216C145.438 2.90895 147.36 2.86574 149.219 2.82253C151.077 2.77932 152.719 2.75771 154.145 2.75771C155.571 2.75771 156.716 2.77932 157.58 2.82253C158.444 2.86574 158.876 2.90895 158.876 2.95216C159.092 4.46456 159.136 5.99856 159.006 7.55417C158.92 9.10978 158.876 10.6438 158.876 12.1562V12.221C157.494 12.5235 156.089 12.7179 154.663 12.8043C153.28 12.8476 151.876 12.8692 150.45 12.8692C149.024 12.826 147.598 12.8043 146.172 12.8043C144.746 12.8043 143.32 12.8692 141.894 12.9988H141.7L141.635 13.0636C141.678 14.3167 141.613 15.6131 141.441 16.9526C141.311 18.249 141.397 19.4805 141.7 20.6472L141.765 20.712C143.061 20.7984 144.379 20.8417 145.718 20.8417C147.058 20.8417 148.398 20.8633 149.737 20.9065V20.9713C149.953 22.4405 150.018 23.9097 149.932 25.3789C149.845 26.848 149.824 28.382 149.867 29.9809C149.219 30.1537 148.484 30.2617 147.663 30.305C146.842 30.305 146.043 30.305 145.265 30.305C144.53 30.305 143.86 30.3266 143.255 30.3698C142.65 30.413 142.24 30.521 142.024 30.6939C141.808 31.947 141.721 33.3514 141.765 34.907C141.851 36.4626 141.937 37.7589 142.024 38.796L142.089 38.8608C144.941 38.8608 147.749 38.9472 150.515 39.1201Z" fill="white"/>
<path d="M177.443 12.1562C176.838 12.2858 176.363 12.5235 176.017 12.8692C175.93 12.9556 175.844 13.1068 175.758 13.3229C175.714 13.4957 175.671 13.6254 175.628 13.7118C175.542 13.8414 175.455 14.5976 175.369 15.9804C175.325 17.3631 175.282 19.0052 175.239 20.9065C175.196 22.8078 175.174 24.7955 175.174 26.8696C175.174 28.9006 175.239 30.6722 175.369 32.1846C175.498 33.4378 175.822 34.6693 176.341 35.8792C176.903 37.0459 177.81 37.8021 179.063 38.1478C180.014 38.2342 180.9 38.1046 181.721 37.7589C182.585 37.37 183.233 36.7434 183.665 35.8792C184.141 34.8854 184.335 33.8483 184.249 32.768C184.205 31.6445 184.292 30.5426 184.508 29.4623C185.113 29.5488 185.783 29.5704 186.517 29.5271C187.295 29.4839 188.073 29.4623 188.851 29.4623C189.628 29.4623 190.385 29.4839 191.119 29.5271C191.897 29.5704 192.588 29.6784 193.193 29.8512C193.928 32.0982 194.122 34.3452 193.777 36.5922C193.431 38.796 192.675 40.7837 191.508 42.5554C190.341 44.327 188.807 45.7962 186.906 46.9629C185.048 48.0864 182.931 48.6698 180.554 48.713C178.998 48.929 177.4 48.929 175.758 48.713C174.116 48.5401 172.582 48.1296 171.156 47.4815C169.73 46.7901 168.52 45.8394 167.526 44.6295C166.575 43.4196 166.013 41.9072 165.841 40.0923C165.754 38.5367 165.689 36.9163 165.646 35.231C165.603 33.5458 165.56 31.6661 165.516 29.592C165.516 27.4746 165.516 25.098 165.516 22.4621C165.56 19.783 165.603 16.6934 165.646 13.1933C165.56 12.4587 165.581 11.7241 165.711 10.9895C165.884 10.2117 166.1 9.49868 166.359 8.85051C166.748 7.72701 167.223 6.68994 167.785 5.73929C168.39 4.78864 169.103 3.94602 169.924 3.21143C170.399 2.86574 170.918 2.58486 171.48 2.36881C172.041 2.10954 172.625 1.89348 173.23 1.72064C175.217 1.07247 177.184 0.813199 179.128 0.942834C181.073 1.07247 182.887 1.52618 184.573 2.30399C186.301 3.03858 187.857 4.03244 189.24 5.28557C190.622 6.5387 191.724 7.98628 192.545 9.62832C193.366 11.2271 193.863 12.9772 194.036 14.8785C194.209 16.7798 193.95 18.7243 193.258 20.712C191.659 21.0577 190.082 21.1874 188.527 21.1009C187.014 20.9713 185.437 20.7552 183.795 20.4528C183.665 19.6317 183.579 18.7027 183.536 17.6656C183.536 16.6286 183.428 15.6779 183.212 14.8137C182.995 13.9062 182.585 13.1716 181.98 12.6099C181.418 12.0482 180.511 11.7889 179.258 11.8321C178.696 11.9185 178.091 12.0265 177.443 12.1562Z" fill="white"/>
<path d="M211.655 25.3319C212.718 25.3222 213.751 25.3709 214.755 25.4781C214.775 25.7998 214.779 26.1702 214.77 26.5893C214.77 27.0085 214.745 27.3935 214.697 27.7444C214.511 27.7054 214.282 27.6908 214.009 27.7005C213.737 27.7103 213.371 27.7249 212.913 27.7444H212.869C212.869 27.7541 212.864 27.7639 212.854 27.7736C212.854 27.7736 212.854 27.7785 212.854 27.7882C212.845 27.837 212.835 27.9149 212.825 28.0222C212.825 28.1196 212.825 28.2805 212.825 28.5046C212.825 28.7191 212.825 29.0066 212.825 29.3673C212.835 29.7182 212.845 30.1763 212.854 30.7416C212.864 31.2972 212.874 31.9698 212.884 32.7593C212.893 33.5391 212.908 34.4602 212.928 35.5226V35.5519C212.752 35.5811 212.557 35.6006 212.343 35.6103C212.138 35.6103 211.928 35.6103 211.714 35.6103C211.509 35.6103 211.305 35.6103 211.1 35.6103C210.895 35.6103 210.705 35.625 210.53 35.6542C210.52 35.6152 210.52 35.4398 210.53 35.1279C210.539 34.8159 210.544 34.353 210.544 33.7389C210.554 33.1151 210.549 32.3207 210.53 31.3557C210.52 30.3907 210.486 29.2259 210.427 27.8613L210.413 27.8467C210.296 27.7882 210.15 27.7541 209.974 27.7444C209.799 27.7249 209.623 27.7151 209.448 27.7151C209.272 27.7054 209.111 27.7005 208.965 27.7005C208.819 27.7005 208.717 27.6908 208.658 27.6713C208.639 27.6323 208.619 27.5348 208.6 27.3788C208.59 27.2229 208.58 27.0377 208.571 26.8233C208.571 26.5991 208.571 26.3603 208.571 26.1068C208.571 25.8534 208.58 25.6097 208.6 25.3758C208.6 25.3661 208.595 25.3612 208.585 25.3612C208.585 25.3612 208.585 25.3563 208.585 25.3466C209.579 25.3368 210.603 25.3319 211.655 25.3319Z" fill="white"/>
<path d="M217.559 32.0136C217.344 32.0039 217.188 31.9893 217.091 31.9698V32.2329C217.1 32.5254 217.11 32.7642 217.12 32.9494C217.139 33.1346 217.203 33.3149 217.31 33.4903C217.427 33.7145 217.593 33.8802 217.807 33.9874C218.022 34.0947 218.231 34.1288 218.436 34.0898C218.64 34.0508 218.811 33.9338 218.947 33.7389C219.094 33.5342 219.157 33.232 219.138 32.8324C219.235 32.8421 219.367 32.847 219.532 32.847C219.698 32.8373 219.869 32.8275 220.044 32.8178C220.229 32.808 220.405 32.808 220.57 32.8178C220.736 32.8178 220.873 32.8324 220.98 32.8616C220.96 33.1151 220.941 33.3636 220.921 33.6073C220.902 33.851 220.877 34.08 220.848 34.2945C220.819 34.4992 220.78 34.6795 220.731 34.8354C220.692 34.9816 220.639 35.084 220.57 35.1425C220.405 35.3764 220.19 35.5421 219.927 35.6396C219.664 35.7371 219.376 35.7955 219.064 35.815C218.753 35.8345 218.431 35.8345 218.099 35.815C217.778 35.7955 217.481 35.7858 217.208 35.7858C216.935 35.7468 216.681 35.6591 216.447 35.5226C216.184 35.3374 215.965 35.0986 215.789 34.8062C215.614 34.504 215.473 34.1775 215.365 33.8266C215.258 33.466 215.185 33.0858 215.146 32.6862C215.107 32.2866 215.097 31.8869 215.117 31.4873C215.146 31.1266 215.175 30.7806 215.205 30.4492C215.244 30.1081 215.322 29.7767 215.439 29.455C215.565 29.1723 215.76 28.9335 216.023 28.7386C216.287 28.5339 216.584 28.3828 216.915 28.2853C217.247 28.1781 217.598 28.1196 217.968 28.1099C218.338 28.1001 218.699 28.1391 219.05 28.2269C219.498 28.3048 219.859 28.4608 220.132 28.6947C220.405 28.9286 220.609 29.2113 220.746 29.5427C220.892 29.8741 220.98 30.2396 221.009 30.6393C221.038 31.0389 221.038 31.4434 221.009 31.8528C220.941 31.8723 220.809 31.8918 220.614 31.9113C220.429 31.9308 220.205 31.9503 219.942 31.9698C219.688 31.9893 219.415 32.0039 219.123 32.0136C218.831 32.0234 218.548 32.0283 218.275 32.0283C218.012 32.0283 217.773 32.0234 217.559 32.0136ZM219.269 30.0983C219.172 29.9229 219.035 29.7913 218.86 29.7036C218.782 29.6548 218.704 29.6207 218.626 29.6012C218.548 29.572 218.455 29.5573 218.348 29.5573C218.114 29.5573 217.924 29.5817 217.778 29.6304C217.632 29.6792 217.515 29.7474 217.427 29.8351C217.339 29.9229 217.271 30.0252 217.222 30.1422C217.183 30.2591 217.154 30.381 217.135 30.5077C217.115 30.6149 217.105 30.6929 217.105 30.7416C217.115 30.7806 217.164 30.8099 217.251 30.8293C217.339 30.8391 217.476 30.844 217.661 30.844C217.856 30.8342 218.138 30.8293 218.509 30.8293C218.762 30.8293 218.952 30.8342 219.079 30.844C219.206 30.8537 219.294 30.8586 219.342 30.8586C219.401 30.8488 219.43 30.8342 219.43 30.8147C219.43 30.7855 219.43 30.7319 219.43 30.6539C219.43 30.459 219.376 30.2738 219.269 30.0983Z" fill="white"/>
<path d="M228.12 29.1626C228.315 29.5817 228.412 30.0544 228.412 30.5808C228.1 30.6295 227.754 30.6588 227.374 30.6685C227.004 30.6783 226.653 30.649 226.321 30.5808C226.351 30.4638 226.336 30.3469 226.277 30.2299C226.229 30.1129 226.151 30.0106 226.043 29.9229C225.946 29.8351 225.829 29.7718 225.693 29.7328C225.566 29.6841 225.439 29.6646 225.312 29.6743C225.088 29.7133 224.918 29.801 224.801 29.9375C224.693 30.0642 224.64 30.2055 224.64 30.3615C224.64 30.5174 224.698 30.6734 224.815 30.8293C224.932 30.9853 225.103 31.1023 225.327 31.1802C225.873 31.2582 226.385 31.3654 226.862 31.5019C227.34 31.6286 227.691 31.8382 227.915 32.1306C228.129 32.4815 228.261 32.8421 228.31 33.2125C228.358 33.5732 228.29 34.0216 228.105 34.5576C227.881 35.0353 227.53 35.3764 227.052 35.5811C226.575 35.7858 226.053 35.8833 225.488 35.8735C224.991 35.893 224.542 35.8491 224.143 35.7419C223.743 35.6347 223.397 35.4739 223.105 35.2594C222.822 35.045 222.598 34.7818 222.432 34.4699C222.276 34.158 222.198 33.8071 222.198 33.4172V33.3441C222.52 33.3051 222.885 33.2954 223.295 33.3149C223.704 33.3246 224.06 33.3295 224.362 33.3295C224.372 33.5537 224.474 33.7389 224.669 33.8851C224.874 34.0216 225.088 34.1044 225.312 34.1336C225.537 34.1531 225.741 34.1093 225.927 34.0021C226.112 33.8948 226.199 33.6999 226.19 33.4172C226.219 33.1833 226.165 33.0078 226.029 32.8909C225.892 32.7739 225.712 32.6862 225.488 32.6277C225.264 32.5595 225.01 32.501 224.728 32.4523C224.445 32.4035 224.167 32.3207 223.894 32.2037C223.348 32.0185 222.949 31.731 222.695 31.3411C222.452 30.9414 222.335 30.5321 222.344 30.1129C222.364 29.6841 222.5 29.2893 222.754 28.9286C223.017 28.568 223.387 28.3243 223.865 28.1976C224.05 28.1489 224.274 28.1099 224.538 28.0806C224.81 28.0514 225.098 28.0368 225.4 28.0368C225.702 28.0368 226.004 28.0563 226.307 28.0953C226.609 28.1245 226.887 28.1684 227.14 28.2269C227.598 28.4218 227.925 28.7337 228.12 29.1626Z" fill="white"/>
<path d="M229.877 29.4111C229.935 29.2259 229.979 29.0797 230.009 28.9725C230.077 28.8263 230.184 28.6996 230.33 28.5924C230.486 28.4852 230.662 28.3974 230.857 28.3292C231.061 28.2512 231.276 28.1976 231.5 28.1684C231.734 28.1391 231.968 28.1245 232.202 28.1245C232.397 28.144 232.582 28.1489 232.757 28.1391C232.942 28.1196 233.137 28.1196 233.342 28.1391C233.654 28.1586 233.951 28.222 234.234 28.3292C234.517 28.4267 234.76 28.5729 234.965 28.7678C235.101 28.8555 235.209 28.9969 235.287 29.1918C235.365 29.3868 235.423 29.6158 235.462 29.879C235.501 30.1324 235.525 30.4151 235.535 30.727C235.545 31.0292 235.555 31.3411 235.564 31.6627C235.555 31.9454 235.54 32.2671 235.521 32.6277C235.511 32.9884 235.486 33.3344 235.447 33.6658C235.418 33.9972 235.374 34.2945 235.316 34.5576C235.267 34.8208 235.194 35.0011 235.097 35.0986C234.931 35.3325 234.712 35.4983 234.439 35.5957C234.175 35.6932 233.888 35.7517 233.576 35.7712C233.264 35.8004 232.942 35.8004 232.611 35.7712C232.28 35.7517 231.977 35.7419 231.705 35.7419C231.207 35.6542 230.788 35.4398 230.447 35.0986C230.184 34.8647 230.004 34.5723 229.906 34.2214C229.809 33.8705 229.75 33.5049 229.731 33.1248C229.711 32.7349 229.706 32.345 229.716 31.9551C229.736 31.5653 229.731 31.2095 229.702 30.8878C229.702 30.7124 229.706 30.5418 229.716 30.3761C229.726 30.2007 229.745 30.0203 229.775 29.8351C229.784 29.7279 229.818 29.5866 229.877 29.4111ZM232.333 30.3761C232.129 30.4346 231.963 30.5418 231.836 30.6978C231.778 30.7368 231.734 30.8342 231.705 30.9902C231.666 31.3021 231.646 31.614 231.646 31.9259C231.646 32.2281 231.636 32.5497 231.617 32.8909C231.607 33.1151 231.666 33.2905 231.792 33.4172C231.919 33.5342 232.07 33.617 232.246 33.6658C232.431 33.7048 232.621 33.7145 232.816 33.695C233.011 33.6658 233.172 33.617 233.298 33.5488C233.464 33.4708 233.576 33.31 233.635 33.0663C233.673 32.7544 233.703 32.4425 233.722 32.1306C233.751 31.8089 233.737 31.5068 233.678 31.2241C233.63 30.883 233.488 30.6344 233.254 30.4785C233.02 30.3225 232.713 30.2884 232.333 30.3761Z" fill="white"/>
<path d="M240.744 35.2156C240.753 35.1084 240.753 34.9865 240.744 34.8501C240.695 34.8793 240.632 34.9134 240.554 34.9524C240.485 34.9914 240.427 35.0304 240.378 35.0694C240.174 35.2156 239.944 35.3325 239.691 35.4203C239.438 35.508 239.174 35.5567 238.902 35.5665C238.638 35.5762 238.38 35.547 238.127 35.4788C237.873 35.4105 237.644 35.2887 237.439 35.1132C237.342 35.0255 237.264 34.8452 237.206 34.5723C237.157 34.2896 237.123 33.9533 237.103 33.5634C237.093 33.1735 237.089 32.7495 237.089 32.2914C237.098 31.8236 237.108 31.3557 237.118 30.8878C237.128 30.4102 237.137 29.9521 237.147 29.5135C237.157 29.0749 237.152 28.6898 237.132 28.3584C237.474 28.3097 237.776 28.2902 238.039 28.3C238.312 28.3 238.619 28.3 238.96 28.3C238.98 28.5241 238.989 28.7776 238.989 29.0602C238.989 29.3429 238.984 29.6353 238.975 29.9375C238.975 30.2396 238.975 30.5418 238.975 30.844C238.984 31.1461 238.999 31.4288 239.018 31.692C239.028 31.8089 239.038 31.9405 239.048 32.0867C239.057 32.2232 239.072 32.3597 239.092 32.4961C239.121 32.6326 239.155 32.7544 239.194 32.8616C239.243 32.9689 239.306 33.0517 239.384 33.1102C239.394 33.1199 239.404 33.1248 239.413 33.1248C239.423 33.1248 239.433 33.1297 239.442 33.1394C239.52 33.1784 239.633 33.2125 239.779 33.2418C239.935 33.2613 240.086 33.2515 240.232 33.2125C240.378 33.1638 240.51 33.0761 240.627 32.9494C240.744 32.8129 240.812 32.6131 240.831 32.3499C240.851 32.0185 240.856 31.6871 240.846 31.3557C240.836 31.0243 240.822 30.6978 240.802 30.3761C240.792 30.0447 240.783 29.7182 240.773 29.3965C240.773 29.0749 240.797 28.7532 240.846 28.4315V28.3731C241.012 28.3243 241.153 28.2951 241.27 28.2853C241.397 28.2756 241.524 28.2756 241.65 28.2853C241.777 28.2853 241.918 28.2902 242.074 28.3C242.23 28.3097 242.425 28.3048 242.659 28.2853C242.659 29.4842 242.669 30.6831 242.688 31.882C242.718 33.0809 242.713 34.3237 242.674 35.6103C242.557 35.6006 242.459 35.5957 242.381 35.5957C242.303 35.586 242.23 35.5811 242.162 35.5811C242.094 35.5811 242.021 35.586 241.943 35.5957C241.865 35.5957 241.767 35.6006 241.65 35.6103C241.611 35.6103 241.543 35.6201 241.446 35.6396C241.348 35.6493 241.251 35.6591 241.153 35.6688C241.056 35.6786 240.968 35.6786 240.89 35.6688C240.812 35.6688 240.773 35.6542 240.773 35.625C240.753 35.4593 240.744 35.3228 240.744 35.2156Z" fill="white"/>
<path d="M246.463 28.6947C246.473 28.724 246.478 28.7727 246.478 28.8409C246.517 28.8214 246.605 28.7824 246.741 28.724C246.887 28.6655 247.029 28.6119 247.165 28.5631C247.35 28.5046 247.56 28.4608 247.794 28.4315C248.028 28.3926 248.247 28.3682 248.452 28.3584C248.656 28.3487 248.827 28.3487 248.963 28.3584C249.11 28.3584 249.183 28.3633 249.183 28.3731C249.183 28.7045 249.178 28.9969 249.168 29.2503C249.168 29.5037 249.168 29.7328 249.168 29.9375C249.168 30.1324 249.168 30.3127 249.168 30.4785C249.168 30.6442 249.173 30.8001 249.183 30.9463L249.051 30.9025C249.002 30.883 248.949 30.8683 248.89 30.8586C248.842 30.8391 248.793 30.8196 248.744 30.8001C248.627 30.7709 248.505 30.7465 248.379 30.727C248.262 30.7075 248.198 30.6978 248.189 30.6978C247.925 30.6685 247.682 30.6539 247.458 30.6539C247.243 30.6539 247.053 30.688 246.887 30.7562C246.731 30.8245 246.61 30.9317 246.522 31.0779C246.434 31.2241 246.395 31.4337 246.405 31.7066C246.415 32.0477 246.424 32.3694 246.434 32.6716C246.444 32.9737 246.449 33.2808 246.449 33.5927C246.449 33.8948 246.449 34.2067 246.449 34.5284C246.458 34.8403 246.463 35.1766 246.463 35.5372V35.5957C246.298 35.6445 246.147 35.6737 246.01 35.6834C245.874 35.6932 245.732 35.6932 245.586 35.6834C245.44 35.6834 245.279 35.6786 245.104 35.6688C244.938 35.6591 244.738 35.664 244.504 35.6834C244.504 34.4845 244.49 33.2856 244.46 32.0867C244.441 30.8878 244.451 29.6451 244.49 28.3584C244.606 28.3682 244.704 28.3779 244.782 28.3877C244.86 28.3877 244.933 28.3877 245.001 28.3877C245.069 28.3877 245.143 28.3877 245.221 28.3877C245.299 28.3779 245.396 28.3682 245.513 28.3584C245.552 28.3584 245.62 28.3536 245.718 28.3438C245.825 28.3341 245.932 28.3243 246.039 28.3146C246.156 28.3048 246.254 28.3048 246.332 28.3146C246.419 28.3146 246.463 28.3243 246.463 28.3438C246.463 28.4218 246.463 28.4803 246.463 28.5193C246.463 28.5583 246.463 28.5924 246.463 28.6216C246.463 28.6411 246.463 28.6655 246.463 28.6947Z" fill="white"/>
<path d="M250.589 29.4111C250.647 29.2259 250.691 29.0797 250.72 28.9725C250.789 28.8263 250.896 28.6996 251.042 28.5924C251.198 28.4852 251.373 28.3974 251.568 28.3292C251.773 28.2512 251.988 28.1976 252.212 28.1684C252.446 28.1391 252.68 28.1245 252.913 28.1245C253.108 28.144 253.294 28.1489 253.469 28.1391C253.654 28.1196 253.849 28.1196 254.054 28.1391C254.366 28.1586 254.663 28.222 254.946 28.3292C255.228 28.4267 255.472 28.5729 255.677 28.7678C255.813 28.8555 255.92 28.9969 255.998 29.1918C256.076 29.3868 256.135 29.6158 256.174 29.879C256.213 30.1324 256.237 30.4151 256.247 30.727C256.257 31.0292 256.266 31.3411 256.276 31.6627C256.266 31.9454 256.252 32.2671 256.232 32.6277C256.223 32.9884 256.198 33.3344 256.159 33.6658C256.13 33.9972 256.086 34.2945 256.028 34.5576C255.979 34.8208 255.906 35.0011 255.808 35.0986C255.643 35.3325 255.423 35.4983 255.15 35.5957C254.887 35.6932 254.6 35.7517 254.288 35.7712C253.976 35.8004 253.654 35.8004 253.323 35.7712C252.991 35.7517 252.689 35.7419 252.416 35.7419C251.919 35.6542 251.5 35.4398 251.159 35.0986C250.896 34.8647 250.715 34.5723 250.618 34.2214C250.521 33.8705 250.462 33.5049 250.443 33.1248C250.423 32.7349 250.418 32.345 250.428 31.9551C250.447 31.5653 250.443 31.2095 250.413 30.8878C250.413 30.7124 250.418 30.5418 250.428 30.3761C250.438 30.2007 250.457 30.0203 250.486 29.8351C250.496 29.7279 250.53 29.5866 250.589 29.4111ZM253.045 30.3761C252.84 30.4346 252.675 30.5418 252.548 30.6978C252.489 30.7368 252.446 30.8342 252.416 30.9902C252.377 31.3021 252.358 31.614 252.358 31.9259C252.358 32.2281 252.348 32.5497 252.329 32.8909C252.319 33.1151 252.377 33.2905 252.504 33.4172C252.631 33.5342 252.782 33.617 252.957 33.6658C253.143 33.7048 253.333 33.7145 253.528 33.695C253.723 33.6658 253.883 33.617 254.01 33.5488C254.176 33.4708 254.288 33.31 254.346 33.0663C254.385 32.7544 254.415 32.4425 254.434 32.1306C254.463 31.8089 254.449 31.5068 254.39 31.2241C254.341 30.883 254.2 30.6344 253.966 30.4785C253.732 30.3225 253.425 30.2884 253.045 30.3761Z" fill="white"/>
<path d="M263.429 29.1626C263.624 29.5817 263.722 30.0544 263.722 30.5808C263.41 30.6295 263.064 30.6588 262.684 30.6685C262.313 30.6783 261.962 30.649 261.631 30.5808C261.66 30.4638 261.646 30.3469 261.587 30.2299C261.538 30.1129 261.46 30.0106 261.353 29.9229C261.256 29.8351 261.139 29.7718 261.002 29.7328C260.876 29.6841 260.749 29.6646 260.622 29.6743C260.398 29.7133 260.227 29.801 260.11 29.9375C260.003 30.0642 259.95 30.2055 259.95 30.3615C259.95 30.5174 260.008 30.6734 260.125 30.8293C260.242 30.9853 260.413 31.1023 260.637 31.1802C261.183 31.2582 261.694 31.3654 262.172 31.5019C262.65 31.6286 263 31.8382 263.225 32.1306C263.439 32.4815 263.571 32.8421 263.619 33.2125C263.668 33.5732 263.6 34.0216 263.415 34.5576C263.191 35.0353 262.84 35.3764 262.362 35.5811C261.884 35.7858 261.363 35.8833 260.798 35.8735C260.301 35.893 259.852 35.8491 259.453 35.7419C259.053 35.6347 258.707 35.4739 258.414 35.2594C258.132 35.045 257.908 34.7818 257.742 34.4699C257.586 34.158 257.508 33.8071 257.508 33.4172V33.3441C257.83 33.3051 258.195 33.2954 258.604 33.3149C259.014 33.3246 259.37 33.3295 259.672 33.3295C259.682 33.5537 259.784 33.7389 259.979 33.8851C260.184 34.0216 260.398 34.1044 260.622 34.1336C260.846 34.1531 261.051 34.1093 261.236 34.0021C261.421 33.8948 261.509 33.6999 261.499 33.4172C261.529 33.1833 261.475 33.0078 261.339 32.8909C261.202 32.7739 261.022 32.6862 260.798 32.6277C260.573 32.5595 260.32 32.501 260.037 32.4523C259.755 32.4035 259.477 32.3207 259.204 32.2037C258.658 32.0185 258.258 31.731 258.005 31.3411C257.761 30.9414 257.644 30.5321 257.654 30.1129C257.674 29.6841 257.81 29.2893 258.064 28.9286C258.327 28.568 258.697 28.3243 259.175 28.1976C259.36 28.1489 259.584 28.1099 259.847 28.0806C260.12 28.0514 260.408 28.0368 260.71 28.0368C261.012 28.0368 261.314 28.0563 261.616 28.0953C261.919 28.1245 262.196 28.1684 262.45 28.2269C262.908 28.4218 263.234 28.7337 263.429 29.1626Z" fill="white"/>
<path d="M213.278 45.6365C213.902 45.6658 214.546 45.6707 215.208 45.6512V45.6804C215.228 45.9923 215.233 46.3188 215.223 46.66C215.213 46.9914 215.169 47.3033 215.091 47.5957C214.097 47.586 213.083 47.6006 212.05 47.6396C211.027 47.6688 210.042 47.6445 209.097 47.5665C209.097 46.7185 209.087 45.8802 209.068 45.0517C209.048 44.2135 209.034 43.3801 209.024 42.5516C209.014 41.723 209.014 40.8945 209.024 40.066C209.034 39.2375 209.063 38.4041 209.111 37.5659C209.492 37.5464 209.901 37.5318 210.34 37.522C210.788 37.5025 211.236 37.4879 211.685 37.4781C212.133 37.4684 212.567 37.4587 212.986 37.4489C213.405 37.4392 213.776 37.4343 214.097 37.4343C214.419 37.4343 214.677 37.4392 214.872 37.4489C215.067 37.4587 215.164 37.4684 215.164 37.4781C215.213 37.8193 215.223 38.1653 215.194 38.5162C215.174 38.8671 215.164 39.2131 215.164 39.5543V39.5689C214.853 39.6371 214.536 39.681 214.214 39.7005C213.902 39.7103 213.585 39.7151 213.264 39.7151C212.942 39.7054 212.62 39.7005 212.299 39.7005C211.977 39.7005 211.655 39.7151 211.334 39.7444H211.29L211.275 39.759C211.285 40.0417 211.27 40.3341 211.231 40.6362C211.202 40.9286 211.222 41.2064 211.29 41.4696L211.305 41.4842C211.597 41.5037 211.894 41.5135 212.196 41.5135C212.499 41.5135 212.801 41.5184 213.103 41.5281V41.5427C213.152 41.8741 213.166 42.2055 213.147 42.5369C213.127 42.8683 213.122 43.2144 213.132 43.575C212.986 43.614 212.82 43.6384 212.635 43.6481C212.45 43.6481 212.27 43.6481 212.094 43.6481C211.928 43.6481 211.777 43.653 211.641 43.6627C211.504 43.6725 211.412 43.6968 211.363 43.7358C211.314 44.0185 211.295 44.3353 211.305 44.6862C211.324 45.0371 211.344 45.3295 211.363 45.5634L211.378 45.5781C212.021 45.5781 212.655 45.5976 213.278 45.6365Z" fill="white"/>
<path d="M221.869 44.7885C222.035 44.7885 222.172 44.8032 222.279 44.8324C222.259 45.0858 222.24 45.3344 222.22 45.5781C222.201 45.8217 222.176 46.0508 222.147 46.2652C222.118 46.4699 222.079 46.6502 222.03 46.8062C221.991 46.9524 221.938 47.0596 221.869 47.1279C221.704 47.3618 221.484 47.5275 221.211 47.625C220.948 47.7224 220.661 47.7809 220.349 47.8004C220.037 47.8297 219.715 47.8297 219.384 47.8004C219.052 47.7809 218.75 47.7712 218.477 47.7712C217.98 47.6834 217.561 47.469 217.22 47.1279C216.957 46.8939 216.776 46.6015 216.679 46.2506C216.582 45.8997 216.523 45.5342 216.504 45.1541C216.484 44.7642 216.479 44.3743 216.489 43.9844C216.508 43.5945 216.499 43.2387 216.46 42.9171C216.46 42.5662 216.489 42.2153 216.547 41.8644C216.557 41.7572 216.591 41.611 216.65 41.4258C216.708 41.2406 216.752 41.0992 216.781 41.0018C216.85 40.8555 216.957 40.7288 217.103 40.6216C217.259 40.5144 217.434 40.4267 217.629 40.3584C217.834 40.2805 218.048 40.2269 218.273 40.1976C218.507 40.1684 218.741 40.1537 218.974 40.1537C219.169 40.1732 219.355 40.1781 219.53 40.1684C219.715 40.1489 219.91 40.1489 220.115 40.1684C220.427 40.1879 220.724 40.2463 221.007 40.3438C221.289 40.4413 221.533 40.5875 221.738 40.7824C221.874 40.8799 221.977 41.0115 222.045 41.1772C222.123 41.3429 222.181 41.5379 222.22 41.762C222.259 41.9862 222.279 42.2396 222.279 42.5223C222.288 42.7952 222.298 43.0925 222.308 43.4142C222.181 43.4434 222.035 43.458 221.869 43.458C221.713 43.458 221.548 43.4532 221.372 43.4434C221.207 43.4337 221.041 43.4191 220.875 43.3996C220.719 43.3801 220.578 43.3606 220.451 43.3411C220.402 42.9999 220.261 42.7368 220.027 42.5516C219.793 42.3566 219.486 42.3079 219.106 42.4053C218.901 42.4638 218.736 42.5711 218.609 42.727C218.55 42.766 218.507 42.8635 218.477 43.0194C218.438 43.3216 218.419 43.6286 218.419 43.9405C218.419 44.2524 218.409 44.579 218.39 44.9201C218.37 45.1443 218.424 45.3198 218.55 45.4465C218.687 45.5732 218.848 45.6609 219.033 45.7096C219.218 45.7486 219.408 45.7584 219.603 45.7389C219.798 45.7096 219.954 45.656 220.071 45.5781C220.168 45.5098 220.242 45.3977 220.29 45.2418C220.349 45.0761 220.393 44.9299 220.422 44.8032C220.519 44.8129 220.651 44.8178 220.817 44.8178C220.982 44.808 221.158 44.7983 221.343 44.7885C221.528 44.7788 221.704 44.7788 221.869 44.7885Z" fill="white"/>
<path d="M223.849 41.4111C223.907 41.2259 223.951 41.0797 223.98 40.9725C224.049 40.8263 224.156 40.6996 224.302 40.5924C224.458 40.4852 224.633 40.3974 224.828 40.3292C225.033 40.2512 225.247 40.1976 225.472 40.1684C225.706 40.1391 225.94 40.1245 226.173 40.1245C226.368 40.144 226.554 40.1489 226.729 40.1391C226.914 40.1196 227.109 40.1196 227.314 40.1391C227.626 40.1586 227.923 40.222 228.206 40.3292C228.488 40.4267 228.732 40.5729 228.937 40.7678C229.073 40.8555 229.18 40.9969 229.258 41.1918C229.336 41.3868 229.395 41.6158 229.434 41.879C229.473 42.1324 229.497 42.4151 229.507 42.727C229.517 43.0292 229.526 43.3411 229.536 43.6627C229.526 43.9454 229.512 44.2671 229.492 44.6277C229.483 44.9884 229.458 45.3344 229.419 45.6658C229.39 45.9972 229.346 46.2945 229.288 46.5576C229.239 46.8208 229.166 47.0011 229.068 47.0986C228.903 47.3325 228.683 47.4983 228.41 47.5957C228.147 47.6932 227.86 47.7517 227.548 47.7712C227.236 47.8004 226.914 47.8004 226.583 47.7712C226.251 47.7517 225.949 47.7419 225.676 47.7419C225.179 47.6542 224.76 47.4398 224.419 47.0986C224.156 46.8647 223.975 46.5723 223.878 46.2214C223.781 45.8705 223.722 45.5049 223.703 45.1248C223.683 44.7349 223.678 44.345 223.688 43.9552C223.707 43.5653 223.703 43.2095 223.673 42.8878C223.673 42.7124 223.678 42.5418 223.688 42.3761C223.698 42.2007 223.717 42.0203 223.746 41.8351C223.756 41.7279 223.79 41.5866 223.849 41.4111ZM226.305 42.3761C226.1 42.4346 225.935 42.5418 225.808 42.6978C225.749 42.7368 225.706 42.8342 225.676 42.9902C225.637 43.3021 225.618 43.614 225.618 43.9259C225.618 44.2281 225.608 44.5497 225.589 44.8909C225.579 45.1151 225.637 45.2905 225.764 45.4172C225.891 45.5342 226.042 45.617 226.217 45.6658C226.403 45.7048 226.593 45.7145 226.788 45.695C226.982 45.6658 227.143 45.617 227.27 45.5488C227.436 45.4708 227.548 45.31 227.606 45.0663C227.645 44.7544 227.675 44.4425 227.694 44.1306C227.723 43.8089 227.709 43.5068 227.65 43.2241C227.601 42.883 227.46 42.6344 227.226 42.4785C226.992 42.3225 226.685 42.2884 226.305 42.3761Z" fill="white"/>
<path d="M231.046 39.6713C231.046 38.7843 231.09 37.8973 231.177 37.0103L233.166 37.0541C233.166 37.4538 233.161 37.9363 233.151 38.5016C233.141 39.0669 233.132 39.6713 233.122 40.3146C233.112 40.9579 233.102 41.6256 233.093 42.3176C233.093 43.0097 233.093 43.6774 233.093 44.3207C233.093 44.964 233.098 45.5683 233.107 46.1336C233.117 46.6892 233.132 47.162 233.151 47.5519C233.102 47.6103 232.981 47.6396 232.786 47.6396C232.591 47.6493 232.376 47.6493 232.142 47.6396C231.918 47.6396 231.704 47.6347 231.499 47.625C231.294 47.6152 231.158 47.6201 231.09 47.6396C231.158 46.7623 231.182 45.8802 231.163 44.9932C231.153 44.1062 231.133 43.2192 231.104 42.3322C231.075 41.4453 231.055 40.5583 231.046 39.6713Z" fill="white"/>
<path d="M238.313 37.1273C238.527 36.9226 238.722 36.752 238.898 36.6155L239.907 37.639L239.892 37.6536C239.824 37.7218 239.717 37.8193 239.57 37.946C239.424 38.0727 239.273 38.2092 239.117 38.3554C238.961 38.4919 238.815 38.6234 238.679 38.7502C238.542 38.8769 238.454 38.9792 238.415 39.0572C238.259 39.0767 238.079 39.0913 237.874 39.1011C237.679 39.1011 237.485 39.0962 237.29 39.0864C237.104 39.0767 236.934 39.0669 236.778 39.0572C236.632 39.0377 236.524 39.0182 236.456 38.9987C236.622 38.8428 236.807 38.6576 237.012 38.4431C237.226 38.2189 237.441 37.9948 237.655 37.7706C237.879 37.5366 238.099 37.3222 238.313 37.1273ZM234.877 41.4111C234.936 41.2259 234.98 41.0797 235.009 40.9725C235.077 40.8263 235.184 40.6996 235.33 40.5924C235.486 40.4852 235.662 40.3974 235.857 40.3292C236.061 40.2512 236.276 40.1976 236.5 40.1684C236.734 40.1391 236.968 40.1245 237.202 40.1245C237.397 40.144 237.582 40.1489 237.757 40.1391C237.943 40.1196 238.138 40.1196 238.342 40.1391C238.654 40.1586 238.951 40.222 239.234 40.3292C239.517 40.4267 239.76 40.5729 239.965 40.7678C240.102 40.8555 240.209 40.9969 240.287 41.1918C240.365 41.3868 240.423 41.6158 240.462 41.879C240.501 42.1324 240.526 42.4151 240.535 42.727C240.545 43.0292 240.555 43.3411 240.565 43.6627C240.555 43.9454 240.54 44.2671 240.521 44.6277C240.511 44.9884 240.487 45.3344 240.448 45.6658C240.418 45.9972 240.375 46.2945 240.316 46.5576C240.267 46.8208 240.194 47.0011 240.097 47.0986C239.931 47.3325 239.712 47.4983 239.439 47.5957C239.176 47.6932 238.888 47.7517 238.576 47.7712C238.264 47.8004 237.943 47.8004 237.611 47.7712C237.28 47.7517 236.978 47.7419 236.705 47.7419C236.208 47.6542 235.789 47.4398 235.447 47.0986C235.184 46.8647 235.004 46.5723 234.906 46.2214C234.809 45.8705 234.75 45.5049 234.731 45.1248C234.711 44.7349 234.707 44.345 234.716 43.9552C234.736 43.5653 234.731 43.2095 234.702 42.8878C234.702 42.7124 234.707 42.5418 234.716 42.3761C234.726 42.2007 234.746 42.0203 234.775 41.8351C234.785 41.7279 234.819 41.5866 234.877 41.4111ZM237.333 42.3761C237.129 42.4346 236.963 42.5418 236.836 42.6978C236.778 42.7368 236.734 42.8342 236.705 42.9902C236.666 43.3021 236.646 43.614 236.646 43.9259C236.646 44.2281 236.637 44.5497 236.617 44.8909C236.607 45.1151 236.666 45.2905 236.792 45.4172C236.919 45.5342 237.07 45.617 237.246 45.6658C237.431 45.7048 237.621 45.7145 237.816 45.695C238.011 45.6658 238.172 45.617 238.298 45.5488C238.464 45.4708 238.576 45.31 238.635 45.0663C238.674 44.7544 238.703 44.4425 238.722 44.1306C238.752 43.8089 238.737 43.5068 238.679 43.2241C238.63 42.883 238.488 42.6344 238.255 42.4785C238.021 42.3225 237.714 42.2884 237.333 42.3761Z" fill="white"/>
<path d="M243.609 43.8967C243.609 43.9844 243.609 44.077 243.609 44.1745V44.306C243.609 44.8032 243.756 45.2272 244.048 45.5781C244.223 45.7925 244.457 45.9241 244.75 45.9728C245.042 46.0118 245.315 45.9923 245.568 45.9143C245.656 45.8851 245.724 45.8412 245.773 45.7827C245.822 45.7145 245.861 45.6414 245.89 45.5634C245.919 45.4757 245.939 45.388 245.949 45.3003C245.968 45.2028 245.983 45.1102 245.992 45.0225C245.992 44.6326 245.983 44.2378 245.963 43.8382C245.953 43.4288 245.9 43.0389 245.802 42.6685C245.744 42.5223 245.646 42.4102 245.51 42.3322C245.383 42.2445 245.242 42.1909 245.086 42.1714C244.93 42.1519 244.774 42.1665 244.618 42.2153C244.472 42.2543 244.34 42.3225 244.223 42.42C244.077 42.5857 243.95 42.7709 243.843 42.9756C243.746 43.1705 243.678 43.3801 243.639 43.6043C243.619 43.7017 243.609 43.7992 243.609 43.8967ZM246.519 50.5053C246.382 50.5345 246.256 50.554 246.139 50.5637C246.041 50.5832 245.866 50.5881 245.612 50.5784C245.359 50.5686 245.032 50.5637 244.633 50.5637C244.175 50.5637 243.765 50.4663 243.405 50.2713C243.044 50.0764 242.752 49.8132 242.527 49.4818C242.488 49.4136 242.449 49.321 242.41 49.204C242.381 49.0968 242.352 48.9847 242.323 48.8677C242.303 48.7508 242.289 48.6387 242.279 48.5315C242.279 48.4242 242.284 48.3316 242.293 48.2537C242.391 48.2147 242.522 48.1854 242.688 48.1659C242.854 48.1562 243.024 48.1513 243.2 48.1513C243.385 48.1611 243.561 48.1708 243.726 48.1806C243.902 48.2 244.048 48.2195 244.165 48.239C244.165 48.4925 244.243 48.6923 244.399 48.8385C244.565 48.9944 244.745 49.0822 244.94 49.1017C245.144 49.1212 245.339 49.0724 245.525 48.9555C245.72 48.8385 245.846 48.6435 245.905 48.3706C245.915 48.2731 245.924 48.1708 245.934 48.0636C245.944 47.9661 245.944 47.8784 245.934 47.8004C245.915 47.6347 245.915 47.4641 245.934 47.2887C245.837 47.3959 245.72 47.4739 245.583 47.5226C245.456 47.5714 245.315 47.6055 245.159 47.625C245.013 47.6445 244.862 47.6542 244.706 47.6542C244.55 47.6542 244.404 47.6591 244.267 47.6688C244.082 47.6688 243.892 47.6542 243.697 47.625C243.512 47.5957 243.332 47.547 243.156 47.4788C242.99 47.4105 242.839 47.3179 242.703 47.201C242.566 47.084 242.454 46.9329 242.367 46.7477C242.23 46.4845 242.133 46.2116 242.074 45.929C242.016 45.6365 241.977 45.3392 241.957 45.0371C241.957 44.579 241.967 44.0867 241.986 43.5604C242.006 43.034 242.089 42.5418 242.235 42.0837C242.391 41.6158 242.635 41.2259 242.966 40.914C243.297 40.5924 243.775 40.4121 244.399 40.3731C244.711 40.3536 244.998 40.3974 245.261 40.5046C245.534 40.6021 245.729 40.7873 245.846 41.0602C245.885 41.0797 245.905 41.0651 245.905 41.0164C245.915 40.9579 245.915 40.8897 245.905 40.8117C245.905 40.724 245.9 40.6411 245.89 40.5631C245.89 40.4754 245.905 40.4072 245.934 40.3584C246.256 40.3195 246.582 40.3097 246.914 40.3292C247.245 40.3389 247.576 40.3438 247.908 40.3438C247.947 41.5622 247.966 42.8391 247.966 44.1745C247.976 45.5001 247.952 46.8647 247.893 48.2683C247.883 48.5022 247.883 48.7313 247.893 48.9555C247.903 49.1894 247.859 49.3843 247.762 49.5403C247.625 49.7547 247.484 49.9253 247.338 50.052C247.201 50.1787 247.065 50.2762 246.928 50.3444C246.792 50.4224 246.655 50.476 246.519 50.5053Z" fill="white"/>
<path d="M250.697 40.2853C250.922 40.2951 251.19 40.2951 251.502 40.2853H251.75V40.3292C251.74 41.5086 251.716 42.7124 251.677 43.9405C251.648 45.1687 251.667 46.3725 251.735 47.5519C251.687 47.6103 251.565 47.6396 251.37 47.6396C251.175 47.6493 250.961 47.6493 250.727 47.6396C250.502 47.6396 250.288 47.6347 250.083 47.625C249.879 47.6152 249.742 47.6201 249.674 47.6396C249.723 47.0255 249.742 46.4017 249.732 45.7681C249.732 45.1346 249.723 44.5059 249.703 43.882C249.684 43.2582 249.674 42.6442 249.674 42.0398C249.674 41.4258 249.703 40.8312 249.762 40.2561V40.2415C249.801 40.2317 249.864 40.2317 249.952 40.2415C250.049 40.2512 250.122 40.2561 250.171 40.2561C250.298 40.2658 250.473 40.2756 250.697 40.2853ZM249.718 38.2384C249.698 37.9265 249.693 37.5464 249.703 37.098L251.692 37.1419C251.692 37.2004 251.692 37.3076 251.692 37.4635C251.701 37.6097 251.706 37.7754 251.706 37.9606C251.716 38.1361 251.721 38.3213 251.721 38.5162C251.731 38.7014 251.735 38.8671 251.735 39.0133C251.696 39.0718 251.604 39.1108 251.458 39.1303C251.321 39.1498 251.156 39.1595 250.961 39.1595C250.775 39.1498 250.576 39.14 250.361 39.1303C250.147 39.1108 249.947 39.1059 249.762 39.1157C249.762 38.833 249.747 38.5406 249.718 38.2384Z" fill="white"/>
<path d="M258.695 44.7885C258.861 44.7885 258.998 44.8032 259.105 44.8324C259.085 45.0858 259.066 45.3344 259.046 45.5781C259.027 45.8217 259.002 46.0508 258.973 46.2652C258.944 46.4699 258.905 46.6502 258.856 46.8062C258.817 46.9524 258.764 47.0596 258.695 47.1279C258.53 47.3618 258.31 47.5275 258.037 47.625C257.774 47.7224 257.487 47.7809 257.175 47.8004C256.863 47.8297 256.541 47.8297 256.21 47.8004C255.878 47.7809 255.576 47.7712 255.303 47.7712C254.806 47.6834 254.387 47.469 254.046 47.1279C253.783 46.8939 253.603 46.6015 253.505 46.2506C253.408 45.8997 253.349 45.5342 253.33 45.1541C253.31 44.7642 253.305 44.3743 253.315 43.9844C253.334 43.5945 253.325 43.2387 253.286 42.9171C253.286 42.5662 253.315 42.2153 253.373 41.8644C253.383 41.7572 253.417 41.611 253.476 41.4258C253.534 41.2406 253.578 41.0992 253.607 41.0018C253.676 40.8555 253.783 40.7288 253.929 40.6216C254.085 40.5144 254.26 40.4267 254.455 40.3584C254.66 40.2805 254.875 40.2269 255.099 40.1976C255.333 40.1684 255.567 40.1537 255.801 40.1537C255.995 40.1732 256.181 40.1781 256.356 40.1684C256.541 40.1489 256.736 40.1489 256.941 40.1684C257.253 40.1879 257.55 40.2463 257.833 40.3438C258.115 40.4413 258.359 40.5875 258.564 40.7824C258.7 40.8799 258.803 41.0115 258.871 41.1772C258.949 41.3429 259.007 41.5379 259.046 41.762C259.085 41.9862 259.105 42.2396 259.105 42.5223C259.115 42.7952 259.124 43.0925 259.134 43.4142C259.007 43.4434 258.861 43.458 258.695 43.458C258.539 43.458 258.374 43.4532 258.198 43.4434C258.033 43.4337 257.867 43.4191 257.701 43.3996C257.545 43.3801 257.404 43.3606 257.277 43.3411C257.228 42.9999 257.087 42.7368 256.853 42.5516C256.619 42.3566 256.312 42.3079 255.932 42.4053C255.727 42.4638 255.562 42.5711 255.435 42.727C255.377 42.766 255.333 42.8635 255.303 43.0194C255.264 43.3216 255.245 43.6286 255.245 43.9405C255.245 44.2524 255.235 44.579 255.216 44.9201C255.196 45.1443 255.25 45.3198 255.377 45.4465C255.513 45.5732 255.674 45.6609 255.859 45.7096C256.044 45.7486 256.234 45.7584 256.429 45.7389C256.624 45.7096 256.78 45.656 256.897 45.5781C256.995 45.5098 257.068 45.3977 257.116 45.2418C257.175 45.0761 257.219 44.9299 257.248 44.8032C257.345 44.8129 257.477 44.8178 257.643 44.8178C257.808 44.808 257.984 44.7983 258.169 44.7885C258.354 44.7788 258.53 44.7788 258.695 44.7885Z" fill="white"/>
<path d="M260.675 41.4111C260.733 41.2259 260.777 41.0797 260.806 40.9725C260.875 40.8263 260.982 40.6996 261.128 40.5924C261.284 40.4852 261.459 40.3974 261.654 40.3292C261.859 40.2512 262.074 40.1976 262.298 40.1684C262.532 40.1391 262.766 40.1245 263 40.1245C263.194 40.144 263.38 40.1489 263.555 40.1391C263.74 40.1196 263.935 40.1196 264.14 40.1391C264.452 40.1586 264.749 40.222 265.032 40.3292C265.314 40.4267 265.558 40.5729 265.763 40.7678C265.899 40.8555 266.007 40.9969 266.085 41.1918C266.162 41.3868 266.221 41.6158 266.26 41.879C266.299 42.1324 266.323 42.4151 266.333 42.727C266.343 43.0292 266.353 43.3411 266.362 43.6627C266.353 43.9454 266.338 44.2671 266.318 44.6277C266.309 44.9884 266.284 45.3344 266.245 45.6658C266.216 45.9972 266.172 46.2945 266.114 46.5576C266.065 46.8208 265.992 47.0011 265.894 47.0986C265.729 47.3325 265.509 47.4983 265.237 47.5957C264.973 47.6932 264.686 47.7517 264.374 47.7712C264.062 47.8004 263.74 47.8004 263.409 47.7712C263.078 47.7517 262.775 47.7419 262.502 47.7419C262.005 47.6542 261.586 47.4398 261.245 47.0986C260.982 46.8647 260.802 46.5723 260.704 46.2214C260.607 45.8705 260.548 45.5049 260.529 45.1248C260.509 44.7349 260.504 44.345 260.514 43.9552C260.534 43.5653 260.529 43.2095 260.499 42.8878C260.499 42.7124 260.504 42.5418 260.514 42.3761C260.524 42.2007 260.543 42.0203 260.572 41.8351C260.582 41.7279 260.616 41.5866 260.675 41.4111ZM263.131 42.3761C262.926 42.4346 262.761 42.5418 262.634 42.6978C262.576 42.7368 262.532 42.8342 262.502 42.9902C262.463 43.3021 262.444 43.614 262.444 43.9259C262.444 44.2281 262.434 44.5497 262.415 44.8909C262.405 45.1151 262.463 45.2905 262.59 45.4172C262.717 45.5342 262.868 45.617 263.043 45.6658C263.229 45.7048 263.419 45.7145 263.614 45.695C263.809 45.6658 263.969 45.617 264.096 45.5488C264.262 45.4708 264.374 45.31 264.432 45.0663C264.471 44.7544 264.501 44.4425 264.52 44.1306C264.549 43.8089 264.535 43.5068 264.476 43.2241C264.427 42.883 264.286 42.6344 264.052 42.4785C263.818 42.3225 263.511 42.2884 263.131 42.3761Z" fill="white"/>
<path d="M273.515 41.1626C273.71 41.5817 273.808 42.0544 273.808 42.5808C273.496 42.6295 273.15 42.6588 272.77 42.6685C272.399 42.6783 272.048 42.649 271.717 42.5808C271.746 42.4638 271.732 42.3469 271.673 42.2299C271.624 42.1129 271.546 42.0106 271.439 41.9229C271.342 41.8351 271.225 41.7718 271.088 41.7328C270.962 41.6841 270.835 41.6646 270.708 41.6743C270.484 41.7133 270.313 41.801 270.196 41.9375C270.089 42.0642 270.036 42.2055 270.036 42.3615C270.036 42.5174 270.094 42.6734 270.211 42.8293C270.328 42.9853 270.499 43.1023 270.723 43.1802C271.269 43.2582 271.78 43.3654 272.258 43.5019C272.736 43.6286 273.087 43.8382 273.311 44.1306C273.525 44.4815 273.657 44.8421 273.705 45.2125C273.754 45.5732 273.686 46.0216 273.501 46.5576C273.277 47.0353 272.926 47.3764 272.448 47.5811C271.97 47.7858 271.449 47.8833 270.884 47.8735C270.387 47.893 269.938 47.8491 269.539 47.7419C269.139 47.6347 268.793 47.4739 268.5 47.2594C268.218 47.045 267.994 46.7818 267.828 46.4699C267.672 46.158 267.594 45.8071 267.594 45.4172V45.3441C267.916 45.3051 268.281 45.2954 268.691 45.3149C269.1 45.3246 269.456 45.3295 269.758 45.3295C269.768 45.5537 269.87 45.7389 270.065 45.8851C270.27 46.0216 270.484 46.1044 270.708 46.1336C270.932 46.1531 271.137 46.1093 271.322 46.0021C271.507 45.8948 271.595 45.6999 271.585 45.4172C271.615 45.1833 271.561 45.0078 271.425 44.8909C271.288 44.7739 271.108 44.6862 270.884 44.6277C270.659 44.5595 270.406 44.501 270.123 44.4523C269.841 44.4035 269.563 44.3207 269.29 44.2037C268.744 44.0185 268.345 43.731 268.091 43.3411C267.847 42.9414 267.73 42.5321 267.74 42.1129C267.76 41.6841 267.896 41.2893 268.15 40.9286C268.413 40.568 268.783 40.3243 269.261 40.1976C269.446 40.1489 269.67 40.1099 269.933 40.0806C270.206 40.0514 270.494 40.0368 270.796 40.0368C271.098 40.0368 271.4 40.0563 271.702 40.0953C272.005 40.1245 272.282 40.1684 272.536 40.2269C272.994 40.4218 273.32 40.7337 273.515 41.1626Z" fill="white"/>
</svg>
